<svg width="24" height="24" viewBox="0 0 24 24" fill="none" xmlns="http://www.w3.org/2000/svg">
<path d="M9.87031 5.6701L6.45031 7.75012L4.89031 5.19012C4.32031 4.25012 4.62031 3.01012 5.56031 2.44012C6.50031 1.87012 7.74031 2.1701 8.31031 3.1101L9.87031 5.6701Z" stroke="#292D32" stroke-width="1.5" stroke-linecap="round" stroke-linejoin="round"/>
<path d="M11.8201 9.1596L8.66012 11.0796C6.82012 12.1996 6.26011 14.4596 7.15011 16.2596L9.20011 20.4396C9.86011 21.7896 11.4601 22.2596 12.7401 21.4696L19.1701 17.5596C20.4601 16.7796 20.7701 15.1496 19.8801 13.9396L17.1101 10.1996C15.9101 8.57964 13.6601 8.0396 11.8201 9.1596Z" stroke="#292D32" stroke-width="1.5" stroke-linecap="round" stroke-linejoin="round"/>
<path d="M10.7564 5.09815L5.63184 8.21875L7.71224 11.6351L12.8368 8.51455L10.7564 5.09815Z" stroke="#292D32" stroke-width="1.5" stroke-linecap="round" stroke-linejoin="round"/>
<path d="M14.3096 16.8096L15.9596 19.5196" stroke="#292D32" stroke-width="1.5" stroke-linecap="round" stroke-linejoin="round"/>
<path d="M11.75 18.3701L13.4 21.0801" stroke="#292D32" stroke-width="1.5" stroke-linecap="round" stroke-linejoin="round"/>
<path d="M16.8701 15.25L18.5201 17.96" stroke="#292D32" stroke-width="1.5" stroke-linecap="round" stroke-linejoin="round"/>
</svg>
