<svg width="24" height="24" viewBox="0 0 24 24" fill="none" xmlns="http://www.w3.org/2000/svg">
<path d="M2 22H22" stroke="#292D32" stroke-width="1.5" stroke-linecap="round" stroke-linejoin="round"/>
<path d="M3.11035 22V13C3.11035 11.34 4.60035 10 6.44035 10H17.5504C19.3904 10 20.8804 11.34 20.8804 13V22" stroke="#292D32" stroke-width="1.5" stroke-linecap="round" stroke-linejoin="round"/>
<path d="M5.55957 10V7.17C5.55957 5.97 6.63957 5 7.97957 5H16.0296C17.3596 5 18.4396 5.97 18.4396 7.17V10" stroke="#292D32" stroke-width="1.5" stroke-linecap="round" stroke-linejoin="round"/>
<path d="M3.53027 13.9805L3.90027 13.9905C4.64027 14.0005 5.23027 14.6005 5.23027 15.3405V15.6705C5.23027 16.4105 5.83027 17.0205 6.58027 17.0205C7.32027 17.0205 7.93027 16.4205 7.93027 15.6705V15.3605C7.93027 14.6205 8.53027 14.0105 9.28027 14.0105C10.0203 14.0105 10.6303 14.6105 10.6303 15.3605V15.6705C10.6303 16.4105 11.2303 17.0205 11.9803 17.0205C12.7203 17.0205 13.3303 16.4205 13.3303 15.6705V15.3605C13.3303 14.6205 13.9303 14.0105 14.6803 14.0105C15.4203 14.0105 16.0303 14.6105 16.0303 15.3605V15.6705C16.0303 16.4105 16.6303 17.0205 17.3803 17.0205C18.1203 17.0205 18.7303 16.4205 18.7303 15.6705V15.3605C18.7303 14.6205 19.3303 14.0105 20.0803 14.0105H20.5303" stroke="#292D32" stroke-width="1.5" stroke-linecap="round" stroke-linejoin="round"/>
<path d="M8 5V3" stroke="#292D32" stroke-width="1.5" stroke-linecap="round" stroke-linejoin="round"/>
<path d="M16 5V3" stroke="#292D32" stroke-width="1.5" stroke-linecap="round" stroke-linejoin="round"/>
<path d="M12 5V2" stroke="#292D32" stroke-width="1.5" stroke-linecap="round" stroke-linejoin="round"/>
</svg>
