<svg width="24" height="24" viewBox="0 0 24 24" fill="none" xmlns="http://www.w3.org/2000/svg">
<path d="M10.0703 2.81984L3.14028 8.36989C2.36028 8.98989 1.86026 10.2999 2.03026 11.2799L3.36025 19.2399C3.60025 20.6599 4.96026 21.81 6.40026 21.81H17.6003C19.0303 21.81 20.4003 20.6499 20.6403 19.2399L21.9703 11.2799C22.1303 10.2999 21.6303 8.98989 20.8603 8.36989L13.9303 2.82985C12.8603 1.96985 11.1303 1.96984 10.0703 2.81984Z" stroke="#292D32" stroke-width="1.5" stroke-linecap="round" stroke-linejoin="round"/>
<path d="M9.87988 14.3802C11.1499 13.1702 12.8499 13.1702 14.1199 14.3802" stroke="#292D32" stroke-width="1.5" stroke-linecap="round" stroke-linejoin="round"/>
<path d="M16.24 12.2602C15.7 11.7302 15.1 11.3202 14.48 11.0202C12.89 10.2602 11.11 10.2602 9.51001 11.0202C8.89001 11.3202 8.3 11.7302 7.75 12.2602" stroke="#292D32" stroke-width="1.5" stroke-linecap="round" stroke-linejoin="round"/>
<path d="M11.9955 17H12.0045" stroke="#292D32" stroke-width="2" stroke-linecap="round" stroke-linejoin="round"/>
</svg>
