<svg width="24" height="24" viewBox="0 0 24 24" fill="none" xmlns="http://www.w3.org/2000/svg">
<path d="M22.9998 15.3695V17.5596C22.9998 19.9996 21.2198 22.2995 18.7998 22.9695C18.6298 23.0095 18.4499 23.0095 18.2899 22.9695C17.1099 22.6495 16.0698 21.9295 15.3398 20.9995C14.5498 20.0195 14.0898 18.8096 14.0898 17.5596V15.3695C14.0898 14.9495 14.3998 14.4895 14.7798 14.3295L17.5598 13.1895C18.1898 12.9395 18.8898 12.9395 19.5198 13.1895L20.5198 13.5995L22.3098 14.3295C22.6898 14.4895 22.9998 14.9495 22.9998 15.3695Z" stroke="#292D32" stroke-width="1.5" stroke-linecap="round" stroke-linejoin="round"/>
<path d="M20.9503 11.0103L20.5203 13.6003L19.5203 13.1902C18.8903 12.9402 18.1903 12.9402 17.5603 13.1902L14.7803 14.3302C14.4003 14.4902 14.0903 14.9503 14.0903 15.3703V17.5604C14.0903 18.8104 14.5503 20.0203 15.3403 21.0003H6.18027C4.81027 21.0003 3.52029 19.9104 3.29029 18.5604L2.03028 11.0103C1.87028 10.0803 2.34027 8.83028 3.08027 8.24028L9.66029 2.98027C10.6703 2.17027 12.3103 2.17028 13.3203 2.99028L19.9003 8.24028C20.6303 8.83028 21.1103 10.0803 20.9503 11.0103Z" stroke="#292D32" stroke-width="1.5" stroke-linecap="round" stroke-linejoin="round"/>
</svg>
