<svg width="24" height="24" viewBox="0 0 24 24" fill="none" xmlns="http://www.w3.org/2000/svg">
<path d="M19.3297 5.67979L13.0597 2.29979C12.3997 1.93979 11.5997 1.93979 10.9397 2.29979L4.66969 5.67979C4.20969 5.92979 3.92969 6.40979 3.92969 6.95979C3.92969 7.49979 4.20969 7.98979 4.66969 8.23979L10.9397 11.6198C11.2697 11.7998 11.6397 11.8898 11.9997 11.8898C12.3597 11.8898 12.7297 11.7998 13.0597 11.6198L19.3297 8.23979C19.7897 7.98979 20.0697 7.50979 20.0697 6.95979C20.0697 6.40979 19.7897 5.92979 19.3297 5.67979Z" fill="#292D32"/>
<path d="M9.91 12.79L4.07 9.87C3.62 9.65 3.1 9.67 2.68 9.93C2.25 10.2 2 10.65 2 11.15V16.66C2 17.61 2.53 18.47 3.38 18.9L9.21 21.82C9.41 21.92 9.63 21.97 9.85 21.97C10.11 21.97 10.37 21.9 10.6 21.76C11.03 21.5 11.28 21.04 11.28 20.54V15.03C11.29 14.07 10.76 13.21 9.91 12.79Z" fill="#292D32"/>
<path d="M21.3197 9.93014C20.8897 9.67014 20.3697 9.64014 19.9297 9.87014L14.0997 12.7901C13.2497 13.2201 12.7197 14.0701 12.7197 15.0301V20.5401C12.7197 21.0401 12.9697 21.5001 13.3997 21.7601C13.6297 21.9001 13.8897 21.9701 14.1497 21.9701C14.3697 21.9701 14.5897 21.9201 14.7897 21.8201L20.6197 18.9001C21.4697 18.4701 21.9997 17.6201 21.9997 16.6601V11.1501C21.9997 10.6501 21.7497 10.2001 21.3197 9.93014Z" fill="#292D32"/>
</svg>
