<svg width="24" height="24" viewBox="0 0 24 24" fill="none" xmlns="http://www.w3.org/2000/svg">
<path d="M20.4202 8.99998C20.2802 8.98998 20.1002 8.97998 19.9002 8.97998C19.5102 8.97998 19.2002 9.28998 19.2002 9.67998V14.33C19.2002 14.72 19.5102 15.03 19.9002 15.03C20.1002 15.03 20.2702 15.02 20.4402 15.01C22.0002 14.83 22.0002 13.73 22.0002 12.93V11.07C22.0002 10.27 22.0002 9.16998 20.4202 8.99998Z" fill="#292D32"/>
<path d="M18.2804 10.14V13.86C18.2804 16.81 15.8804 19.21 12.9304 19.21H9.2604C8.4704 19.21 7.9904 18.34 8.4104 17.68L15.6704 6.20001C16.0304 5.63001 16.8404 5.58001 17.2904 6.09001C18.0104 6.92001 18.2804 8.21001 18.2804 10.14Z" fill="#292D32"/>
<path d="M16.4 1.86987C16.05 1.64987 15.59 1.74987 15.37 2.09987L13.66 4.80987C13.43 4.79987 13.19 4.78987 12.93 4.78987H7.35C3.25 4.78987 2 6.03987 2 10.1399V13.8599C2 16.9099 2.7 18.3699 4.74 18.9199L3.37 21.0999C3.15 21.4499 3.25 21.9099 3.6 22.1299C3.72 22.2099 3.86 22.2499 4 22.2499C4.25 22.2499 4.49 22.1299 4.63 21.8999L16.63 2.89987C16.86 2.54987 16.75 2.08987 16.4 1.86987Z" fill="#292D32"/>
</svg>
