<svg width="24" height="24" viewBox="0 0 24 24" fill="none" xmlns="http://www.w3.org/2000/svg">
<path d="M15.59 1.75C12.62 1.75 10.21 4.16 10.21 7.13C10.21 10.1 12.62 12.51 15.59 12.51C18.56 12.51 20.97 10.1 20.97 7.13C20.97 4.16 18.56 1.75 15.59 1.75Z" fill="#292D32"/>
<path d="M6.36027 13.0298C4.53027 13.0298 3.03027 14.5198 3.03027 16.3598C3.03027 18.1998 4.52027 19.6898 6.36027 19.6898C8.19027 19.6898 9.69027 18.1998 9.69027 16.3598C9.69027 14.5198 8.19027 13.0298 6.36027 13.0298Z" fill="#292D32"/>
<path d="M16.6196 16.6201C15.0696 16.6201 13.8096 17.8801 13.8096 19.4301C13.8096 20.9801 15.0696 22.2401 16.6196 22.2401C18.1696 22.2401 19.4296 20.9801 19.4296 19.4301C19.4296 17.8801 18.1696 16.6201 16.6196 16.6201Z" fill="#292D32"/>
</svg>
