<svg width="24" height="24" viewBox="0 0 24 24" fill="none" xmlns="http://www.w3.org/2000/svg">
<path d="M11.8195 6.9C14.6795 6.28 17.5795 6.19 20.4495 6.66C18.6795 3.86 15.5595 2 11.9995 2C8.88953 2 6.10953 3.42 4.26953 5.65C4.70953 6.95 5.26953 8.19 5.93953 9.37C6.31953 10.05 7.28953 10.02 7.67953 9.35C8.52953 7.92 10.0595 6.96 11.8195 6.9Z" fill="#292D32"/>
<path d="M7.72002 14.7199C5.72002 12.5799 4.16002 10.1399 3.09002 7.43994C1.59002 10.3999 1.60002 14.0299 3.43002 17.0799C5.03002 19.7499 7.67002 21.4099 10.53 21.8399C11.42 20.7899 12.2 19.6699 12.87 18.4999C13.26 17.8199 12.73 17.0099 11.95 17.0099C10.28 17.0199 8.67002 16.1999 7.72002 14.7199Z" fill="#292D32"/>
<path d="M8.57031 12.0001C8.57031 12.6101 8.72031 13.1801 9.03031 13.7201C9.64031 14.7701 10.7703 15.4301 11.9903 15.4301C13.2103 15.4301 14.3503 14.7701 14.9503 13.7201C15.2603 13.1801 15.4203 12.6101 15.4203 12.0001C15.4203 10.1101 13.8803 8.58013 11.9903 8.58013C10.1103 8.57013 8.57031 10.1101 8.57031 12.0001Z" fill="#292D32"/>
<path d="M21.3402 8.41979C19.9702 8.12979 18.5802 7.96979 17.2002 7.94979C16.4102 7.93979 15.9602 8.79979 16.3502 9.48979C16.7502 10.1998 16.9802 11.0198 16.9802 11.8898C16.9802 12.7298 16.7602 13.5598 16.3502 14.2998C15.4102 17.1798 14.0102 19.7398 12.1602 21.9998C17.6102 21.9098 22.0002 17.4698 22.0002 11.9998C22.0002 10.7398 21.7702 9.52979 21.3402 8.41979Z" fill="#292D32"/>
</svg>
