<svg width="24" height="24" viewBox="0 0 24 24" fill="none" xmlns="http://www.w3.org/2000/svg">
<path d="M21.7699 2.22988C21.4699 1.92988 20.9799 1.92988 20.6799 2.22988L2.22988 20.6899C1.92988 20.9899 1.92988 21.4799 2.22988 21.7799C2.37988 21.9199 2.56988 21.9999 2.76988 21.9999C2.96988 21.9999 3.15988 21.9199 3.30988 21.7699L21.7699 3.30988C22.0799 3.00988 22.0799 2.52988 21.7699 2.22988Z" fill="#292D32"/>
<path d="M14.8195 3.5199V9.1799L9.17952 14.8199V13.2799H6.08952C4.68952 13.2799 4.29952 12.4199 5.22952 11.3699L11.9995 3.6699L12.7995 2.7599C13.9095 1.4999 14.8195 1.8399 14.8195 3.5199Z" fill="#292D32"/>
<path d="M18.7697 12.6302L11.9997 20.3302L11.1997 21.2402C10.0897 22.5002 9.17969 22.1602 9.17969 20.4802V17.8202L16.2797 10.7202H17.9097C19.3097 10.7202 19.6997 11.5802 18.7697 12.6302Z" fill="#292D32"/>
</svg>
