<svg width="24" height="24" viewBox="0 0 24 24" fill="none" xmlns="http://www.w3.org/2000/svg">
<path d="M17.02 2.88C16.54 2.4 15.58 2 14.9 2H9.1C8.42 2 7.46 2.4 6.98 2.88L2.88 6.98C2.4 7.46 2 8.42 2 9.1V14.9C2 15.58 2.4 16.54 2.88 17.02L4.41 18.55L18.55 4.41L17.02 2.88Z" fill="#292D32"/>
<path d="M21.1197 6.98022L19.6097 5.47021L5.46973 19.6102L6.97973 21.1202C7.45973 21.6002 8.41973 22.0002 9.09973 22.0002H14.8997C15.5797 22.0002 16.5397 21.6002 17.0197 21.1202L21.1197 17.0202C21.5997 16.5402 21.9997 15.5802 21.9997 14.9002V9.10022C21.9997 8.42022 21.5997 7.46022 21.1197 6.98022Z" fill="#292D32"/>
<path d="M2.48996 20.4698C2.19996 20.7598 2.19996 21.2398 2.48996 21.5298C2.63996 21.6798 2.82996 21.7498 3.01996 21.7498C3.20996 21.7498 3.39996 21.6798 3.54996 21.5298L5.46996 19.6098L4.40996 18.5498L2.48996 20.4698Z" fill="#292D32"/>
<path d="M21.5298 3.54996C21.8198 3.25996 21.8198 2.77996 21.5298 2.48996C21.2398 2.19996 20.7598 2.19996 20.4698 2.48996L18.5498 4.40996L19.6098 5.46996L21.5298 3.54996Z" fill="#292D32"/>
</svg>
