<svg width="24" height="24" viewBox="0 0 24 24" fill="none" xmlns="http://www.w3.org/2000/svg">
<path d="M20.9597 17.84L19.3297 18.39C18.8797 18.54 18.5197 18.89 18.3697 19.35L17.8197 20.98C17.3497 22.39 15.3697 22.36 14.9297 20.95L13.0797 15C12.7197 13.82 13.8097 12.72 14.9797 13.09L20.9397 14.94C22.3397 15.38 22.3597 17.37 20.9597 17.84Z" fill="#292D32"/>
<path d="M21.0004 11.4999C21.0004 11.9299 20.9704 12.3599 20.9204 12.7799C20.8804 13.0799 20.5704 13.2599 20.2804 13.1699L15.4304 11.6599C14.3504 11.3299 13.2004 11.6099 12.4004 12.3999C11.6004 13.1999 11.3104 14.3699 11.6504 15.4499L13.1504 20.2799C13.2404 20.5699 13.0504 20.8799 12.7504 20.9199C12.3304 20.9699 11.9204 20.9999 11.5004 20.9999C6.16039 20.9999 1.86039 16.6099 2.00039 11.2299C2.14039 6.26991 6.27039 2.13991 11.2304 1.99991C16.6104 1.85991 21.0004 6.15991 21.0004 11.4999Z" fill="#292D32"/>
</svg>
