<svg width="24" height="24" viewBox="0 0 24 24" fill="none" xmlns="http://www.w3.org/2000/svg">
<path d="M22.9998 15.3699V17.5599C22.9998 19.9999 21.2198 22.2999 18.7998 22.9699C18.6298 23.0099 18.4498 23.0099 18.2898 22.9699C17.1098 22.6499 16.0698 21.9299 15.3398 20.9999C14.5498 20.0199 14.0898 18.8099 14.0898 17.5599V15.3699C14.0898 14.9499 14.3998 14.4899 14.7798 14.3299L17.5598 13.1899C18.1898 12.9399 18.8898 12.9399 19.5198 13.1899L20.5198 13.5999L22.3098 14.3299C22.6898 14.4899 22.9998 14.9499 22.9998 15.3699Z" fill="#292D32"/>
<path d="M20.9503 11.0098L20.7703 12.0798L20.0703 11.7998C19.0803 11.3998 18.0003 11.3998 16.9903 11.7998L14.2003 12.9498C13.2503 13.3498 12.5903 14.3398 12.5903 15.3698V17.5598C12.5903 18.7498 12.9203 19.9398 13.5303 20.9998H6.18028C4.81028 20.9998 3.52028 19.9098 3.29028 18.5598L2.03028 11.0098C1.87028 10.0798 2.34028 8.82979 3.08028 8.23979L9.66028 2.97979C10.6703 2.16979 12.3103 2.16979 13.3203 2.98979L19.9003 8.23979C20.6303 8.82979 21.1103 10.0798 20.9503 11.0098Z" fill="#292D32"/>
</svg>
