<svg width="24" height="24" viewBox="0 0 24 24" fill="none" xmlns="http://www.w3.org/2000/svg">
<path d="M20.8603 8.55979L13.9303 3.01979C12.8603 2.15979 11.1303 2.15979 10.0703 3.00979L3.14027 8.55979C2.36027 9.17979 1.86027 10.4898 2.03027 11.4698L3.36027 19.4298C3.60027 20.8498 4.96027 21.9998 6.40027 21.9998H17.6003C19.0303 21.9998 20.4003 20.8398 20.6403 19.4298L21.9703 11.4698C22.1303 10.4898 21.6303 9.17979 20.8603 8.55979ZM9.38027 17.3798C8.82027 17.3798 8.38027 16.9298 8.38027 16.3798C8.38027 15.8298 8.83027 15.3798 9.38027 15.3798C9.93027 15.3798 10.3803 15.8298 10.3803 16.3798C10.3803 16.9298 9.93027 17.3798 9.38027 17.3798ZM12.3903 17.1198C12.3803 17.1198 12.3803 17.1198 12.3703 17.1198C11.9603 17.1198 11.6303 16.7898 11.6203 16.3898C11.5903 15.0398 10.7003 14.1498 9.35027 14.1198C8.94027 14.1098 8.61027 13.7698 8.62027 13.3498C8.63027 12.9398 8.96027 12.6198 9.37027 12.6198C9.38027 12.6198 9.38027 12.6198 9.39027 12.6198C11.5403 12.6698 13.0803 14.1998 13.1203 16.3498C13.1303 16.7698 12.8103 17.1198 12.3903 17.1198ZM15.3803 17.1198C14.9603 17.1198 14.6303 16.7898 14.6203 16.3798C14.6103 15.7198 14.5003 15.0898 14.3003 14.4998C13.7903 13.0398 12.7003 11.9598 11.2403 11.4398C10.6503 11.2298 10.0203 11.1198 9.36026 11.1198C8.95026 11.1198 8.61027 10.7798 8.62027 10.3598C8.62027 9.94979 8.96027 9.61979 9.37027 9.61979H9.38027C10.2103 9.62979 11.0003 9.76979 11.7403 10.0298C13.6303 10.6998 15.0403 12.1098 15.7103 13.9998C15.9703 14.7398 16.1103 15.5398 16.1203 16.3598C16.1303 16.7798 15.8003 17.1198 15.3803 17.1198Z" fill="#292D32"/>
</svg>
