<svg width="24" height="24" viewBox="0 0 24 24" fill="none" xmlns="http://www.w3.org/2000/svg">
<path d="M21.9605 11.6598C20.7705 10.9098 19.3905 10.4998 17.9705 10.4998C13.8305 10.4998 10.4705 13.8598 10.4705 17.9998C10.4705 19.4198 10.8705 20.7898 11.6205 21.9798C11.1605 21.9698 10.6905 21.9198 10.2105 21.8498C6.10048 21.1498 2.79048 17.8198 2.11048 13.6998C0.980478 6.84977 6.82048 1.00978 13.6705 2.13978C17.7905 2.81978 21.1205 6.12977 21.8205 10.2398C21.9005 10.7198 21.9505 11.1998 21.9605 11.6598Z" fill="#292D32"/>
<path d="M13.3797 21.86C12.4997 20.82 11.9697 19.47 11.9697 18C11.9697 14.69 14.6597 12 17.9697 12C19.4397 12 20.7897 12.53 21.8297 13.41" fill="#292D32"/>
</svg>
