<svg width="24" height="24" viewBox="0 0 24 24" fill="none" xmlns="http://www.w3.org/2000/svg">
<path d="M16.42 7.95012C18.86 10.3901 18.86 14.3501 16.42 16.7901C13.98 19.2301 10.02 19.2301 7.58 16.7901C5.14 14.3501 5.14 10.3901 7.58 7.95012C10.02 5.51012 13.98 5.51012 16.42 7.95012Z" fill="#292D32"/>
<path d="M8.25003 22.3899C8.16003 22.3899 8.06003 22.3699 7.97003 22.3399C5.72003 21.4399 3.90003 19.8499 2.68003 17.7499C1.50003 15.6999 1.03003 13.3799 1.34003 11.0199C1.39003 10.6099 1.78003 10.3199 2.18003 10.3699C2.59003 10.4199 2.88003 10.7999 2.83003 11.2099C2.57003 13.2399 2.97003 15.2399 3.98003 16.9999C5.02003 18.7999 6.59003 20.1699 8.52003 20.9399C8.90003 21.0999 9.09003 21.5299 8.94003 21.9199C8.83003 22.2099 8.54003 22.3899 8.25003 22.3899Z" fill="#292D32"/>
<path d="M5.84962 5.22986C5.62962 5.22986 5.40962 5.12986 5.25962 4.93986C4.99962 4.61986 5.05962 4.14986 5.38962 3.88986C7.28962 2.39986 9.57962 1.60986 11.9996 1.60986C14.3596 1.60986 16.6096 2.36986 18.4996 3.80986C18.8296 4.05986 18.8896 4.52986 18.6396 4.85986C18.3896 5.18986 17.9196 5.24986 17.5896 4.99986C15.9596 3.75986 14.0296 3.10986 11.9996 3.10986C9.91962 3.10986 7.94962 3.78986 6.30962 5.06986C6.16962 5.17986 6.00962 5.22986 5.84962 5.22986Z" fill="#292D32"/>
<path d="M15.7497 22.3901C15.4497 22.3901 15.1697 22.2101 15.0497 21.9201C14.8997 21.5401 15.0797 21.1001 15.4697 20.9401C17.3997 20.1601 18.9697 18.8001 20.0097 17.0001C21.0297 15.2401 21.4297 13.2401 21.1597 11.2201C21.1097 10.8101 21.3997 10.4301 21.8097 10.3801C22.2097 10.3301 22.5997 10.6201 22.6497 11.0301C22.9497 13.3801 22.4897 15.7101 21.3097 17.7601C20.0997 19.8601 18.2697 21.4401 16.0197 22.3501C15.9397 22.3701 15.8497 22.3901 15.7497 22.3901Z" fill="#292D32"/>
</svg>
