<svg width="24" height="24" viewBox="0 0 24 24" fill="none" xmlns="http://www.w3.org/2000/svg">
<path d="M11.2497 3.9001V12.9201C11.2497 13.2501 11.0897 13.5501 10.8197 13.7401L3.60969 18.7901C3.01969 19.2001 2.17969 18.8801 2.04969 18.1701C1.89969 17.3101 2.09969 16.3001 2.69969 15.2101L5.81969 9.6001L8.75969 4.3101C8.98969 3.9001 9.23969 3.5401 9.49969 3.2301C10.0997 2.5301 11.2497 2.9801 11.2497 3.9001Z" fill="#292D32"/>
<path d="M20.39 18.7901L13.18 13.7401C12.91 13.5501 12.75 13.2501 12.75 12.9201V3.9001C12.75 2.9801 13.9 2.5301 14.5 3.2301C14.76 3.5401 15.01 3.9001 15.24 4.3101L18.18 9.6001L21.3 15.2101C21.9 16.3001 22.1 17.3101 21.95 18.1701C21.82 18.8801 20.98 19.2001 20.39 18.7901Z" fill="#292D32"/>
<path d="M5.26018 19.14L11.4102 15.04C11.7402 14.82 12.2802 14.82 12.6102 15.04L18.7602 19.14C20.3902 20.23 20.1202 21.12 18.1602 21.12H5.85018C3.90018 21.11 3.63018 20.22 5.26018 19.14Z" fill="#292D32"/>
</svg>
