<svg width="24" height="24" viewBox="0 0 24 24" fill="none" xmlns="http://www.w3.org/2000/svg">
<path d="M12.3806 16.9201H10.0906C9.68062 16.9201 9.34062 16.5801 9.34062 16.1701C9.34062 15.7601 9.68062 15.4201 10.0906 15.4201H12.3806C12.8106 15.4201 13.1606 15.0701 13.1606 14.6401C13.1606 14.2101 12.8106 13.8601 12.3806 13.8601H10.0906C9.85062 13.8601 9.62062 13.7401 9.48062 13.5501C9.34062 13.3601 9.30062 13.1001 9.38062 12.8701L10.1406 10.5801C10.2406 10.2701 10.5306 10.0701 10.8506 10.0701H13.9106C14.3206 10.0701 14.6606 10.4101 14.6606 10.8201C14.6606 11.2301 14.3206 11.5701 13.9106 11.5701H11.3906L11.1306 12.3601H12.3806C13.6406 12.3601 14.6606 13.3801 14.6606 14.6401C14.6606 15.9001 13.6406 16.9201 12.3806 16.9201Z" fill="#292D32"/>
<path d="M11.9996 3.47994C11.9196 3.47994 11.8396 3.48994 11.7596 3.48994L12.5796 2.46994C12.8396 2.14994 12.7896 1.66994 12.4596 1.41994C12.1296 1.16994 11.6696 1.20994 11.4096 1.53994L9.43961 3.99994C9.42961 4.00994 9.42961 4.01994 9.41961 4.03994C9.38961 4.07994 9.36961 4.12994 9.34961 4.16994C9.32961 4.21994 9.30961 4.25994 9.29961 4.29994C9.28961 4.34994 9.28961 4.38994 9.28961 4.43994C9.28961 4.48994 9.28961 4.53994 9.28961 4.58994C9.28961 4.60994 9.28961 4.61994 9.28961 4.63994C9.29961 4.66994 9.31961 4.68994 9.32961 4.71994C9.34961 4.76994 9.36961 4.80994 9.38961 4.85994C9.41961 4.89994 9.44961 4.93994 9.48961 4.96994C9.50961 4.99994 9.51961 5.02994 9.54961 5.04994C9.56961 5.05994 9.57961 5.06994 9.59961 5.07994C9.62961 5.09994 9.64961 5.10994 9.67961 5.11994C9.72961 5.14994 9.78961 5.16994 9.84961 5.17994C9.87961 5.19994 9.90961 5.19994 9.93961 5.19994C9.96961 5.19994 9.98961 5.20994 10.0196 5.20994C10.0496 5.20994 10.0696 5.19994 10.0896 5.18994C10.1196 5.18994 10.1496 5.19994 10.1796 5.18994C10.8196 5.03994 11.4196 4.96994 11.9896 4.96994C16.4796 4.96994 20.1296 8.61994 20.1296 13.1099C20.1296 17.5999 16.4796 21.2499 11.9896 21.2499C7.49961 21.2499 3.84961 17.5999 3.84961 13.1099C3.84961 11.3699 4.41961 9.68994 5.49961 8.24994C5.74961 7.91994 5.67961 7.44994 5.34961 7.19994C5.01961 6.94994 4.54961 7.01994 4.29961 7.34994C3.01961 9.04994 2.34961 11.0399 2.34961 13.1099C2.34961 18.4199 6.66961 22.7499 11.9896 22.7499C17.3096 22.7499 21.6296 18.4299 21.6296 13.1099C21.6296 7.78994 17.3096 3.47994 11.9996 3.47994Z" fill="#292D32"/>
</svg>
