<svg width="24" height="24" viewBox="0 0 24 24" fill="none" xmlns="http://www.w3.org/2000/svg">
<path d="M9.53955 16.6701C9.12955 16.6701 8.78955 16.3301 8.78955 15.9201V12.5301L8.59955 12.7501C8.31955 13.0601 7.84955 13.0801 7.53955 12.8101C7.22955 12.5301 7.20955 12.0601 7.47955 11.7501L8.97955 10.0801C9.18955 9.85008 9.51955 9.77008 9.80955 9.88008C10.0996 9.99008 10.2896 10.2701 10.2896 10.5801V15.9301C10.2896 16.3401 9.95955 16.6701 9.53955 16.6701Z" fill="#292D32"/>
<path d="M11.9991 3.47998C11.9191 3.47998 11.8391 3.48998 11.7591 3.48998L12.5791 2.46998C12.8391 2.14998 12.7891 1.66998 12.4591 1.41998C12.1391 1.15998 11.6691 1.20998 11.4091 1.53998L9.43914 3.99998C9.42914 4.00998 9.42914 4.01998 9.41914 4.03998C9.38914 4.07998 9.36914 4.12998 9.34914 4.16998C9.32914 4.21998 9.30914 4.25998 9.29914 4.29998C9.28914 4.34998 9.28914 4.38998 9.28914 4.43998C9.28914 4.48998 9.28914 4.53998 9.28914 4.58998C9.28914 4.60998 9.28914 4.61998 9.28914 4.63998C9.29914 4.66998 9.31914 4.68998 9.32914 4.72998C9.34914 4.77998 9.35914 4.81998 9.38914 4.85998C9.41914 4.89998 9.44914 4.93998 9.48914 4.97998C9.50914 4.99998 9.52914 5.02998 9.54914 5.04998C9.55914 5.05998 9.57914 5.05998 9.58914 5.06998C9.61914 5.08998 9.64914 5.10998 9.68914 5.11998C9.73914 5.14998 9.78914 5.16998 9.83914 5.17998C9.87914 5.19998 9.90914 5.19998 9.94914 5.19998C9.97914 5.19998 9.99914 5.20998 10.0291 5.20998C10.0491 5.20998 10.0791 5.19998 10.0991 5.18998C10.1291 5.18998 10.1591 5.18998 10.1991 5.18998C10.8391 5.03998 11.4391 4.96998 12.0091 4.96998C16.4991 4.96998 20.1491 8.61998 20.1491 13.11C20.1491 17.6 16.4991 21.25 12.0091 21.25C7.51914 21.25 3.86914 17.6 3.86914 13.11C3.86914 11.37 4.43914 9.68998 5.51914 8.24998C5.76914 7.91998 5.69914 7.44998 5.36914 7.19998C5.03914 6.94998 4.56914 7.01998 4.31914 7.34998C3.03914 9.04998 2.36914 11.04 2.36914 13.11C2.36914 18.42 6.68914 22.75 12.0091 22.75C17.3291 22.75 21.6491 18.43 21.6491 13.11C21.6491 7.78998 17.3091 3.47998 11.9991 3.47998Z" fill="#292D32"/>
<path d="M14 16.6701C12.48 16.6701 11.25 15.4401 11.25 13.9201V12.5701C11.25 11.0501 12.48 9.82007 14 9.82007C15.52 9.82007 16.75 11.0501 16.75 12.5701V13.9201C16.75 15.4401 15.52 16.6701 14 16.6701ZM14 11.3301C13.31 11.3301 12.75 11.8901 12.75 12.5801V13.9301C12.75 14.6201 13.31 15.1801 14 15.1801C14.69 15.1801 15.25 14.6201 15.25 13.9301V12.5801C15.25 11.8901 14.69 11.3301 14 11.3301Z" fill="#292D32"/>
</svg>
