<svg width="24" height="24" viewBox="0 0 24 24" fill="none" xmlns="http://www.w3.org/2000/svg">
<path d="M21.7709 2.22988C21.4709 1.92988 20.9809 1.92988 20.6809 2.22988L2.23086 20.6899C1.93086 20.9899 1.93086 21.4799 2.23086 21.7799C2.38086 21.9199 2.57086 21.9999 2.77086 21.9999C2.97086 21.9999 3.16086 21.9199 3.31086 21.7699L21.7709 3.30988C22.0809 3.00988 22.0809 2.52988 21.7709 2.22988Z" fill="#292D32"/>
<path d="M16.5502 5.11L15.8302 3.66C15.3702 2.75 14.1702 2 13.1502 2H10.8602C9.83017 2 8.63017 2.75 8.17017 3.66L7.45017 5.11C7.17017 5.65 6.61017 6 6.00017 6C3.83017 6 2.11017 7.83 2.25017 9.99L2.77017 18.25C2.82017 19.1 3.03017 19.89 3.48017 20.52L18.0002 6C17.3902 6 16.8302 5.65 16.5502 5.11ZM9.50017 10.75H6.50017C6.09017 10.75 5.75017 10.41 5.75017 10C5.75017 9.59 6.09017 9.25 6.50017 9.25H9.50017C9.91017 9.25 10.2502 9.59 10.2502 10C10.2502 10.41 9.91017 10.75 9.50017 10.75Z" fill="#292D32"/>
<path d="M21.7503 9.99006L21.2303 18.2501C21.1003 20.3101 20.0003 22.0001 17.2403 22.0001H7.41026C6.52026 22.0001 6.07026 20.9201 6.70026 20.2901L9.17026 17.8201C9.48026 17.5101 9.96026 17.4701 10.3503 17.6901C11.0403 18.0801 11.8703 18.2301 12.7503 18.0401C14.0203 17.7701 15.0503 16.7301 15.3003 15.4501C15.4703 14.5901 15.3203 13.7801 14.9403 13.1101C14.7203 12.7201 14.7503 12.2301 15.0703 11.9201L19.5703 7.42006C19.9803 7.01006 20.6703 7.06006 21.0203 7.53006C21.5403 8.21006 21.8103 9.07006 21.7503 9.99006Z" fill="#292D32"/>
</svg>
