<svg width="24" height="24" viewBox="0 0 24 24" fill="none" xmlns="http://www.w3.org/2000/svg">
<path d="M15.7194 9.69002C13.6694 7.63002 10.3294 7.63002 8.27937 9.69002C6.21938 11.75 6.21938 15.08 8.27937 17.13C10.3394 19.19 13.6694 19.19 15.7194 17.13C17.7794 15.07 17.7794 11.74 15.7194 9.69002ZM12.5294 13.94L10.9394 15.53C10.7894 15.68 10.5994 15.75 10.4094 15.75C10.2194 15.75 10.0194 15.68 9.87938 15.53C9.58938 15.24 9.58938 14.76 9.87938 14.46L11.4694 12.87C11.7594 12.58 12.2394 12.58 12.5394 12.87C12.8294 13.17 12.8294 13.65 12.5294 13.94Z" fill="#292D32"/>
<path d="M19.6001 5.80997C19.3801 5.58997 19.1001 5.46997 18.7901 5.46997C18.4801 5.46997 18.2001 5.58997 17.9801 5.79997C17.5301 6.24997 17.5301 6.96997 17.9801 7.41997C18.2001 7.63997 18.4801 7.75997 18.7901 7.75997C19.1001 7.75997 19.3801 7.63997 19.6001 7.42997C19.8201 7.20997 19.9401 6.92997 19.9401 6.61997C19.9401 6.30997 19.8201 6.01997 19.6001 5.80997Z" fill="#292D32"/>
<path d="M6.02055 19.39C5.80055 19.17 5.52055 19.05 5.21055 19.05C4.90055 19.05 4.62055 19.17 4.40055 19.38C4.18055 19.6 4.06055 19.8801 4.06055 20.1901C4.06055 20.5001 4.18055 20.78 4.40055 21C4.62055 21.22 4.92055 21.33 5.21055 21.33C5.50055 21.33 5.80055 21.22 6.02055 20.99C6.46055 20.56 6.46055 19.83 6.02055 19.39Z" fill="#292D32"/>
<path d="M22.4106 12.6C22.2006 12.38 21.9106 12.27 21.6006 12.26C21.2906 12.26 21.0106 12.38 20.7906 12.6C20.3406 13.05 20.3406 13.77 20.7906 14.22C21.0106 14.44 21.3106 14.55 21.6006 14.55C21.8906 14.55 22.1906 14.44 22.4106 14.22C22.8606 13.77 22.8606 13.04 22.4106 12.6Z" fill="#292D32"/>
<path d="M3.20945 12.6001C2.76945 12.1601 2.03945 12.1501 1.58945 12.6001C1.13945 13.0501 1.13945 13.7701 1.58945 14.2201C1.80945 14.4401 2.10945 14.5501 2.39945 14.5501C2.68945 14.5501 2.98945 14.4401 3.20945 14.2201C3.64945 13.7701 3.64945 13.0401 3.20945 12.6001Z" fill="#292D32"/>
<path d="M19.6001 19.39C19.1501 18.94 18.4301 18.94 17.9801 19.39C17.5301 19.84 17.5301 20.56 17.9801 21.01C18.2001 21.23 18.5001 21.34 18.7901 21.34C19.0801 21.34 19.3801 21.23 19.6001 21.01C19.8201 20.79 19.9401 20.5 19.9401 20.2C19.9401 19.89 19.8201 19.6 19.6001 19.39Z" fill="#292D32"/>
<path d="M6.02055 5.80997C5.80055 5.58997 5.52055 5.46997 5.21055 5.46997C4.90055 5.46997 4.62055 5.58997 4.40055 5.79997C4.18055 6.01997 4.06055 6.29997 4.06055 6.60997C4.06055 6.91997 4.18055 7.20997 4.40055 7.41997C4.62055 7.63997 4.90055 7.75997 5.21055 7.75997C5.52055 7.75997 5.80055 7.63997 6.02055 7.42997C6.46055 6.97997 6.46055 6.24997 6.02055 5.80997Z" fill="#292D32"/>
<path d="M12.8096 3.0001C12.8096 2.9901 12.8096 2.9901 12.8096 3.0001C12.3596 2.5501 11.6396 2.5501 11.1896 3.0001C10.9696 3.2201 10.8496 3.5101 10.8496 3.8101C10.8496 4.1201 10.9696 4.4001 11.1796 4.6201C11.3996 4.8401 11.6796 4.9601 11.9896 4.9601C12.2996 4.9601 12.5796 4.8401 12.7996 4.6201C13.2596 4.1701 13.2596 3.4401 12.8096 3.0001Z" fill="#292D32"/>
</svg>
