<svg width="24" height="24" viewBox="0 0 24 24" fill="none" xmlns="http://www.w3.org/2000/svg">
<path d="M14.4294 16.9201H12.1394C11.7294 16.9201 11.3894 16.5801 11.3894 16.1701C11.3894 15.7601 11.7294 15.4201 12.1394 15.4201H14.4294C14.8594 15.4201 15.2094 15.0701 15.2094 14.6401C15.2094 14.2101 14.8594 13.8601 14.4294 13.8601H12.1394C11.8994 13.8601 11.6694 13.7401 11.5294 13.5501C11.3894 13.3601 11.3494 13.1001 11.4294 12.8701L12.1894 10.5801C12.2894 10.2701 12.5794 10.0701 12.8994 10.0701H15.9594C16.3694 10.0701 16.7094 10.4101 16.7094 10.8201C16.7094 11.2301 16.3694 11.5701 15.9594 11.5701H13.4394L13.1794 12.3601H14.4294C15.6894 12.3601 16.7094 13.3801 16.7094 14.6401C16.7094 15.9001 15.6794 16.9201 14.4294 16.9201Z" fill="#292D32"/>
<path d="M9.54041 16.9201C9.13041 16.9201 8.79041 16.5801 8.79041 16.1701V12.7801L8.60041 13.0001C8.32041 13.3101 7.85041 13.3301 7.54041 13.0601C7.24041 12.7801 7.21041 12.3101 7.49041 12.0001L8.99041 10.3301C9.20041 10.1001 9.53041 10.0201 9.82041 10.1301C10.1104 10.2401 10.3004 10.5201 10.3004 10.8301V16.1801C10.2904 16.5901 9.96041 16.9201 9.54041 16.9201Z" fill="#292D32"/>
<path d="M19.6896 7.35002C19.4396 7.02002 18.9696 6.95002 18.6396 7.20002C18.3096 7.45002 18.2396 7.92002 18.4896 8.25002C19.5696 9.69002 20.1396 11.37 20.1396 13.11C20.1396 17.6 16.4896 21.25 11.9996 21.25C7.50961 21.25 3.85961 17.6 3.85961 13.11C3.85961 8.62002 7.50961 4.98002 11.9996 4.98002C12.5796 4.98002 13.1696 5.05002 13.8096 5.20002C13.8396 5.21002 13.8696 5.20002 13.8996 5.20002C13.9296 5.20002 13.9496 5.22002 13.9696 5.22002C13.9996 5.22002 14.0196 5.21002 14.0496 5.21002C14.0796 5.21002 14.1096 5.20002 14.1496 5.19002C14.2096 5.18002 14.2596 5.15002 14.3096 5.13002C14.3396 5.11002 14.3696 5.10002 14.3996 5.08002C14.4096 5.07002 14.4296 5.07002 14.4396 5.06002C14.4696 5.04002 14.4796 5.01002 14.4996 4.99002C14.5396 4.95002 14.5696 4.92002 14.5996 4.87002C14.6296 4.83002 14.6396 4.78002 14.6596 4.73002C14.6696 4.70002 14.6896 4.67002 14.6996 4.64002C14.6996 4.62002 14.6996 4.61002 14.6996 4.59002C14.7096 4.54002 14.7096 4.49002 14.6996 4.44002C14.6996 4.39002 14.6996 4.35002 14.6896 4.30002C14.6796 4.26002 14.6596 4.22002 14.6396 4.17002C14.6196 4.12002 14.5996 4.07002 14.5696 4.03002C14.5696 4.02002 14.5696 4.01002 14.5596 4.00002L12.5796 1.53002C12.3196 1.21002 11.8496 1.15002 11.5296 1.41002C11.2096 1.67002 11.1596 2.14002 11.4096 2.46002L12.2296 3.48002C12.1496 3.48002 12.0696 3.47002 11.9896 3.47002C6.67961 3.47002 2.34961 7.79002 2.34961 13.11C2.34961 18.43 6.66961 22.75 11.9896 22.75C17.3096 22.75 21.6296 18.43 21.6296 13.11C21.6396 11.04 20.9596 9.05002 19.6896 7.35002Z" fill="#292D32"/>
</svg>
