<svg width="24" height="24" viewBox="0 0 24 24" fill="none" xmlns="http://www.w3.org/2000/svg">
<path d="M19.4791 7.09003C19.2191 6.77003 18.7491 6.72003 18.4291 6.98003C18.1091 7.24003 18.0591 7.71003 18.3191 8.03003C19.4491 9.43003 20.0791 11.09 20.1391 12.83C20.2991 17.31 16.7791 21.09 12.2891 21.24C7.79906 21.4 4.02906 17.88 3.86906 13.4C3.70906 8.92003 7.22906 5.14003 11.7191 4.99003C12.2891 4.97003 12.8891 5.02003 13.5391 5.15003C13.5791 5.16003 13.6191 5.15003 13.6591 5.15003C13.7591 5.20003 13.8791 5.23003 13.9891 5.23003C14.1591 5.23003 14.3191 5.18003 14.4591 5.06003C14.7791 4.80003 14.8291 4.33003 14.5791 4.01003L12.5991 1.54003C12.3391 1.22003 11.8691 1.16003 11.5491 1.42003C11.2291 1.68003 11.1791 2.15003 11.4291 2.47003L12.2591 3.50003C12.0691 3.49003 11.8691 3.48003 11.6791 3.49003C6.36906 3.67003 2.19906 8.15003 2.38906 13.46C2.57906 18.77 7.04906 22.94 12.3591 22.75C17.6691 22.56 21.8391 18.09 21.6491 12.78C21.5591 10.71 20.8191 8.74003 19.4791 7.09003Z" fill="#292D32"/>
<path d="M12.3806 16.9201H10.0906C9.68062 16.9201 9.34062 16.5801 9.34062 16.1701C9.34062 15.7601 9.68062 15.4201 10.0906 15.4201H12.3806C12.8106 15.4201 13.1606 15.0701 13.1606 14.6401C13.1606 14.2101 12.8106 13.8601 12.3806 13.8601H10.0906C9.85062 13.8601 9.62062 13.7401 9.48062 13.5501C9.34062 13.3601 9.30062 13.1001 9.38062 12.8701L10.1406 10.5801C10.2406 10.2701 10.5306 10.0701 10.8506 10.0701H13.9106C14.3206 10.0701 14.6606 10.4101 14.6606 10.8201C14.6606 11.2301 14.3206 11.5701 13.9106 11.5701H11.3906L11.1306 12.3601H12.3806C13.6406 12.3601 14.6606 13.3801 14.6606 14.6401C14.6606 15.9001 13.6406 16.9201 12.3806 16.9201Z" fill="#292D32"/>
</svg>
