<svg width="24" height="24" viewBox="0 0 24 24" fill="none" xmlns="http://www.w3.org/2000/svg">
<path d="M21.7709 2.22988C21.4709 1.92988 20.9809 1.92988 20.6809 2.22988L2.23086 20.6899C1.93086 20.9899 1.93086 21.4799 2.23086 21.7799C2.38086 21.9199 2.57086 21.9999 2.77086 21.9999C2.97086 21.9999 3.16086 21.9199 3.31086 21.7699L21.7709 3.30988C22.0809 3.00988 22.0809 2.52988 21.7709 2.22988Z" fill="#292D32"/>
<path d="M8.99914 10.3801C10.3136 10.3801 11.3791 9.31456 11.3791 8.00012C11.3791 6.68568 10.3136 5.62012 8.99914 5.62012C7.6847 5.62012 6.61914 6.68568 6.61914 8.00012C6.61914 9.31456 7.6847 10.3801 8.99914 10.3801Z" fill="#292D32"/>
<path d="M21.6104 5.38989L20.3904 6.60989C20.4704 6.97989 20.5004 7.37989 20.5004 7.80989V12.6099L20.3704 12.4999C19.5904 11.8299 18.3304 11.8299 17.5504 12.4999L13.3904 16.0699C12.6804 16.6799 11.5604 16.7399 10.7804 16.2199L5.40039 21.5999C5.44039 21.6199 5.48039 21.6299 5.52039 21.6399C5.79039 21.7299 6.06039 21.7999 6.35039 21.8599C6.45039 21.8799 6.55039 21.8999 6.66039 21.9099C7.03039 21.9599 7.41039 21.9999 7.81039 21.9999H16.1904C19.8304 21.9999 22.0004 19.8299 22.0004 16.1899V7.80989C22.0004 6.90989 21.8704 6.09989 21.6104 5.38989Z" fill="#292D32"/>
<path d="M21.6106 5.38989L20.3906 6.60989C20.4706 6.97989 20.5006 7.37989 20.5006 7.80989V12.6099L20.3706 12.4999C19.5906 11.8299 18.3306 11.8299 17.5506 12.4999L13.3906 16.0699C12.6806 16.6799 11.5606 16.7399 10.7806 16.2199L5.39062 21.6099C6.10062 21.8699 6.91063 21.9999 7.81063 21.9999H16.1906C19.8306 21.9999 22.0006 19.8299 22.0006 16.1899V7.80989C22.0006 6.90989 21.8706 6.09989 21.6106 5.38989Z" fill="#292D32"/>
<path d="M20.46 3.54L19.4 4.6C18.68 3.87 17.6 3.5 16.19 3.5H7.81C4.99 3.5 3.5 4.99 3.5 7.81V16.19C3.5 16.95 3.63 17.6 3.85 18.16L7.59 15.65C7.93 15.42 8.32 15.3 8.71 15.29L3.54 20.46C3.14 20.06 2.81 19.58 2.56 19.03C2.19 18.23 2 17.28 2 16.19V7.81C2 4.17 4.17 2 7.81 2H16.19C18.01 2 19.46 2.54 20.46 3.54Z" fill="#292D32"/>
</svg>
