<svg width="24" height="24" viewBox="0 0 24 24" fill="none" xmlns="http://www.w3.org/2000/svg">
<path d="M21.6895 2.71C21.6095 2.53 21.4695 2.38 21.2795 2.3C21.1895 2.27 21.0995 2.25 20.9995 2.25H16.9995C16.5895 2.25 16.2495 2.59 16.2495 3C16.2495 3.41 16.5895 3.75 16.9995 3.75H19.1895L14.4695 8.47C14.1795 8.76 14.1795 9.24 14.4695 9.53C14.6195 9.68 14.8095 9.75 14.9995 9.75C15.1895 9.75 15.3795 9.68 15.5295 9.53L20.2495 4.81V7C20.2495 7.41 20.5895 7.75 20.9995 7.75C21.4095 7.75 21.7495 7.41 21.7495 7V3C21.7495 2.9 21.7295 2.81 21.6895 2.71Z" fill="#292D32"/>
<path d="M8.47 14.4699L3.75 19.1899V16.9999C3.75 16.5899 3.41 16.2499 3 16.2499C2.59 16.2499 2.25 16.5899 2.25 16.9999V20.9999C2.25 21.0999 2.27 21.1899 2.31 21.2899C2.39 21.4699 2.53 21.6199 2.72 21.6999C2.8 21.7299 2.9 21.7499 3 21.7499H7C7.41 21.7499 7.75 21.4099 7.75 20.9999C7.75 20.5899 7.41 20.2499 7 20.2499H4.81L9.53 15.5299C9.82 15.2399 9.82 14.7599 9.53 14.4699C9.24 14.1799 8.76 14.1799 8.47 14.4699Z" fill="#292D32"/>
<path d="M2.2 14.75C1.85 14.75 1.54 14.5 1.47 14.15C1.33 13.45 1.25 12.72 1.25 12C1.25 6.07 6.07 1.25 12 1.25C12.73 1.25 13.46 1.32 14.17 1.47C14.58 1.55 14.84 1.95 14.76 2.35C14.68 2.76 14.27 3.01 13.88 2.94C13.25 2.81 12.63 2.75 12 2.75C6.9 2.75 2.75 6.9 2.75 12C2.75 12.62 2.81 13.25 2.94 13.85C3.02 14.26 2.76 14.65 2.35 14.73C2.3 14.75 2.25 14.75 2.2 14.75Z" fill="#292D32"/>
<path d="M11.9991 22.7501C11.2691 22.7501 10.5391 22.6801 9.82905 22.5301C9.41905 22.4501 9.15905 22.0501 9.23905 21.6501C9.31905 21.2401 9.72905 20.9901 10.1191 21.0601C10.7291 21.1801 11.3591 21.2501 11.9891 21.2501C17.0891 21.2501 21.2391 17.1001 21.2391 12.0001C21.2391 11.3801 21.1791 10.7601 21.0591 10.1501C20.9791 9.74006 21.2391 9.35006 21.6491 9.27006C22.0591 9.19006 22.4491 9.45006 22.5291 9.86006C22.6691 10.5601 22.7391 11.2801 22.7391 12.0001C22.7491 17.9301 17.9291 22.7501 11.9991 22.7501Z" fill="#292D32"/>
</svg>
