<svg width="24" height="24" viewBox="0 0 24 24" fill="none" xmlns="http://www.w3.org/2000/svg">
<path opacity="0.4" d="M20.7098 17.52C20.3398 18.74 19.6098 19.68 18.5698 20.26C18.5298 20.1 18.5098 19.93 18.5098 19.76C18.5098 18.54 19.4998 17.54 20.7098 17.52Z" fill="#292D32"/>
<path d="M21 7.52V9.48397C21 10.0065 20.586 10.4294 20.08 10.56L17.13 11.38C15.57 11.78 14.53 13.13 14.53 14.74V16.2849C14.53 16.7595 14.1873 17.1556 13.7612 17.3644C12.7457 17.8619 11.9698 18.8714 11.677 20.0107C11.5395 20.5456 11.1023 21 10.55 21H7.52C4.07 21 2 18.94 2 15.48V7.52C2 4.06 4.07 2 7.52 2H15.48C18.93 2 21 4.06 21 7.52Z" fill="#292D32"/>
<path d="M22.3091 12.25C22.0491 12.06 21.6291 11.86 20.9991 11.92C20.8391 11.93 20.6691 11.96 20.4791 12.01L17.4991 12.83C16.6091 13.06 16.0291 13.81 16.0291 14.74V18.65C15.7991 18.57 15.5491 18.52 15.2891 18.52C14.0491 18.52 13.0391 19.52 13.0391 20.76C13.0391 20.84 13.0391 20.92 13.0491 21C13.1691 22.12 14.1291 23 15.2891 23C16.5091 23 17.4991 22.01 17.5191 20.8C17.5191 20.78 17.5291 20.77 17.5291 20.76V17.07L20.9791 16.12L21.4991 15.98V17.66C21.2691 17.58 21.0191 17.52 20.7491 17.52H20.7091C19.4991 17.54 18.5091 18.54 18.5091 19.76C18.5091 19.93 18.5291 20.1 18.5691 20.26C18.7991 21.26 19.6891 22.01 20.7491 22.01C21.9791 22.01 22.9691 21.02 22.9891 19.8C22.9891 19.79 22.9991 19.78 22.9991 19.76V13.93C22.9991 13.17 22.7691 12.61 22.3091 12.25ZM15.2891 21.5C14.9591 21.5 14.6791 21.29 14.5891 21C14.5491 20.93 14.5391 20.84 14.5391 20.76C14.5391 20.35 14.8791 20.02 15.2891 20.02C15.6891 20.02 16.0291 20.35 16.0291 20.76C16.0291 20.84 16.0191 20.91 15.9891 20.98C15.8991 21.28 15.6191 21.5 15.2891 21.5ZM20.7491 20.51C20.3491 20.51 20.0091 20.17 20.0091 19.76C20.0091 19.36 20.3491 19.02 20.7491 19.02C21.1591 19.02 21.4991 19.36 21.4991 19.76C21.4991 20.17 21.1591 20.51 20.7491 20.51Z" fill="#292D32"/>
</svg>
