<svg width="24" height="24" viewBox="0 0 24 24" fill="none" xmlns="http://www.w3.org/2000/svg">
<path d="M21.7207 6.28001V7.45001C21.7207 8.43001 21.3307 9.27001 20.6407 9.76001C20.2107 10.08 19.6807 10.23 19.1307 10.23C18.7907 10.23 18.4507 10.18 18.1007 10.06L12.7207 8.27001V18C12.7207 20.62 10.5907 22.75 7.9707 22.75C5.3507 22.75 3.2207 20.62 3.2207 18C3.2207 15.38 5.3507 13.25 7.9707 13.25C9.2307 13.25 10.3707 13.75 11.2207 14.55V4.00001C11.2207 3.03001 11.6207 2.19001 12.3107 1.69001C13.0007 1.20001 13.9207 1.09001 14.8407 1.39001L19.2607 2.87001C20.6207 3.32001 21.7207 4.85001 21.7207 6.28001Z" fill="#292D32"/>
</svg>
