<svg width="24" height="24" viewBox="0 0 24 24" fill="none" xmlns="http://www.w3.org/2000/svg">
<path d="M20.8894 5.18007V16.4801C20.8894 18.4601 19.2794 20.0701 17.2994 20.0701C15.3294 20.0701 13.7094 18.4601 13.7094 16.4801C13.7094 14.5101 15.3294 12.9001 17.2994 12.9001C18.1394 12.9001 18.8894 13.1901 19.4994 13.6701V7.72007L10.2894 10.3401V18.4101C10.2894 20.3901 8.66937 22.0001 6.69937 22.0001C4.71937 22.0001 3.10938 20.3901 3.10938 18.4101C3.10938 16.4401 4.71937 14.8301 6.69937 14.8301C7.52937 14.8301 8.27938 15.1201 8.88938 15.5901V6.75007C8.88938 5.28007 9.77937 4.14007 11.1894 3.76007L16.9694 2.18007C18.1394 1.86007 19.1294 1.97007 19.8294 2.51007C20.5394 3.04007 20.8894 3.94007 20.8894 5.18007Z" fill="#292D32"/>
</svg>
