<svg width="24" height="24" viewBox="0 0 24 24" fill="none" xmlns="http://www.w3.org/2000/svg">
<path d="M21.6209 12.1L21.0009 11.89L19.3309 11.34C18.7509 11.15 18.1609 11.22 17.7109 11.54C17.2709 11.87 17.0109 12.4 17.0109 13.02V17.81C16.6109 17.59 16.1609 17.45 15.6709 17.45C14.1309 17.45 12.8809 18.71 12.8809 20.25C12.8809 20.51 12.9209 20.76 12.9809 21C13.3109 22.19 14.3909 23.05 15.6709 23.05C17.2009 23.05 18.4409 21.83 18.4709 20.31V15.7C18.4909 15.7 18.5009 15.71 18.5209 15.72L20.8009 16.48C20.8409 16.49 20.8909 16.51 20.9309 16.51C21.1109 16.56 21.2709 16.58 21.4409 16.58C21.8009 16.58 22.1409 16.48 22.4209 16.27C22.8709 15.95 23.1209 15.42 23.1209 14.8V14.2C23.1209 13.29 22.4809 12.39 21.6209 12.1ZM15.6709 21.59C15.2109 21.59 14.8109 21.36 14.5709 21C14.4209 20.79 14.3409 20.53 14.3409 20.25C14.3409 19.52 14.9409 18.92 15.6709 18.92C16.4109 18.92 17.0109 19.52 17.0109 20.25C17.0109 20.48 16.9509 20.69 16.8509 20.87C16.6309 21.3 16.1809 21.59 15.6709 21.59Z" fill="#292D32"/>
<path d="M23.1209 14.2V14.8C23.1209 15.42 22.8709 15.95 22.4209 16.27C22.1409 16.48 21.8009 16.58 21.4409 16.58C21.2709 16.58 21.1109 16.56 20.9309 16.51C20.8909 16.51 20.8409 16.49 20.8009 16.48L18.5209 15.72C18.5009 15.71 18.4909 15.7 18.4709 15.7V20.31C18.4409 21.83 17.2009 23.05 15.6709 23.05C14.3909 23.05 13.3109 22.19 12.9809 21C12.9209 20.76 12.8809 20.51 12.8809 20.25C12.8809 18.71 14.1309 17.45 15.6709 17.45C16.1609 17.45 16.6109 17.59 17.0109 17.81V13.02C17.0109 12.4 17.2709 11.87 17.7109 11.54C18.1609 11.22 18.7509 11.15 19.3309 11.34L21.0009 11.89L21.6209 12.1C22.4809 12.39 23.1209 13.29 23.1209 14.2Z" fill="#292D32"/>
<path d="M21 7.52V9.62C21 9.96 20.67 10.2 20.34 10.09L19.8 9.91C18.75 9.58 17.68 9.72 16.81 10.34C15.98 10.96 15.51 11.94 15.51 13.02V15.47C15.51 15.74 15.3 15.96 15.03 16C12.97 16.31 11.38 18.1 11.38 20.25C11.38 20.3 11.38 20.35 11.38 20.4C11.39 20.71 11.16 21 10.84 21H7.52C4.07 21 2 18.94 2 15.48V7.52C2 4.06 4.07 2 7.52 2H15.48C18.93 2 21 4.06 21 7.52Z" fill="#292D32"/>
</svg>
