<svg width="24" height="24" viewBox="0 0 24 24" fill="none" xmlns="http://www.w3.org/2000/svg">
<path d="M11.9707 2C6.4507 2 1.9707 6.48 1.9707 12C1.9707 17.52 6.4507 22 11.9707 22C17.4907 22 21.9707 17.52 21.9707 12C21.9707 6.48 17.5007 2 11.9707 2ZM10.7207 15.03C10.7207 15.51 10.5207 15.7 10.0107 15.7H8.7107C8.2007 15.7 8.0007 15.51 8.0007 15.03V8.97C8.0007 8.49 8.2007 8.3 8.7107 8.3H10.0007C10.5107 8.3 10.7107 8.49 10.7107 8.97V15.03H10.7207ZM16.0007 15.03C16.0007 15.51 15.8007 15.7 15.2907 15.7H14.0007C13.4907 15.7 13.2907 15.51 13.2907 15.03V8.97C13.2907 8.49 13.4907 8.3 14.0007 8.3H15.2907C15.8007 8.3 16.0007 8.49 16.0007 8.97V15.03Z" fill="#292D32"/>
</svg>
