<svg width="24" height="24" viewBox="0 0 24 24" fill="none" xmlns="http://www.w3.org/2000/svg">
<path d="M19.0698 19.8201C18.8798 19.8201 18.6898 19.7501 18.5398 19.6001C18.2498 19.3101 18.2498 18.8301 18.5398 18.5401C22.1498 14.9301 22.1498 9.06012 18.5398 5.46012C18.2498 5.17012 18.2498 4.69012 18.5398 4.40012C18.8298 4.11012 19.3098 4.11012 19.5998 4.40012C23.7898 8.59012 23.7898 15.4101 19.5998 19.6001C19.4498 19.7501 19.2598 19.8201 19.0698 19.8201Z" fill="#292D32"/>
<path d="M4.93031 19.8201C4.74031 19.8201 4.55031 19.7501 4.40031 19.6001C0.210312 15.4101 0.210312 8.59012 4.40031 4.40012C4.69031 4.11012 5.17031 4.11012 5.46031 4.40012C5.75031 4.69012 5.75031 5.17012 5.46031 5.46012C1.85031 9.07012 1.85031 14.9401 5.46031 18.5401C5.75031 18.8301 5.75031 19.3101 5.46031 19.6001C5.31031 19.7501 5.12031 19.8201 4.93031 19.8201Z" fill="#292D32"/>
<path d="M12.0007 22.71C10.7507 22.7 9.56074 22.5 8.45074 22.11C8.06074 21.97 7.85074 21.54 7.99074 21.15C8.13074 20.76 8.55074 20.55 8.95074 20.69C9.91074 21.02 10.9307 21.2 12.0107 21.2C13.0807 21.2 14.1107 21.02 15.0607 20.69C15.4507 20.56 15.8807 20.76 16.0207 21.15C16.1607 21.54 15.9507 21.97 15.5607 22.11C14.4407 22.5 13.2507 22.71 12.0007 22.71Z" fill="#292D32"/>
<path d="M15.3007 3.34004C15.2207 3.34004 15.1307 3.33004 15.0507 3.30004C14.1007 2.96004 13.0707 2.79004 12.0007 2.79004C10.9307 2.79004 9.91074 2.97004 8.95074 3.30004C8.55074 3.43004 8.13074 3.23004 7.99074 2.84004C7.85074 2.45004 8.06074 2.02004 8.45074 1.88004C9.57074 1.49004 10.7607 1.29004 12.0007 1.29004C13.2407 1.29004 14.4407 1.49004 15.5507 1.88004C15.9407 2.02004 16.1507 2.45004 16.0107 2.84004C15.9007 3.15004 15.6107 3.34004 15.3007 3.34004Z" fill="#292D32"/>
<path d="M8.74023 11.9999V10.3299C8.74023 8.2499 10.2102 7.3999 12.0102 8.4399L13.4602 9.2799L14.9102 10.1199C16.7102 11.1599 16.7102 12.8599 14.9102 13.8999L13.4602 14.7399L12.0102 15.5799C10.2102 16.6199 8.74023 15.7699 8.74023 13.6899V11.9999Z" fill="#292D32"/>
</svg>
