<svg width="24" height="24" viewBox="0 0 24 24" fill="none" xmlns="http://www.w3.org/2000/svg">
<path d="M19.6297 7.23991C19.9297 7.70991 19.7697 8.33991 19.2897 8.62991L18.6997 8.97991L5.58967 16.8399C5.10967 17.1299 4.47967 16.9699 4.19967 16.4799C3.19967 14.7399 2.74967 12.6199 3.13967 10.3999C3.79967 6.62991 6.89967 3.62991 10.6897 3.08991C14.4397 2.55991 17.8297 4.35991 19.6297 7.23991Z" fill="#292D32"/>
<path d="M20.8892 13.4301C20.2092 17.6801 16.4492 20.9301 12.1392 21.0001C10.2392 21.0301 8.47917 20.4801 7.01917 19.4901C6.39917 19.0801 6.41917 18.1601 7.05917 17.7801L19.4692 10.4901C20.1192 10.1101 20.9192 10.5501 20.9792 11.3001C21.0292 12.0001 20.9992 12.7101 20.8892 13.4301Z" fill="#292D32"/>
</svg>
