<svg width="24" height="24" viewBox="0 0 24 24" fill="none" xmlns="http://www.w3.org/2000/svg">
<path d="M11.25 7.86011H2V16.1901C2 16.2501 2 16.3101 2.01 16.3601H11.25V7.86011Z" fill="#292D32"/>
<path d="M7.68945 6.36H11.2495V2H7.71945V6.24C7.71945 6.28 7.69945 6.32 7.68945 6.36Z" fill="#292D32"/>
<path d="M6.22086 6.23991V2.15991C4.00086 2.61991 2.55086 4.09991 2.13086 6.35991H6.24086C6.23086 6.31991 6.22086 6.27991 6.22086 6.23991Z" fill="#292D32"/>
<path d="M16.22 2H12.75V6.36H16.22V2Z" fill="#292D32"/>
<path d="M17.7109 6.3599H21.8709C21.4509 4.0799 19.9809 2.5899 17.7209 2.1499V6.3299C17.7209 6.3399 17.7109 6.3499 17.7109 6.3599Z" fill="#292D32"/>
<path d="M17.7207 21.8501C19.9107 21.4201 21.3507 20.0201 21.8207 17.8601H17.7207V21.8501Z" fill="#292D32"/>
<path d="M16.22 17.8601H12.75V22.0001H16.22V17.8601Z" fill="#292D32"/>
<path d="M12.75 16.3601H21.99C22 16.3101 22 16.2501 22 16.1901V7.86011H12.75V16.3601Z" fill="#292D32"/>
<path d="M11.2507 17.8601H7.7207V22.0001H11.2507V17.8601Z" fill="#292D32"/>
<path d="M2.17969 17.8601C2.64969 20.0001 4.06969 21.4001 6.21969 21.8401V17.8601H2.17969Z" fill="#292D32"/>
</svg>
