<svg width="24" height="24" viewBox="0 0 24 24" fill="none" xmlns="http://www.w3.org/2000/svg">
<path d="M18.0003 16.7501C17.8403 16.7501 17.6903 16.7001 17.5503 16.6001C17.2203 16.3501 17.1503 15.8801 17.4003 15.5501C18.6603 13.8701 18.9303 11.6401 18.1203 9.71007C17.9603 9.33007 18.1403 8.89007 18.5203 8.73007C18.9003 8.57007 19.3403 8.75007 19.5003 9.13007C20.5203 11.5501 20.1703 14.3601 18.6003 16.4601C18.4503 16.6501 18.2303 16.7501 18.0003 16.7501Z" fill="#292D32"/>
<path d="M19.8304 19.25C19.6704 19.25 19.5204 19.2 19.3804 19.1C19.0504 18.85 18.9804 18.38 19.2304 18.05C21.3704 15.2 21.8404 11.38 20.4604 8.08995C20.3004 7.70995 20.4804 7.26995 20.8604 7.10995C21.2404 6.94996 21.6804 7.12996 21.8404 7.50996C23.4304 11.29 22.8904 15.67 20.4304 18.95C20.2904 19.15 20.0604 19.25 19.8304 19.25Z" fill="#292D32"/>
<path d="M14.0405 12.96C14.6705 12.33 15.7505 12.78 15.7505 13.67V16.6C15.7505 18.32 15.1305 19.61 14.0205 20.23C13.5705 20.48 13.0705 20.6 12.5505 20.6C11.7505 20.6 10.8905 20.33 10.0105 19.78L9.37047 19.38C8.83047 19.04 8.74047 18.28 9.19047 17.83L14.0405 12.96Z" fill="#292D32"/>
<path d="M21.77 2.22988C21.47 1.92988 20.98 1.92988 20.68 2.22988L15.73 7.17988C15.67 5.57988 15.07 4.37988 14.01 3.78988C12.89 3.16988 11.46 3.32988 10 4.23988L7.09 6.05988C6.89 6.17988 6.66 6.24988 6.43 6.24988H5.5H5C2.58 6.24988 1.25 7.57988 1.25 9.99988V13.9999C1.25 16.4199 2.58 17.7499 5 17.7499H5.16L2.22 20.6899C1.92 20.9899 1.92 21.4799 2.22 21.7799C2.38 21.9199 2.57 21.9999 2.77 21.9999C2.97 21.9999 3.16 21.9199 3.31 21.7699L21.77 3.30988C22.08 3.00988 22.08 2.52988 21.77 2.22988Z" fill="#292D32"/>
</svg>
