<svg width="24" height="24" viewBox="0 0 24 24" fill="none" xmlns="http://www.w3.org/2000/svg">
<path d="M8.26059 21.2448C8.90757 20.5978 9.27923 19.7719 9.37559 18.9184C9.50636 17.7828 9.12781 16.6058 8.26059 15.7386C7.74439 15.2224 7.11118 14.8783 6.44356 14.72C5.17026 14.3965 3.75931 14.7337 2.75444 15.7386C2.05928 16.4338 1.68074 17.3216 1.63256 18.237C1.59814 18.6294 1.63256 19.0354 1.7358 19.4277C1.8941 20.0954 2.23823 20.7286 2.75444 21.2448C4.27551 22.7659 6.73952 22.7659 8.26059 21.2448ZM6.96665 17.7759C7.36584 17.7759 7.69621 18.1063 7.69621 18.5055C7.68933 18.9115 7.36584 19.235 6.95976 19.2419L6.23708 19.235L6.24396 19.9302C6.23708 20.3363 5.91359 20.6597 5.50752 20.6666C5.10144 20.6597 4.77795 20.3363 4.77107 19.9302L4.77795 19.235L4.05527 19.2419C3.64919 19.235 3.3257 18.9115 3.31882 18.5055C3.3257 18.3059 3.40829 18.1269 3.53906 17.9961C3.66983 17.8654 3.84879 17.7828 4.04838 17.7759L4.77795 17.7759L4.77795 17.0188C4.77795 16.8123 4.86054 16.6334 4.99131 16.5026C5.12208 16.3718 5.30103 16.2892 5.50751 16.2892C5.90671 16.2892 6.23708 16.6196 6.23708 17.0188L6.23708 17.7759L6.96665 17.7759Z" fill="#292D32"/>
<path d="M15.0952 3.84548V7.54425H13.6352V3.84548C13.6352 3.58267 13.4016 3.45613 13.2458 3.45613C13.1972 3.45613 13.1485 3.46587 13.0998 3.48533L5.38108 6.39568C4.8652 6.59035 4.53426 7.07703 4.53426 7.63185V8.284C3.6485 8.94589 3.07422 10.0068 3.07422 11.2041V7.63185C3.07422 6.47355 3.78477 5.44179 4.8652 5.03298L12.5937 2.1129C12.8078 2.03503 13.0317 1.99609 13.2458 1.99609C14.2192 1.99609 15.0952 2.78452 15.0952 3.84548Z" fill="#292D32"/>
<path d="M21.571 14.1153V15.0887C21.571 15.3515 21.3666 15.5656 21.0941 15.5754H19.673C19.1571 15.5754 18.6899 15.1958 18.6509 14.6896C18.6217 14.3879 18.7385 14.1056 18.9332 13.9109C19.1084 13.726 19.3518 13.6287 19.6146 13.6287H21.0843C21.3666 13.6384 21.571 13.8525 21.571 14.1153Z" fill="#292D32"/>
<path d="M19.6019 12.6049H20.5947C21.1301 12.6049 21.5681 12.1669 21.5681 11.6316V11.2033C21.5681 9.18844 19.9231 7.54346 17.9082 7.54346H6.73405C5.9067 7.54346 5.14748 7.816 4.53426 8.28321C3.6485 8.9451 3.07422 10.0061 3.07422 11.2033V12.9359C3.07422 13.3057 3.46356 13.5394 3.81397 13.4226C4.35905 13.2376 4.93334 13.1403 5.50762 13.1403C8.4569 13.1403 10.8611 15.5445 10.8611 18.4938C10.8611 19.1946 10.6762 19.9635 10.3842 20.6449C10.2284 20.9953 10.4718 21.4138 10.8514 21.4138H17.9082C19.9231 21.4138 21.5681 19.7689 21.5681 17.754V17.5691C21.5681 17.0337 21.1301 16.5957 20.5947 16.5957H19.7479C18.8135 16.5957 17.918 16.0214 17.6746 15.1162C17.4799 14.3764 17.7136 13.6562 18.2002 13.1889C18.5604 12.8191 19.0568 12.6049 19.6019 12.6049ZM14.2679 12.4103H9.40106C9.00198 12.4103 8.67104 12.0793 8.67104 11.6802C8.67104 11.2812 9.00198 10.9502 9.40106 10.9502H14.2679C14.6669 10.9502 14.9979 11.2812 14.9979 11.6802C14.9979 12.0793 14.6669 12.4103 14.2679 12.4103Z" fill="#292D32"/>
</svg>
