<svg width="24" height="24" viewBox="0 0 24 24" fill="none" xmlns="http://www.w3.org/2000/svg">
<path d="M19.8305 8.70005L15.3005 4.17005C14.3505 3.22005 13.0405 2.71005 11.7005 2.78005L6.70046 3.02005C4.70046 3.11005 3.11046 4.70005 3.01046 6.69005L2.77046 11.69C2.71046 13.03 3.21046 14.34 4.16046 15.29L8.69046 19.82C10.5505 21.68 13.5705 21.68 15.4405 19.82L19.8305 15.43C21.7005 13.58 21.7005 10.56 19.8305 8.70005ZM9.50046 12.38C7.92046 12.38 6.62046 11.09 6.62046 9.50005C6.62046 7.91005 7.92046 6.62005 9.50046 6.62005C11.0805 6.62005 12.3805 7.91005 12.3805 9.50005C12.3805 11.09 11.0805 12.38 9.50046 12.38ZM17.5305 13.53L13.5305 17.53C13.3805 17.68 13.1905 17.75 13.0005 17.75C12.8105 17.75 12.6205 17.68 12.4705 17.53C12.1805 17.24 12.1805 16.76 12.4705 16.47L16.4705 12.47C16.7605 12.18 17.2405 12.18 17.5305 12.47C17.8205 12.76 17.8205 13.24 17.5305 13.53Z" fill="#292D32"/>
</svg>
