<svg width="24" height="24" viewBox="0 0 24 24" fill="none" xmlns="http://www.w3.org/2000/svg">
<path d="M11.9392 2.21008L9.52922 7.82008H7.11922C6.71922 7.82008 6.32922 7.85007 5.94922 7.93007L6.94922 5.53008L6.98922 5.44008L7.04922 5.28008C7.07922 5.21008 7.09922 5.15008 7.12922 5.10008C8.28922 2.41007 9.58922 1.57008 11.9392 2.21008Z" fill="#292D32"/>
<path d="M18.7291 8.09002L18.7091 8.08002C18.1091 7.91002 17.4991 7.82002 16.8791 7.82002H10.6191L12.8691 2.59002L12.8991 2.52002C13.0391 2.57002 13.1891 2.64002 13.3391 2.69002L15.5491 3.62002C16.7791 4.13002 17.6391 4.66002 18.1691 5.30002C18.2591 5.42002 18.3391 5.53002 18.4191 5.66002C18.5091 5.80002 18.5791 5.94002 18.6191 6.09002C18.6591 6.18002 18.6891 6.26002 18.7091 6.35002C18.8591 6.86002 18.8691 7.44002 18.7291 8.09002Z" fill="#292D32"/>
<path d="M12.5195 17.6601H12.7695C13.0695 17.6601 13.3195 17.3901 13.3195 17.0601C13.3195 16.6401 13.1995 16.5801 12.9395 16.4801L12.5195 16.3301V17.6601Z" fill="#292D32"/>
<path d="M18.2902 9.52007C17.8402 9.39007 17.3702 9.32007 16.8802 9.32007H7.12023C6.44023 9.32007 5.80023 9.45007 5.20023 9.71007C3.46023 10.4601 2.24023 12.1901 2.24023 14.2001V16.1501C2.24023 16.3901 2.26023 16.6201 2.29023 16.8601C2.51023 20.0401 4.21023 21.7401 7.39023 21.9501C7.62023 21.9801 7.85023 22.0001 8.10023 22.0001H15.9002C19.6002 22.0001 21.5502 20.2401 21.7402 16.7401C21.7502 16.5501 21.7602 16.3501 21.7602 16.1501V14.2001C21.7602 11.9901 20.2902 10.1301 18.2902 9.52007ZM13.2802 15.5001C13.7402 15.6601 14.3602 16.0001 14.3602 17.0601C14.3602 17.9701 13.6502 18.7001 12.7702 18.7001H12.5202V18.9201C12.5202 19.2101 12.2902 19.4401 12.0002 19.4401C11.7102 19.4401 11.4802 19.2101 11.4802 18.9201V18.7001H11.3902C10.4302 18.7001 9.64023 17.8901 9.64023 16.8901C9.64023 16.6001 9.87023 16.3701 10.1602 16.3701C10.4502 16.3701 10.6802 16.6001 10.6802 16.8901C10.6802 17.3101 11.0002 17.6601 11.3902 17.6601H11.4802V15.9701L10.7202 15.7001C10.2602 15.5401 9.64023 15.2001 9.64023 14.1401C9.64023 13.2301 10.3502 12.5001 11.2302 12.5001H11.4802V12.2801C11.4802 11.9901 11.7102 11.7601 12.0002 11.7601C12.2902 11.7601 12.5202 11.9901 12.5202 12.2801V12.5001H12.6102C13.5702 12.5001 14.3602 13.3101 14.3602 14.3101C14.3602 14.6001 14.1302 14.8301 13.8402 14.8301C13.5502 14.8301 13.3202 14.6001 13.3202 14.3101C13.3202 13.8901 13.0002 13.5401 12.6102 13.5401H12.5202V15.2301L13.2802 15.5001Z" fill="#292D32"/>
<path d="M10.6797 14.14C10.6797 14.56 10.7997 14.62 11.0597 14.72L11.4797 14.87V13.54H11.2297C10.9197 13.54 10.6797 13.81 10.6797 14.14Z" fill="#292D32"/>
</svg>
