<svg width="24" height="24" viewBox="0 0 24 24" fill="none" xmlns="http://www.w3.org/2000/svg">
<path d="M20.6804 13.9099V13.8999C19.8004 12.9699 18.5704 12.3999 17.2004 12.3999C14.5504 12.3999 12.4004 14.5499 12.4004 17.1999C12.4004 18.4299 12.8704 19.5499 13.6304 20.3999C14.5104 21.3799 15.7804 21.9999 17.2004 21.9999C19.8504 21.9999 22.0004 19.8499 22.0004 17.1999C22.0004 15.9299 21.5004 14.7699 20.6804 13.9099ZM18.9904 18.0099H17.9504V19.0999C17.9504 19.5099 17.6104 19.8499 17.2004 19.8499C16.7904 19.8499 16.4504 19.5099 16.4504 19.0999V18.0099H15.4104C14.9904 18.0099 14.6604 17.6799 14.6604 17.2599C14.6604 16.8499 14.9804 16.5199 15.4004 16.5099H16.4504V15.5099C16.4504 15.4899 16.4504 15.4699 16.4604 15.4499C16.4804 15.0699 16.8104 14.7599 17.2004 14.7599C17.6004 14.7599 17.9304 15.0799 17.9504 15.4799V16.5099H18.9904C19.4104 16.5099 19.7404 16.8499 19.7404 17.2599C19.7404 17.6799 19.4104 18.0099 18.9904 18.0099Z" fill="#292D32"/>
<path d="M22 8.73014C22 9.92014 21.81 11.0201 21.48 12.0401C21.42 12.2501 21.17 12.3101 20.99 12.1801C19.9 11.3701 18.57 10.9401 17.2 10.9401C13.73 10.9401 10.9 13.7701 10.9 17.2401C10.9 18.3201 11.18 19.3801 11.71 20.3201C11.87 20.6001 11.68 20.9601 11.38 20.8501C8.97 20.0301 4.1 17.0401 2.52 12.0401C2.19 11.0201 2 9.92014 2 8.73014C2 5.64014 4.49 3.14014 7.56 3.14014C9.37 3.14014 10.99 4.02014 12 5.37014C13.01 4.02014 14.63 3.14014 16.44 3.14014C19.51 3.14014 22 5.64014 22 8.73014Z" fill="#292D32"/>
</svg>
