<svg width="24" height="24" viewBox="0 0 24 24" fill="none" xmlns="http://www.w3.org/2000/svg">
<path d="M8.38965 18.4902V8.33022C8.38965 7.93022 8.50965 7.54022 8.72965 7.21022L11.4596 3.15022C11.8896 2.50022 12.9596 2.04022 13.8696 2.38022C14.8496 2.71022 15.4996 3.81022 15.2896 4.79022L14.7696 8.06022C14.7296 8.36022 14.8096 8.63022 14.9796 8.84022C15.1496 9.03022 15.3996 9.15022 15.6696 9.15022H19.7796C20.5696 9.15022 21.2496 9.47022 21.6496 10.0302C22.0296 10.5702 22.0996 11.2702 21.8496 11.9802L19.3896 19.4702C19.0796 20.7102 17.7296 21.7202 16.3896 21.7202H12.4896C11.8196 21.7202 10.8796 21.4902 10.4496 21.0602L9.16965 20.0702C8.67965 19.7002 8.38965 19.1102 8.38965 18.4902Z" fill="#292D32"/>
<path d="M5.21 6.37988H4.18C2.63 6.37988 2 6.97988 2 8.45988V18.5199C2 19.9999 2.63 20.5999 4.18 20.5999H5.21C6.76 20.5999 7.39 19.9999 7.39 18.5199V8.45988C7.39 6.97988 6.76 6.37988 5.21 6.37988Z" fill="#292D32"/>
</svg>
