<svg width="24" height="24" viewBox="0 0 24 24" fill="none" xmlns="http://www.w3.org/2000/svg">
<path d="M15.3904 5.20979L16.8004 8.02979C16.9904 8.41979 17.5004 8.78979 17.9304 8.86979L20.4804 9.28979C22.1104 9.55979 22.4904 10.7398 21.3204 11.9198L19.3304 13.9098C19.0004 14.2398 18.8104 14.8898 18.9204 15.3598L19.4904 17.8198C19.9404 19.7598 18.9004 20.5198 17.1904 19.4998L14.8004 18.0798C14.3704 17.8198 13.6504 17.8198 13.2204 18.0798L10.8304 19.4998C9.12043 20.5098 8.08043 19.7598 8.53043 17.8198L9.10043 15.3598C9.19043 14.8798 9.00043 14.2298 8.67043 13.8998L6.68043 11.9098C5.51043 10.7398 5.89043 9.55979 7.52043 9.27979L10.0704 8.85979C10.5004 8.78979 11.0104 8.40979 11.2004 8.01979L12.6104 5.19979C13.3804 3.67979 14.6204 3.67979 15.3904 5.20979Z" fill="#292D32"/>
<path d="M8 5.75H2C1.59 5.75 1.25 5.41 1.25 5C1.25 4.59 1.59 4.25 2 4.25H8C8.41 4.25 8.75 4.59 8.75 5C8.75 5.41 8.41 5.75 8 5.75Z" fill="#292D32"/>
<path d="M5 19.75H2C1.59 19.75 1.25 19.41 1.25 19C1.25 18.59 1.59 18.25 2 18.25H5C5.41 18.25 5.75 18.59 5.75 19C5.75 19.41 5.41 19.75 5 19.75Z" fill="#292D32"/>
<path d="M3 12.75H2C1.59 12.75 1.25 12.41 1.25 12C1.25 11.59 1.59 11.25 2 11.25H3C3.41 11.25 3.75 11.59 3.75 12C3.75 12.41 3.41 12.75 3 12.75Z" fill="#292D32"/>
</svg>
