<svg width="24" height="24" viewBox="0 0 24 24" fill="none" xmlns="http://www.w3.org/2000/svg">
<path d="M9 22H15C20 22 22 20 22 15V9C22 4 20 2 15 2H9C4 2 2 4 2 9V15C2 20 4 22 9 22Z" stroke="#292D32" stroke-width="1.5" stroke-linecap="round" stroke-linejoin="round"/>
<path d="M6.99043 15.0798L8.93042 17.0198C9.57042 17.6598 10.6304 17.6598 11.2704 17.0198L17.0204 11.2698C17.6604 10.6298 17.6604 9.56975 17.0204 8.92975L15.0804 6.98977C14.4404 6.34977 13.3804 6.34977 12.7404 6.98977L6.99043 12.7398C6.34043 13.3798 6.34043 14.4298 6.99043 15.0798Z" stroke="#292D32" stroke-width="1.5" stroke-linecap="round" stroke-linejoin="round"/>
<path d="M9.31055 10.4199L13.5806 14.6899" stroke="#292D32" stroke-width="1.5" stroke-linecap="round" stroke-linejoin="round"/>
</svg>
