<svg width="24" height="24" viewBox="0 0 24 24" fill="none" xmlns="http://www.w3.org/2000/svg">
<path d="M7.93973 14.5099C7.31973 14.2799 6.76972 13.8299 6.41972 13.1899C5.61972 11.7299 6.10972 9.82989 7.52972 8.94989L9.86972 7.49988C11.2797 6.61988 13.0997 7.09987 13.8997 8.54987C14.6997 10.0099 14.2097 11.9099 12.7897 12.7899L12.4797 13.0099" stroke="#292D32" stroke-width="1.5" stroke-linecap="round" stroke-linejoin="round"/>
<path d="M16.1102 9.4502C16.7302 9.6802 17.2802 10.1302 17.6302 10.7702C18.4302 12.2302 17.9402 14.1302 16.5202 15.0102L14.1802 16.4602C12.7702 17.3402 10.9502 16.8602 10.1502 15.4102C9.35019 13.9502 9.84019 12.0502 11.2602 11.1702L11.5702 10.9502" stroke="#292D32" stroke-width="1.5" stroke-linecap="round" stroke-linejoin="round"/>
<path d="M12 22C17.5228 22 22 17.5228 22 12C22 6.47715 17.5228 2 12 2C6.47715 2 2 6.47715 2 12C2 17.5228 6.47715 22 12 22Z" stroke="#292D32" stroke-width="1.5" stroke-linecap="round" stroke-linejoin="round"/>
</svg>
