<svg width="24" height="24" viewBox="0 0 24 24" fill="none" xmlns="http://www.w3.org/2000/svg">
<path d="M8.17961 16.0204C7.41961 15.9504 6.66961 15.6004 6.08961 14.9904C4.76961 13.6004 4.76961 11.3204 6.08961 9.93038L8.27961 7.63039C9.59961 6.24039 11.7696 6.24039 13.0996 7.63039C14.4196 9.02039 14.4196 11.3004 13.0996 12.6904L12.0096 13.8404" stroke="#292D32" stroke-width="1.5" stroke-linecap="round" stroke-linejoin="round"/>
<path d="M15.8192 7.98047C16.5792 8.05047 17.3292 8.40047 17.9092 9.01047C19.2292 10.4005 19.2292 12.6805 17.9092 14.0705L15.7192 16.3705C14.3992 17.7605 12.2292 17.7605 10.8992 16.3705C9.57918 14.9805 9.57918 12.7005 10.8992 11.3105L11.9892 10.1605" stroke="#292D32" stroke-width="1.5" stroke-linecap="round" stroke-linejoin="round"/>
<path d="M9 22H15C20 22 22 20 22 15V9C22 4 20 2 15 2H9C4 2 2 4 2 9V15C2 20 4 22 9 22Z" stroke="#292D32" stroke-width="1.5" stroke-linecap="round" stroke-linejoin="round"/>
</svg>
