<svg width="24" height="24" viewBox="0 0 24 24" fill="none" xmlns="http://www.w3.org/2000/svg">
<path d="M9 22H15C20 22 22 20 22 15V9C22 4 20 2 15 2H9C4 2 2 4 2 9V15C2 20 4 22 9 22Z" stroke="#292D32" stroke-width="1.5" stroke-linecap="round" stroke-linejoin="round"/>
<path d="M16.9999 11.8398H14.3199C13.6099 11.8398 13.1299 11.2998 13.1299 10.6498V9.15973C13.1299 8.50973 13.6099 7.96973 14.3199 7.96973H15.8099C16.4599 7.96973 16.9999 8.50973 16.9999 9.15973V11.8398Z" stroke="#292D32" stroke-width="1.5" stroke-linecap="round" stroke-linejoin="round"/>
<path d="M17.0002 11.8398C17.0002 14.6298 16.4802 15.0998 14.9102 16.0298" stroke="#292D32" stroke-width="1.5" stroke-linecap="round" stroke-linejoin="round"/>
<path d="M10.8602 11.8398H8.18023C7.47023 11.8398 6.99023 11.2998 6.99023 10.6498V9.15973C6.99023 8.50973 7.47023 7.96973 8.18023 7.96973H9.67023C10.3202 7.96973 10.8602 8.50973 10.8602 9.15973V11.8398Z" stroke="#292D32" stroke-width="1.5" stroke-linecap="round" stroke-linejoin="round"/>
<path d="M10.8605 11.8398C10.8605 14.6298 10.3405 15.0998 8.77051 16.0298" stroke="#292D32" stroke-width="1.5" stroke-linecap="round" stroke-linejoin="round"/>
</svg>
