<svg width="24" height="24" viewBox="0 0 24 24" fill="none" xmlns="http://www.w3.org/2000/svg">
<path d="M12 22C17.5228 22 22 17.5228 22 12C22 6.47715 17.5228 2 12 2C6.47715 2 2 6.47715 2 12C2 17.5228 6.47715 22 12 22Z" stroke="#292D32" stroke-width="1.5" stroke-miterlimit="10" stroke-linecap="round" stroke-linejoin="round"/>
<path d="M11.9996 14.8804C11.0896 14.8804 10.3496 14.1403 10.3496 13.2303V10.7604C10.3496 9.85038 11.0896 9.11035 11.9996 9.11035C12.9096 9.11035 13.6496 9.85038 13.6496 10.7604V13.2303C13.6496 14.1403 12.9096 14.8804 11.9996 14.8804Z" stroke="#292D32" stroke-width="1.5" stroke-linecap="round"/>
<path d="M16.98 13.4697C16.78 16.0497 14.62 18.0697 12 18.0697C9.24 18.0697 7 15.8297 7 13.0697V10.9297C7 8.16969 9.24 5.92969 12 5.92969C14.59 5.92969 16.72 7.89968 16.97 10.4197" stroke="#292D32" stroke-width="1.5" stroke-linecap="round"/>
</svg>
