<svg width="24" height="24" viewBox="0 0 24 24" fill="none" xmlns="http://www.w3.org/2000/svg">
<path d="M10.4901 2.22957L5.50015 4.09957C4.35015 4.52957 3.41016 5.88955 3.41016 7.11955V14.5495C3.41016 15.7295 4.19017 17.2795 5.14017 17.9895L9.44016 21.1996C10.8502 22.2596 13.1701 22.2596 14.5801 21.1996L18.8802 17.9895C19.8302 17.2795 20.6101 15.7295 20.6101 14.5495V7.11955C20.6101 5.88955 19.6701 4.52957 18.5201 4.09957L13.5302 2.22957C12.6802 1.91957 11.3201 1.91957 10.4901 2.22957Z" stroke="#292D32" stroke-width="1.5" stroke-linecap="round" stroke-linejoin="round"/>
<path d="M11.9997 10.9204C11.9597 10.9204 11.9097 10.9204 11.8697 10.9204C10.9297 10.8904 10.1797 10.1104 10.1797 9.1604C10.1797 8.1904 10.9697 7.40039 11.9397 7.40039C12.9097 7.40039 13.6997 8.1904 13.6997 9.1604C13.6897 10.1204 12.9397 10.8904 11.9997 10.9204Z" stroke="#292D32" stroke-width="1.5" stroke-linecap="round" stroke-linejoin="round"/>
<path d="M10.01 13.7204C9.05004 14.3604 9.05004 15.4103 10.01 16.0503C11.1 16.7803 12.89 16.7803 13.98 16.0503C14.94 15.4103 14.94 14.3604 13.98 13.7204C12.9 12.9904 11.11 12.9904 10.01 13.7204Z" stroke="#292D32" stroke-width="1.5" stroke-linecap="round" stroke-linejoin="round"/>
</svg>
