<svg width="24" height="24" viewBox="0 0 24 24" fill="none" xmlns="http://www.w3.org/2000/svg">
<path d="M20.5902 10.5496V7.11957C20.5902 5.88957 19.6502 4.52957 18.5002 4.09957L13.5102 2.22957C12.6802 1.91957 11.3202 1.91957 10.4902 2.22957L5.50016 4.10957C4.35016 4.53957 3.41016 5.89957 3.41016 7.11957V14.5496C3.41016 15.7296 4.19016 17.2796 5.14016 17.9896L9.44016 21.1996C10.1402 21.7396 11.0702 21.9996 12.0002 21.9996" stroke="#292D32" stroke-width="1.5" stroke-linecap="round" stroke-linejoin="round"/>
<path d="M16 20C18.2091 20 20 18.2091 20 16C20 13.7909 18.2091 12 16 12C13.7909 12 12 13.7909 12 16C12 18.2091 13.7909 20 16 20Z" stroke="#292D32" stroke-width="1.5" stroke-linecap="round" stroke-linejoin="round"/>
<path d="M20.9955 21H21.0045" stroke="#292D32" stroke-width="2" stroke-linecap="round" stroke-linejoin="round"/>
</svg>
