<svg width="24" height="24" viewBox="0 0 24 24" fill="none" xmlns="http://www.w3.org/2000/svg">
<path d="M19.0693 14.2401C18.7793 14.5301 18.3193 14.5301 18.0393 14.2401C17.7493 13.9501 17.7493 13.4901 18.0393 13.2101C20.0393 11.2101 20.0393 7.9601 18.0393 5.9701C16.0393 3.9801 12.7893 3.9701 10.7993 5.9701C8.8093 7.9701 8.7993 11.2201 10.7993 13.2101C11.0893 13.5001 11.0893 13.9601 10.7993 14.2401C10.5093 14.5301 10.0493 14.5301 9.7693 14.2401C7.1993 11.6701 7.1993 7.4901 9.7693 4.9301C12.3393 2.3701 16.5193 2.3601 19.0793 4.9301C21.6393 7.5001 21.6393 11.6701 19.0693 14.2401Z" fill="#292D32"/>
<path d="M4.9307 9.75998C5.2207 9.46998 5.68071 9.46998 5.96071 9.75998C6.25071 10.05 6.25071 10.51 5.96071 10.79C3.96071 12.79 3.96071 16.04 5.96071 18.03C7.96071 20.02 11.2107 20.03 13.2007 18.03C15.1907 16.03 15.2007 12.78 13.2007 10.79C12.9107 10.5 12.9107 10.04 13.2007 9.75998C13.4907 9.46998 13.9507 9.46998 14.2307 9.75998C16.8007 12.33 16.8007 16.51 14.2307 19.07C11.6607 21.63 7.48071 21.64 4.92071 19.07C2.36071 16.5 2.3607 12.33 4.9307 9.75998Z" fill="#292D32"/>
</svg>
