<svg width="24" height="24" viewBox="0 0 24 24" fill="none" xmlns="http://www.w3.org/2000/svg">
<path d="M22 12C22 6.48 17.52 2 12 2C6.48 2 2 6.48 2 12C2 17.52 6.48 22 12 22" stroke="#292D32" stroke-width="1.5" stroke-linecap="round" stroke-linejoin="round"/>
<path d="M7.99961 3H8.99961C7.04961 8.84 7.04961 15.16 8.99961 21H7.99961" stroke="#292D32" stroke-width="1.5" stroke-linecap="round" stroke-linejoin="round"/>
<path d="M15 3C15.97 5.92 16.46 8.96 16.46 12" stroke="#292D32" stroke-width="1.5" stroke-linecap="round" stroke-linejoin="round"/>
<path d="M3 16V15C5.92 15.97 8.96 16.46 12 16.46" stroke="#292D32" stroke-width="1.5" stroke-linecap="round" stroke-linejoin="round"/>
<path d="M3 8.99961C8.84 7.04961 15.16 7.04961 21 8.99961" stroke="#292D32" stroke-width="1.5" stroke-linecap="round" stroke-linejoin="round"/>
<path d="M19.4998 14.7005C19.1298 14.5905 18.7098 14.5205 18.2498 14.5205C16.1798 14.5205 14.5098 16.2005 14.5098 18.2605C14.5098 20.3305 16.1898 22.0005 18.2498 22.0005C20.3098 22.0005 21.9897 20.3205 21.9897 18.2605C21.9897 17.4905 21.7597 16.7705 21.3597 16.1805" stroke="#292D32" stroke-width="1.5" stroke-linecap="round" stroke-linejoin="round"/>
<path d="M20.04 14.8001L18.79 13.3701" stroke="#292D32" stroke-width="1.5" stroke-linecap="round" stroke-linejoin="round"/>
<path d="M20.0401 14.7998L18.5801 15.8598" stroke="#292D32" stroke-width="1.5" stroke-linecap="round" stroke-linejoin="round"/>
</svg>
