<svg width="24" height="24" viewBox="0 0 24 24" fill="none" xmlns="http://www.w3.org/2000/svg">
<path d="M9.54004 15.92V10.5801L8.04004 12.2501" stroke="#292D32" stroke-width="1.5" stroke-linecap="round" stroke-linejoin="round"/>
<path d="M10.0195 4.46997L11.9995 2" stroke="#292D32" stroke-width="1.5" stroke-linecap="round" stroke-linejoin="round"/>
<path d="M4.91037 7.79974C3.80037 9.27974 3.11035 11.1097 3.11035 13.1097C3.11035 18.0197 7.09037 21.9998 12.0004 21.9998C16.9104 21.9998 20.8904 18.0197 20.8904 13.1097C20.8904 8.19974 16.9104 4.21973 12.0004 4.21973C11.3204 4.21973 10.6604 4.30978 10.0204 4.45978" stroke="#292D32" stroke-width="1.5" stroke-linecap="round" stroke-linejoin="round"/>
<path d="M14 10.5801C15.1 10.5801 16 11.4801 16 12.5801V13.9301C16 15.0301 15.1 15.9301 14 15.9301C12.9 15.9301 12 15.0301 12 13.9301V12.5801C12 11.4701 12.9 10.5801 14 10.5801Z" stroke="#292D32" stroke-width="1.5" stroke-linecap="round" stroke-linejoin="round"/>
</svg>
