<svg width="24" height="24" viewBox="0 0 24 24" fill="none" xmlns="http://www.w3.org/2000/svg">
<path d="M15.9597 10.8301H12.8997L12.1396 13.1201H14.4296C15.2696 13.1201 15.9597 13.8001 15.9597 14.6501C15.9597 15.4901 15.2796 16.1801 14.4296 16.1801H12.1396" stroke="#292D32" stroke-width="1.5" stroke-linecap="round" stroke-linejoin="round"/>
<path d="M9.54004 16.17V10.8301L8.04004 12.5001" stroke="#292D32" stroke-width="1.5" stroke-linecap="round" stroke-linejoin="round"/>
<path d="M13.98 4.46997L12 2" stroke="#292D32" stroke-width="1.5" stroke-linecap="round" stroke-linejoin="round"/>
<path d="M19.0904 7.79974C20.2004 9.27974 20.8904 11.1097 20.8904 13.1097C20.8904 18.0197 16.9104 21.9998 12.0004 21.9998C7.09037 21.9998 3.11035 18.0197 3.11035 13.1097C3.11035 8.19974 7.09037 4.21973 12.0004 4.21973C12.6804 4.21973 13.3403 4.30978 13.9803 4.45978" stroke="#292D32" stroke-width="1.5" stroke-linecap="round" stroke-linejoin="round"/>
</svg>
