<svg width="24" height="24" viewBox="0 0 24 24" fill="none" xmlns="http://www.w3.org/2000/svg">
<path d="M17.82 6.53C17.16 3.93 14.81 2 12 2C8.69 2 6 4.69 6 8V13C6 14.46 6.52 15.8 7.39 16.84" stroke="#292D32" stroke-width="1.5" stroke-linecap="round" stroke-linejoin="round"/>
<path d="M17.9999 9.98047V13.0005C17.9999 16.3105 15.3099 19.0005 11.9999 19.0005C11.2699 19.0005 10.5599 18.8705 9.91992 18.6305" stroke="#292D32" stroke-width="1.5" stroke-linecap="round" stroke-linejoin="round"/>
<path d="M5.86035 19.58C7.47035 21.08 9.63035 22 12.0004 22C16.9704 22 21.0004 17.97 21.0004 13V11" stroke="#292D32" stroke-width="1.5" stroke-linecap="round" stroke-linejoin="round"/>
<path d="M21.5 2.99023L2.5 21.9902" stroke="#292D32" stroke-width="1.5" stroke-linecap="round" stroke-linejoin="round"/>
<path d="M11.5498 5.49977V2.25977" stroke="#292D32" stroke-width="1.5" stroke-linecap="round" stroke-linejoin="round"/>
<path d="M8.5 3.5V7.5" stroke="#292D32" stroke-width="1.5" stroke-linecap="round" stroke-linejoin="round"/>
</svg>
