<svg width="24" height="24" viewBox="0 0 24 24" fill="none" xmlns="http://www.w3.org/2000/svg">
<path d="M22 15V9C22 4 20 2 15 2H9C4 2 2 4 2 9V15C2 20 4 22 9 22H15C20 22 22 20 22 15Z" stroke="#292D32" stroke-width="1.5" stroke-linecap="round" stroke-linejoin="round"/>
<path d="M7 2.5V21.5" stroke="#292D32" stroke-width="1.5" stroke-linecap="round" stroke-linejoin="round"/>
<path d="M11.4705 16.8003C12.2934 16.8003 12.9605 16.1332 12.9605 15.3103C12.9605 14.4874 12.2934 13.8203 11.4705 13.8203C10.6476 13.8203 9.98047 14.4874 9.98047 15.3103C9.98047 16.1332 10.6476 16.8003 11.4705 16.8003Z" stroke="#292D32" stroke-width="1.5" stroke-linecap="round" stroke-linejoin="round"/>
<path d="M18.4309 14.3103V8.48026C18.4309 7.24026 17.6509 7.07031 16.8609 7.28031L13.8809 8.09031C13.3409 8.24031 12.9609 8.67026 12.9609 9.29026V10.3303V11.0303V15.3003" stroke="#292D32" stroke-width="1.5" stroke-linecap="round" stroke-linejoin="round"/>
<path d="M16.9304 15.8003C17.7533 15.8003 18.4204 15.1332 18.4204 14.3103C18.4204 13.4874 17.7533 12.8203 16.9304 12.8203C16.1075 12.8203 15.4404 13.4874 15.4404 14.3103C15.4404 15.1332 16.1075 15.8003 16.9304 15.8003Z" stroke="#292D32" stroke-width="1.5" stroke-linecap="round" stroke-linejoin="round"/>
<path d="M12.9609 11.0408L18.4309 9.55078" stroke="#292D32" stroke-width="1.5" stroke-linecap="round" stroke-linejoin="round"/>
</svg>
