<svg width="24" height="24" viewBox="0 0 24 24" fill="none" xmlns="http://www.w3.org/2000/svg">
<path d="M11.9697 22C17.4926 22 21.9697 17.5228 21.9697 12C21.9697 6.47715 17.4926 2 11.9697 2C6.44688 2 1.96973 6.47715 1.96973 12C1.96973 17.5228 6.44688 22 11.9697 22Z" stroke="#292D32" stroke-width="1.5" stroke-linecap="round" stroke-linejoin="round"/>
<path d="M10.72 14.5298V9.4698C10.72 8.9898 10.52 8.7998 10.01 8.7998H8.71C8.2 8.7998 8 8.9898 8 9.4698V14.5298C8 15.0098 8.2 15.1998 8.71 15.1998H10C10.52 15.1998 10.72 15.0098 10.72 14.5298Z" stroke="#292D32" stroke-width="1.5" stroke-linecap="round" stroke-linejoin="round"/>
<path d="M16 14.5298V9.4698C16 8.9898 15.8 8.7998 15.29 8.7998H14C13.49 8.7998 13.29 8.9898 13.29 9.4698V14.5298C13.29 15.0098 13.49 15.1998 14 15.1998H15.29C15.8 15.1998 16 15.0098 16 14.5298Z" stroke="#292D32" stroke-width="1.5" stroke-linecap="round" stroke-linejoin="round"/>
</svg>
