<svg width="24" height="24" viewBox="0 0 24 24" fill="none" xmlns="http://www.w3.org/2000/svg">
<path d="M19.0703 19.0697C22.9803 15.1597 22.9803 8.82969 19.0703 4.92969" stroke="#292D32" stroke-width="1.5" stroke-linecap="round" stroke-linejoin="round"/>
<path d="M4.92957 4.92969C1.01957 8.83969 1.01957 15.1697 4.92957 19.0697" stroke="#292D32" stroke-width="1.5" stroke-linecap="round" stroke-linejoin="round"/>
<path d="M8.7002 21.4102C9.7702 21.7802 10.8802 21.9602 12.0002 21.9602C13.1202 21.9502 14.2302 21.7802 15.3002 21.4102" stroke="#292D32" stroke-width="1.5" stroke-linecap="round" stroke-linejoin="round"/>
<path d="M8.7002 2.59009C9.7702 2.22009 10.8802 2.04004 12.0002 2.04004C13.1202 2.04004 14.2302 2.22009 15.3002 2.59009" stroke="#292D32" stroke-width="1.5" stroke-linecap="round" stroke-linejoin="round"/>
<path d="M8.74023 12.0001V10.3302C8.74023 8.25016 10.2103 7.40014 12.0103 8.44014L13.4602 9.28017L14.9102 10.1201C16.7102 11.1601 16.7102 12.8602 14.9102 13.9002L13.4602 14.7401L12.0103 15.5802C10.2103 16.6202 8.74023 15.7701 8.74023 13.6901V12.0001Z" stroke="#292D32" stroke-width="1.5" stroke-miterlimit="10" stroke-linecap="round" stroke-linejoin="round"/>
</svg>
