<svg width="24" height="24" viewBox="0 0 24 24" fill="none" xmlns="http://www.w3.org/2000/svg">
<path d="M11.74 17.7504H17.66C17.57 17.8304 17.48 17.9004 17.39 17.9804L13.12 21.1803C11.71 22.2303 9.41001 22.2303 7.99001 21.1803L3.71001 17.9804C2.77001 17.2804 2 15.7304 2 14.5604V7.15035C2 5.93035 2.93001 4.58035 4.07001 4.15035L9.05 2.28035C9.87 1.97035 11.23 1.97035 12.05 2.28035L17.02 4.15035C17.97 4.51035 18.78 5.51035 19.03 6.53035H11.73C11.51 6.53035 11.31 6.54036 11.12 6.54036C9.27 6.65036 8.78999 7.32035 8.78999 9.43035V14.8603C8.79999 17.1603 9.39001 17.7504 11.74 17.7504Z" stroke="#292D32" stroke-width="1.5" stroke-linecap="round" stroke-linejoin="round"/>
<path d="M8.7998 11.2207H21.9998" stroke="#292D32" stroke-width="1.5" stroke-miterlimit="10" stroke-linecap="round" stroke-linejoin="round"/>
<path d="M21.9998 9.42075V14.9707C21.9798 17.1907 21.3698 17.7407 19.0598 17.7407H11.7398C9.38981 17.7407 8.7998 17.1507 8.7998 14.8407V9.41074C8.7998 7.31074 9.27981 6.64072 11.1298 6.52072C11.3198 6.52072 11.5198 6.51074 11.7398 6.51074H19.0598C21.4098 6.52074 21.9998 7.10075 21.9998 9.42075Z" stroke="#292D32" stroke-width="1.5" stroke-linecap="round" stroke-linejoin="round"/>
<path d="M11.3203 15.2607H12.6503" stroke="#292D32" stroke-width="1.5" stroke-miterlimit="10" stroke-linecap="round" stroke-linejoin="round"/>
<path d="M14.75 15.2607H18.02" stroke="#292D32" stroke-width="1.5" stroke-miterlimit="10" stroke-linecap="round" stroke-linejoin="round"/>
</svg>
