<svg width="24" height="24" viewBox="0 0 24 24" fill="none" xmlns="http://www.w3.org/2000/svg">
<path d="M22 21.25C22 21.66 21.66 22 21.25 22H2.75C2.34 22 2 21.66 2 21.25C2 20.84 2.34 20.5 2.75 20.5H21.25C21.66 20.5 22 20.84 22 21.25Z" fill="#292D32"/>
<path d="M15.3895 4.52001L4.64945 15.26C4.23945 15.67 3.57945 15.67 3.17945 15.26H3.16945C1.77945 13.86 1.77945 11.6 3.16945 10.21L10.3195 3.06001C11.7195 1.66001 13.9795 1.66001 15.3795 3.06001C15.7895 3.45001 15.7895 4.12001 15.3895 4.52001Z" fill="#292D32"/>
<path d="M20.8195 8.49007L17.7695 5.44007C17.3595 5.03007 16.6995 5.03007 16.2995 5.44007L5.55945 16.1801C5.14945 16.5801 5.14945 17.2401 5.55945 17.6501L8.60945 20.7101C10.0095 22.1001 12.2695 22.1001 13.6695 20.7101L20.8095 13.5601C22.2295 12.1601 22.2295 9.89007 20.8195 8.49007ZM12.7595 17.5201L11.5495 18.7401C11.2995 18.9901 10.8895 18.9901 10.6295 18.7401C10.3795 18.4901 10.3795 18.0801 10.6295 17.8201L11.8495 16.6001C12.0895 16.3601 12.5095 16.3601 12.7595 16.6001C13.0095 16.8501 13.0095 17.2801 12.7595 17.5201ZM16.7295 13.5501L14.2895 16.0001C14.0395 16.2401 13.6295 16.2401 13.3695 16.0001C13.1195 15.7501 13.1195 15.3401 13.3695 15.0801L15.8195 12.6301C16.0595 12.3901 16.4795 12.3901 16.7295 12.6301C16.9795 12.8901 16.9795 13.3001 16.7295 13.5501Z" fill="#292D32"/>
</svg>
