<svg width="24" height="24" viewBox="0 0 24 24" fill="none" xmlns="http://www.w3.org/2000/svg">
<path d="M13.4909 13.3799H11.0009C10.7009 13.3799 10.4609 13.6199 10.4609 13.9199C10.4609 14.2199 10.7009 14.4599 11.0009 14.4599H13.4909C13.7909 14.4599 14.0309 14.2199 14.0309 13.9199C14.0309 13.6199 13.7909 13.3799 13.4909 13.3799Z" fill="#292D32"/>
<path d="M9.44039 13.3799H8.19039C7.89039 13.3799 7.65039 13.6199 7.65039 13.9199C7.65039 14.2199 7.89039 14.4599 8.19039 14.4599H9.44039C9.74039 14.4599 9.98039 14.2199 9.98039 13.9199C9.98039 13.6199 9.74039 13.3799 9.44039 13.3799Z" fill="#292D32"/>
<path d="M18.5408 4.21994L13.0408 2.15994C12.4708 1.94994 11.5408 1.94994 10.9708 2.15994L5.47078 4.21994C4.41078 4.61994 3.55078 5.85994 3.55078 6.98994V15.0899C3.55078 15.8999 4.08078 16.9699 4.73078 17.4499L10.2308 21.5599C11.2008 22.2899 12.7908 22.2899 13.7608 21.5599L19.2608 17.4499C19.9108 16.9599 20.4408 15.8999 20.4408 15.0899V6.98994C20.4508 5.85994 19.5908 4.61994 18.5408 4.21994ZM18.1708 13.6499C18.1508 15.7199 17.5808 16.2399 15.4308 16.2399H8.58078C6.39078 16.2399 5.84078 15.6999 5.84078 13.5299V11.1999C5.84078 10.9199 6.06078 10.6999 6.34078 10.6999H17.6708C17.9508 10.6999 18.1708 10.9199 18.1708 11.1999V13.6499ZM18.1708 9.10994C18.1708 9.38994 17.9508 9.60994 17.6708 9.60994H6.34078C6.06078 9.60994 5.84078 9.38994 5.84078 9.10994V8.46994C5.84078 6.50994 6.30078 5.87994 8.01078 5.76994C8.19078 5.76994 8.38078 5.75994 8.58078 5.75994H15.4308C17.6208 5.75994 18.1708 6.29994 18.1708 8.46994V9.10994Z" fill="#292D32"/>
</svg>
