<svg width="24" height="24" viewBox="0 0 24 24" fill="none" xmlns="http://www.w3.org/2000/svg">
<path d="M16.6506 3.86011H9.91061V6.88011C9.91061 7.27011 9.59061 7.58011 9.21061 7.58011C8.83061 7.58011 8.51061 7.27011 8.51061 6.88011V3.86011H7.35061C3.40061 3.86011 2.10061 5.04011 2.01061 8.73011C2.00061 8.91011 2.08061 9.10011 2.21061 9.23011C2.34061 9.37011 2.51061 9.44011 2.71061 9.44011C4.11061 9.44011 5.26061 10.6001 5.26061 12.0001C5.26061 13.4001 4.11061 14.5601 2.71061 14.5601C2.52061 14.5601 2.34061 14.6301 2.21061 14.7701C2.08061 14.9001 2.00061 15.0901 2.01061 15.2701C2.10061 18.9601 3.40061 20.1401 7.35061 20.1401H8.51061V17.1201C8.51061 16.7301 8.83061 16.4201 9.21061 16.4201C9.59061 16.4201 9.91061 16.7301 9.91061 17.1201V20.1401H16.6506C20.7506 20.1401 22.0006 18.8901 22.0006 14.7901V9.21011C22.0006 5.11011 20.7506 3.86011 16.6506 3.86011ZM18.4706 11.9001L17.5406 12.8001C17.5006 12.8301 17.4906 12.8901 17.5006 12.9401L17.7206 14.2101C17.7606 14.4401 17.6706 14.6801 17.4706 14.8201C17.2806 14.9601 17.0306 14.9801 16.8206 14.8701L15.6706 14.2701C15.6306 14.2501 15.5706 14.2501 15.5306 14.2701L14.3806 14.8701C14.2906 14.9201 14.1906 14.9401 14.0906 14.9401C13.9606 14.9401 13.8406 14.9001 13.7306 14.8201C13.5406 14.6801 13.4406 14.4501 13.4806 14.2101L13.7006 12.9401C13.7106 12.8901 13.6906 12.8401 13.6606 12.8001L12.7306 11.9001C12.5606 11.7401 12.5006 11.4901 12.5706 11.2701C12.6406 11.0401 12.8306 10.8801 13.0706 10.8501L14.3506 10.6601C14.4006 10.6501 14.4406 10.6201 14.4706 10.5801L15.0406 9.42011C15.1506 9.21011 15.3606 9.08011 15.6006 9.08011C15.8406 9.08011 16.0506 9.21011 16.1506 9.42011L16.7206 10.5801C16.7406 10.6301 16.7806 10.6601 16.8306 10.6601L18.1106 10.8501C18.3506 10.8801 18.5406 11.0501 18.6106 11.2701C18.7006 11.4901 18.6406 11.7301 18.4706 11.9001Z" fill="#292D32"/>
</svg>
