<svg width="24" height="24" viewBox="0 0 24 24" fill="none" xmlns="http://www.w3.org/2000/svg">
<path d="M11.9392 2.21008L9.52922 7.82008H7.11922C6.71922 7.82008 6.32922 7.85007 5.94922 7.93007L6.94922 5.53008L6.98922 5.44008L7.04922 5.28008C7.07922 5.21008 7.09922 5.15008 7.12922 5.10008C8.28922 2.41007 9.58922 1.57008 11.9392 2.21008Z" fill="#292D32"/>
<path d="M18.7291 8.09002L18.7091 8.08002C18.1091 7.91002 17.4991 7.82002 16.8791 7.82002H10.6191L12.8691 2.59002L12.8991 2.52002C13.0391 2.57002 13.1891 2.64002 13.3391 2.69002L15.5491 3.62002C16.7791 4.13002 17.6391 4.66002 18.1691 5.30002C18.2591 5.42002 18.3391 5.53002 18.4191 5.66002C18.5091 5.80002 18.5791 5.94002 18.6191 6.09002C18.6591 6.18002 18.6891 6.26002 18.7091 6.35002C18.8591 6.86002 18.8691 7.44002 18.7291 8.09002Z" fill="#292D32"/>
<path d="M18.2902 9.52007C17.8402 9.39007 17.3702 9.32007 16.8802 9.32007H7.12023C6.44023 9.32007 5.80023 9.45007 5.20023 9.71007C3.46023 10.4601 2.24023 12.1901 2.24023 14.2001V16.1501C2.24023 16.3901 2.26023 16.6201 2.29023 16.8601C2.51023 20.0401 4.21023 21.7401 7.39023 21.9501C7.62023 21.9801 7.85023 22.0001 8.10023 22.0001H15.9002C19.6002 22.0001 21.5502 20.2401 21.7402 16.7401C21.7502 16.5501 21.7602 16.3501 21.7602 16.1501V14.2001C21.7602 11.9901 20.2902 10.1301 18.2902 9.52007ZM14.5002 16.1901H12.7502V18.0001C12.7502 18.4101 12.4102 18.7501 12.0002 18.7501C11.5902 18.7501 11.2502 18.4101 11.2502 18.0001V16.1901H9.50023C9.09023 16.1901 8.75023 15.8601 8.75023 15.4401C8.75023 15.0301 9.09023 14.6901 9.50023 14.6901H11.2502V13.0001C11.2502 12.5901 11.5902 12.2501 12.0002 12.2501C12.4102 12.2501 12.7502 12.5901 12.7502 13.0001V14.6901H14.5002C14.9102 14.6901 15.2502 15.0301 15.2502 15.4401C15.2502 15.8601 14.9102 16.1901 14.5002 16.1901Z" fill="#292D32"/>
</svg>
