<svg width="24" height="24" viewBox="0 0 24 24" fill="none" xmlns="http://www.w3.org/2000/svg">
<path d="M22 10V15C22 20 20 22 15 22H9C4 22 2 20 2 15V9C2 4 4 2 9 2H14" stroke="#292D32" stroke-width="1.5" stroke-linecap="round" stroke-linejoin="round"/>
<path d="M22 10H18C15 10 14 9 14 6V2L22 10Z" stroke="#292D32" stroke-width="1.5" stroke-linecap="round" stroke-linejoin="round"/>
<path d="M6.61978 15.7303C6.28978 14.7003 6.67978 13.4303 7.74978 13.0803C8.31978 12.9003 9.01978 13.0503 9.40978 13.6003C9.77978 13.0303 10.5098 12.9003 11.0698 13.0803C12.1498 13.4303 12.5298 14.7003 12.2098 15.7303C11.6998 17.3603 9.90978 18.2103 9.40978 18.2103C8.91978 18.2003 7.14978 17.3703 6.61978 15.7303Z" stroke="#292D32" stroke-width="1.5" stroke-linecap="round" stroke-linejoin="round"/>
</svg>
