<svg width="24" height="24" viewBox="0 0 24 24" fill="none" xmlns="http://www.w3.org/2000/svg">
<path d="M12 11.5298C9.24 11.5298 7 13.7698 7 16.5298C7 17.2698 7.16 17.9698 7.46 18.5898C7.54 18.7698 7.63 18.9398 7.73 19.0998C8.59 20.5498 10.18 21.5298 12 21.5298C13.82 21.5298 15.41 20.5498 16.27 19.0998C16.37 18.9398 16.46 18.7698 16.54 18.5898C16.84 17.9698 17 17.2698 17 16.5298C17 13.7698 14.76 11.5298 12 11.5298ZM13.5 18.1398C13.35 18.2898 13.16 18.3598 12.97 18.3598C12.78 18.3598 12.59 18.2898 12.44 18.1398L11.91 17.6098L11.36 18.1598C11.21 18.3098 11.02 18.3798 10.83 18.3798C10.64 18.3798 10.45 18.3098 10.3 18.1598C10.01 17.8698 10.01 17.3898 10.3 17.0998L10.85 16.5498L10.32 16.0198C10.03 15.7298 10.03 15.2498 10.32 14.9598C10.61 14.6698 11.09 14.6698 11.38 14.9598L11.91 15.4898L12.41 14.9898C12.7 14.6998 13.18 14.6998 13.47 14.9898C13.76 15.2798 13.76 15.7598 13.47 16.0498L12.97 16.5498L13.5 17.0798C13.79 17.3798 13.79 17.8498 13.5 18.1398Z" fill="#292D32"/>
<path d="M20.2003 17.29C19.8403 17.61 19.4503 17.88 19.0303 18.1C18.6703 18.28 18.3103 17.93 18.3703 17.53C18.4103 17.24 18.4303 16.94 18.4303 16.63C18.4303 13.05 15.5103 10.13 11.9303 10.13C8.35032 10.13 5.43031 13.05 5.43031 16.63C5.43031 17.09 5.48031 17.53 5.57031 17.96C5.64031 18.31 5.37031 18.66 5.02031 18.57C1.07031 17.61 1.05031 11.53 5.47031 11.21H5.52031C2.31031 2.28996 15.8503 -1.28004 17.4003 8.09996C21.7303 8.64996 23.4803 14.42 20.2003 17.29Z" fill="#292D32"/>
</svg>
