<svg width="24" height="24" viewBox="0 0 24 24" fill="none" xmlns="http://www.w3.org/2000/svg">
<path d="M20 6V6.24H14.87C11.9 6.24 10.52 7.62 10.52 10.59V15.7H9.75V19.25H10.52V20.75H4.95C4.54 20.75 4.2 20.41 4.2 20C4.2 19.59 4.54 19.25 4.95 19.25H8.25V15.7H6C2.87 15.7 2.03 14.93 2 11.9V6C2 2.8 2.8 2 6 2H16C19.2 2 20 2.8 20 6Z" fill="#292D32"/>
<path d="M19.9995 7.79023C19.7495 7.76023 19.4595 7.74023 19.1495 7.74023H14.8695C12.7295 7.74023 12.0195 8.45023 12.0195 10.5902V19.2502C12.0295 19.8702 12.0995 20.3602 12.2495 20.7502C12.5995 21.6602 13.3895 22.0002 14.8695 22.0002H19.1495C21.2895 22.0002 21.9995 21.2902 21.9995 19.1502V10.5902C21.9995 8.76023 21.4795 7.98023 19.9995 7.79023ZM17.0095 10.0902C17.8795 10.0902 18.5795 10.7902 18.5795 11.6602C18.5795 12.5302 17.8795 13.2302 17.0095 13.2302C16.1395 13.2302 15.4395 12.5302 15.4395 11.6602C15.4395 10.7902 16.1395 10.0902 17.0095 10.0902ZM17.0095 19.1502C15.8295 19.1502 14.8695 18.1902 14.8695 17.0102C14.8695 16.5202 15.0395 16.0602 15.3195 15.7002C15.7095 15.2002 16.3195 14.8702 17.0095 14.8702C17.5495 14.8702 18.0395 15.0702 18.4095 15.3902C18.8595 15.7902 19.1495 16.3702 19.1495 17.0102C19.1495 18.1902 18.1895 19.1502 17.0095 19.1502Z" fill="#292D32"/>
<path d="M19.9995 7.79023C19.7495 7.76023 19.4595 7.74023 19.1495 7.74023H14.8695C12.7295 7.74023 12.0195 8.45023 12.0195 10.5902V19.2502C12.0295 19.8702 12.0995 20.3602 12.2495 20.7502C12.5995 21.6602 13.3895 22.0002 14.8695 22.0002H19.1495C21.2895 22.0002 21.9995 21.2902 21.9995 19.1502V10.5902C21.9995 8.76023 21.4795 7.98023 19.9995 7.79023ZM17.0095 10.0902C17.8795 10.0902 18.5795 10.7902 18.5795 11.6602C18.5795 12.5302 17.8795 13.2302 17.0095 13.2302C16.1395 13.2302 15.4395 12.5302 15.4395 11.6602C15.4395 10.7902 16.1395 10.0902 17.0095 10.0902ZM17.0095 19.1502C15.8295 19.1502 14.8695 18.1902 14.8695 17.0102C14.8695 16.5202 15.0395 16.0602 15.3195 15.7002C15.7095 15.2002 16.3195 14.8702 17.0095 14.8702C17.5495 14.8702 18.0395 15.0702 18.4095 15.3902C18.8595 15.7902 19.1495 16.3702 19.1495 17.0102C19.1495 18.1902 18.1895 19.1502 17.0095 19.1502Z" fill="#292D32"/>
</svg>
