<svg width="24" height="24" viewBox="0 0 24 24" fill="none" xmlns="http://www.w3.org/2000/svg">
<path d="M14.8396 10.9001L20.4996 7.11008C21.0696 6.73008 21.2196 5.95008 20.8396 5.39008L19.0196 2.68008C18.6396 2.11008 17.8596 1.96008 17.2996 2.34008L11.6396 6.13008L14.8396 10.9001Z" fill="#292D32"/>
<path d="M14.5197 10.4201L12.7597 11.6001L10.0897 13.3901L9.73969 13.6201L9.57969 13.3801L7.33969 10.0401L7.17969 9.8001L11.9597 6.6001L14.5197 10.4201Z" fill="#292D32"/>
<path d="M5.6401 16.02L9.5901 13.38L7.3501 10.04L3.4001 12.68C2.9401 12.99 2.8201 13.61 3.1301 14.07L4.2601 15.75C4.5601 16.21 5.1801 16.33 5.6401 16.02Z" fill="#292D32"/>
<path d="M16.5604 21.8101C16.4604 21.8501 16.3504 21.8801 16.2504 21.8801C15.9604 21.8801 15.6904 21.7101 15.5604 21.4301L11.8304 13.1901L8.05038 21.4401C7.92038 21.7101 7.65038 21.8801 7.36038 21.8801C7.26038 21.8801 7.15038 21.8501 7.05038 21.8101C6.68038 21.6301 6.51038 21.1901 6.68038 20.8101L10.0904 13.3901L12.7604 11.6001L16.9304 20.8201C17.1004 21.1901 16.9304 21.6401 16.5604 21.8101Z" fill="#292D32"/>
</svg>
