<svg width="24" height="24" viewBox="0 0 24 24" fill="none" xmlns="http://www.w3.org/2000/svg">
<path d="M13.1797 11.8601C12.7797 11.8601 12.4197 11.6401 12.2497 11.2801L10.7997 8.3901L10.3797 9.1701C10.1497 9.6001 9.68973 9.8701 9.19973 9.8701H8.46973C8.05973 9.8701 7.71973 9.5301 7.71973 9.1201C7.71973 8.7101 8.05973 8.3701 8.46973 8.3701H9.10973L9.89973 6.9101C10.0897 6.5701 10.4697 6.3401 10.8297 6.3601C11.2197 6.3601 11.5697 6.5901 11.7497 6.9301L13.1797 9.7901L13.5197 9.1001C13.7497 8.6401 14.1997 8.3601 14.7197 8.3601H15.5297C15.9397 8.3601 16.2797 8.7001 16.2797 9.1101C16.2797 9.5201 15.9397 9.8601 15.5297 9.8601H14.8197L14.1097 11.2701C13.9297 11.6401 13.5797 11.8601 13.1797 11.8601Z" fill="#292D32"/>
<path d="M2.74982 18.6498C2.33982 18.6498 1.99982 18.3098 1.99982 17.8998V12.1998C1.94982 9.4898 2.95982 6.9298 4.83982 5.0098C6.71982 3.0998 9.23982 2.0498 11.9498 2.0498C17.4898 2.0498 21.9998 6.5598 21.9998 12.0998V17.7998C21.9998 18.2098 21.6598 18.5498 21.2498 18.5498C20.8398 18.5498 20.4998 18.2098 20.4998 17.7998V12.0998C20.4998 7.3898 16.6698 3.5498 11.9498 3.5498C9.63982 3.5498 7.49982 4.4398 5.90982 6.0598C4.30982 7.6898 3.45982 9.8598 3.49982 12.1798V17.8898C3.49982 18.3098 3.16982 18.6498 2.74982 18.6498Z" fill="#292D32"/>
<path d="M5.94 12.4502H5.81C3.71 12.4502 2 14.1602 2 16.2602V18.1402C2 20.2402 3.71 21.9502 5.81 21.9502H5.94C8.04 21.9502 9.75 20.2402 9.75 18.1402V16.2602C9.75 14.1602 8.04 12.4502 5.94 12.4502Z" fill="#292D32"/>
<path d="M18.19 12.4502H18.06C15.96 12.4502 14.25 14.1602 14.25 16.2602V18.1402C14.25 20.2402 15.96 21.9502 18.06 21.9502H18.19C20.29 21.9502 22 20.2402 22 18.1402V16.2602C22 14.1602 20.29 12.4502 18.19 12.4502Z" fill="#292D32"/>
</svg>
