<svg width="24" height="24" viewBox="0 0 24 24" fill="none" xmlns="http://www.w3.org/2000/svg">
<path d="M16 12.6899V18.0799C16 20.4199 14.44 21.9699 12.11 21.9699H5.89C3.56 21.9699 2 20.4199 2 18.0799V10.3099C2 7.96992 3.56 6.41992 5.89 6.41992H9.72C10.75 6.41992 11.74 6.82992 12.47 7.55992L14.86 9.93992C15.59 10.6699 16 11.6599 16 12.6899Z" fill="#292D32"/>
<path d="M21.9995 8.25021V13.6402C21.9995 15.9702 20.4395 17.5302 18.1095 17.5302H16.9995V12.6902C16.9995 11.4002 16.4795 10.1402 15.5695 9.23021L13.1795 6.85021C12.2695 5.94021 11.0095 5.42021 9.71953 5.42021H8.01953C8.19953 3.34021 9.70953 1.97021 11.8895 1.97021H15.7195C16.7495 1.97021 17.7395 2.38021 18.4695 3.11021L20.8595 5.50021C21.5895 6.23021 21.9995 7.22021 21.9995 8.25021Z" fill="#292D32"/>
</svg>
