<svg width="976" height="598" viewBox="0 0 976 598" fill="none" xmlns="http://www.w3.org/2000/svg">
<g filter="url(#filter0_d_1543_4886)">
<rect x="48" y="44" width="880" height="502" rx="24" fill="white"/>
<line x1="156.5" y1="193.5" x2="819.5" y2="193.5" stroke="#E6EAEE" stroke-linecap="round" stroke-linejoin="round"/>
<path d="M178.336 159.32C177.205 160.685 175.872 161.731 174.336 162.456C172.8 163.16 171.083 163.512 169.184 163.512C167.477 163.512 165.888 163.203 164.416 162.584C162.965 161.965 161.707 161.123 160.64 160.056C159.573 158.989 158.731 157.731 158.112 156.28C157.493 154.808 157.184 153.229 157.184 151.544C157.184 149.859 157.493 148.291 158.112 146.84C158.731 145.368 159.573 144.099 160.64 143.032C161.707 141.965 162.965 141.123 164.416 140.504C165.888 139.885 167.477 139.576 169.184 139.576C171.019 139.576 172.629 139.896 174.016 140.536C175.424 141.176 176.672 142.104 177.76 143.32L174.72 146.264C174.037 145.475 173.248 144.845 172.352 144.376C171.477 143.907 170.432 143.672 169.216 143.672C168.149 143.672 167.147 143.864 166.208 144.248C165.269 144.611 164.448 145.133 163.744 145.816C163.061 146.499 162.517 147.331 162.112 148.312C161.707 149.272 161.504 150.349 161.504 151.544C161.504 152.739 161.707 153.827 162.112 154.808C162.517 155.768 163.061 156.589 163.744 157.272C164.448 157.955 165.269 158.488 166.208 158.872C167.147 159.235 168.149 159.416 169.216 159.416C170.496 159.416 171.627 159.16 172.608 158.648C173.611 158.115 174.496 157.368 175.264 156.408L178.336 159.32ZM188.091 146.808C189.307 146.808 190.416 147.021 191.419 147.448C192.443 147.853 193.318 148.429 194.043 149.176C194.79 149.901 195.366 150.776 195.771 151.8C196.198 152.824 196.411 153.944 196.411 155.16C196.411 156.376 196.198 157.496 195.771 158.52C195.366 159.544 194.79 160.429 194.043 161.176C193.318 161.901 192.443 162.477 191.419 162.904C190.416 163.309 189.307 163.512 188.091 163.512C186.875 163.512 185.755 163.309 184.731 162.904C183.728 162.477 182.854 161.901 182.107 161.176C181.382 160.429 180.806 159.544 180.379 158.52C179.974 157.496 179.771 156.376 179.771 155.16C179.771 153.944 179.974 152.824 180.379 151.8C180.806 150.776 181.382 149.901 182.107 149.176C182.854 148.429 183.728 147.853 184.731 147.448C185.755 147.021 186.875 146.808 188.091 146.808ZM188.091 159.64C188.624 159.64 189.136 159.544 189.627 159.352C190.139 159.139 190.587 158.84 190.971 158.456C191.355 158.072 191.654 157.603 191.867 157.048C192.102 156.493 192.219 155.864 192.219 155.16C192.219 154.456 192.102 153.827 191.867 153.272C191.654 152.717 191.355 152.248 190.971 151.864C190.587 151.48 190.139 151.192 189.627 151C189.136 150.787 188.624 150.68 188.091 150.68C187.536 150.68 187.014 150.787 186.523 151C186.032 151.192 185.595 151.48 185.211 151.864C184.827 152.248 184.518 152.717 184.283 153.272C184.07 153.827 183.963 154.456 183.963 155.16C183.963 155.864 184.07 156.493 184.283 157.048C184.518 157.603 184.827 158.072 185.211 158.456C185.595 158.84 186.032 159.139 186.523 159.352C187.014 159.544 187.536 159.64 188.091 159.64ZM202.728 149.368H202.984C203.475 148.579 204.136 147.96 204.968 147.512C205.8 147.043 206.749 146.808 207.816 146.808C208.797 146.808 209.661 146.968 210.408 147.288C211.155 147.608 211.763 148.067 212.232 148.664C212.723 149.24 213.085 149.944 213.32 150.776C213.576 151.587 213.704 152.493 213.704 153.496V163H209.512V154.008C209.512 152.877 209.256 152.045 208.744 151.512C208.253 150.957 207.528 150.68 206.568 150.68C205.992 150.68 205.48 150.808 205.032 151.064C204.605 151.299 204.232 151.629 203.912 152.056C203.613 152.461 203.379 152.952 203.208 153.528C203.059 154.083 202.984 154.68 202.984 155.32V163H198.792V147.32H202.728V149.368ZM218.083 150.904H215.331V147.32H218.083V142.52H222.275V147.32H226.115V150.904H222.275V156.984C222.275 157.347 222.307 157.688 222.371 158.008C222.456 158.307 222.605 158.563 222.819 158.776C223.117 159.117 223.544 159.288 224.099 159.288C224.461 159.288 224.749 159.256 224.963 159.192C225.176 159.107 225.379 159 225.571 158.872L226.755 162.552C226.264 162.787 225.731 162.957 225.155 163.064C224.6 163.192 223.981 163.256 223.299 163.256C222.509 163.256 221.795 163.139 221.155 162.904C220.536 162.648 220.013 162.307 219.587 161.88C218.584 160.92 218.083 159.555 218.083 157.784V150.904ZM243.89 159.224C243.165 160.504 242.183 161.539 240.946 162.328C239.73 163.117 238.237 163.512 236.466 163.512C235.271 163.512 234.162 163.309 233.138 162.904C232.135 162.477 231.261 161.891 230.514 161.144C229.767 160.397 229.181 159.523 228.754 158.52C228.349 157.496 228.146 156.376 228.146 155.16C228.146 154.029 228.349 152.963 228.754 151.96C229.159 150.936 229.725 150.051 230.45 149.304C231.175 148.536 232.029 147.928 233.01 147.48C234.013 147.032 235.111 146.808 236.306 146.808C237.565 146.808 238.685 147.021 239.666 147.448C240.647 147.853 241.469 148.429 242.13 149.176C242.791 149.901 243.293 150.765 243.634 151.768C243.975 152.771 244.146 153.859 244.146 155.032C244.146 155.181 244.146 155.309 244.146 155.416C244.125 155.544 244.114 155.661 244.114 155.768C244.093 155.875 244.082 155.992 244.082 156.12H232.274C232.359 156.76 232.53 157.315 232.786 157.784C233.063 158.232 233.394 158.616 233.778 158.936C234.183 159.235 234.621 159.459 235.09 159.608C235.559 159.736 236.039 159.8 236.53 159.8C237.49 159.8 238.279 159.587 238.898 159.16C239.538 158.712 240.039 158.157 240.402 157.496L243.89 159.224ZM240.082 153.144C240.061 152.867 239.965 152.557 239.794 152.216C239.645 151.875 239.41 151.555 239.09 151.256C238.791 150.957 238.407 150.712 237.938 150.52C237.49 150.328 236.946 150.232 236.306 150.232C235.41 150.232 234.621 150.488 233.938 151C233.255 151.512 232.775 152.227 232.498 153.144H240.082ZM250.759 149.368H251.015C251.506 148.579 252.167 147.96 252.999 147.512C253.831 147.043 254.781 146.808 255.847 146.808C256.829 146.808 257.693 146.968 258.439 147.288C259.186 147.608 259.794 148.067 260.263 148.664C260.754 149.24 261.117 149.944 261.351 150.776C261.607 151.587 261.735 152.493 261.735 153.496V163H257.543V154.008C257.543 152.877 257.287 152.045 256.775 151.512C256.285 150.957 255.559 150.68 254.599 150.68C254.023 150.68 253.511 150.808 253.063 151.064C252.637 151.299 252.263 151.629 251.943 152.056C251.645 152.461 251.41 152.952 251.239 153.528C251.09 154.083 251.015 154.68 251.015 155.32V163H246.823V147.32H250.759V149.368ZM266.114 150.904H263.362V147.32H266.114V142.52H270.306V147.32H274.146V150.904H270.306V156.984C270.306 157.347 270.338 157.688 270.402 158.008C270.487 158.307 270.636 158.563 270.85 158.776C271.148 159.117 271.575 159.288 272.13 159.288C272.492 159.288 272.78 159.256 272.994 159.192C273.207 159.107 273.41 159 273.602 158.872L274.786 162.552C274.295 162.787 273.762 162.957 273.186 163.064C272.631 163.192 272.012 163.256 271.33 163.256C270.54 163.256 269.826 163.139 269.186 162.904C268.567 162.648 268.044 162.307 267.618 161.88C266.615 160.92 266.114 159.555 266.114 157.784V150.904ZM276.846 165.848L278.734 162.936C278.264 162.765 277.859 162.456 277.518 162.008C277.198 161.56 277.038 161.027 277.038 160.408C277.038 159.64 277.304 158.989 277.838 158.456C278.392 157.923 279.054 157.656 279.822 157.656C280.59 157.656 281.24 157.923 281.774 158.456C282.307 158.989 282.574 159.64 282.574 160.408C282.574 160.813 282.51 161.176 282.382 161.496C282.254 161.795 282.051 162.147 281.774 162.552L278.734 167.096L276.846 165.848ZM297.78 144.184V149.496H306.964V153.592H297.78V158.904H307.988V163H293.46V140.088H307.988V144.184H297.78ZM322.503 161.112H322.247C321.863 161.773 321.266 162.339 320.455 162.808C319.645 163.277 318.642 163.512 317.447 163.512C316.445 163.512 315.485 163.309 314.567 162.904C313.671 162.477 312.871 161.901 312.167 161.176C311.485 160.429 310.941 159.544 310.535 158.52C310.13 157.496 309.927 156.376 309.927 155.16C309.927 153.944 310.13 152.824 310.535 151.8C310.941 150.776 311.485 149.901 312.167 149.176C312.871 148.429 313.671 147.853 314.567 147.448C315.485 147.021 316.445 146.808 317.447 146.808C318.642 146.808 319.645 147.043 320.455 147.512C321.266 147.981 321.863 148.547 322.247 149.208H322.503L322.247 146.968V140.088H326.439V163H322.503V161.112ZM318.311 159.64C318.866 159.64 319.389 159.544 319.879 159.352C320.391 159.139 320.839 158.84 321.223 158.456C321.607 158.072 321.917 157.603 322.151 157.048C322.386 156.493 322.503 155.864 322.503 155.16C322.503 154.456 322.386 153.827 322.151 153.272C321.917 152.717 321.607 152.248 321.223 151.864C320.839 151.48 320.391 151.192 319.879 151C319.389 150.787 318.866 150.68 318.311 150.68C317.757 150.68 317.223 150.787 316.711 151C316.221 151.213 315.783 151.512 315.399 151.896C315.015 152.28 314.706 152.749 314.471 153.304C314.237 153.859 314.119 154.477 314.119 155.16C314.119 155.843 314.237 156.461 314.471 157.016C314.706 157.571 315.015 158.04 315.399 158.424C315.783 158.808 316.221 159.107 316.711 159.32C317.223 159.533 317.757 159.64 318.311 159.64ZM332.347 145.048C331.984 145.048 331.632 144.984 331.291 144.856C330.971 144.707 330.683 144.515 330.427 144.28C330.192 144.024 330 143.736 329.851 143.416C329.723 143.096 329.659 142.744 329.659 142.36C329.659 141.976 329.723 141.624 329.851 141.304C330 140.984 330.192 140.707 330.427 140.472C330.683 140.216 330.971 140.024 331.291 139.896C331.632 139.747 331.984 139.672 332.347 139.672C333.093 139.672 333.733 139.939 334.267 140.472C334.8 140.984 335.067 141.613 335.067 142.36C335.067 143.107 334.8 143.747 334.267 144.28C333.733 144.792 333.093 145.048 332.347 145.048ZM330.267 163V147.32H334.459V163H330.267ZM339.864 150.904H337.112V147.32H339.864V142.52H344.056V147.32H347.896V150.904H344.056V156.984C344.056 157.347 344.088 157.688 344.152 158.008C344.237 158.307 344.386 158.563 344.6 158.776C344.898 159.117 345.325 159.288 345.88 159.288C346.242 159.288 346.53 159.256 346.744 159.192C346.957 159.107 347.16 159 347.352 158.872L348.536 162.552C348.045 162.787 347.512 162.957 346.936 163.064C346.381 163.192 345.762 163.256 345.08 163.256C344.29 163.256 343.576 163.139 342.936 162.904C342.317 162.648 341.794 162.307 341.368 161.88C340.365 160.92 339.864 159.555 339.864 157.784V150.904Z" fill="#292D32"/>
<line x1="366.5" y1="141.5" x2="366.5" y2="162.5" stroke="#E6EAEE"/>
<path d="M383.152 146.544H387.632C388.123 146.544 388.581 146.624 389.008 146.784C389.435 146.933 389.803 147.147 390.112 147.424C390.432 147.691 390.683 148.005 390.864 148.368C391.045 148.731 391.136 149.12 391.136 149.536C391.136 150.144 390.987 150.656 390.688 151.072C390.4 151.477 390.037 151.787 389.6 152V152.128C390.187 152.341 390.656 152.677 391.008 153.136C391.371 153.584 391.552 154.144 391.552 154.816C391.552 155.307 391.451 155.749 391.248 156.144C391.056 156.528 390.789 156.859 390.448 157.136C390.107 157.413 389.707 157.627 389.248 157.776C388.8 157.925 388.315 158 387.792 158H383.152V146.544ZM387.472 151.216C387.973 151.216 388.357 151.083 388.624 150.816C388.901 150.539 389.04 150.213 389.04 149.84C389.04 149.467 388.907 149.147 388.64 148.88C388.373 148.613 388.005 148.48 387.536 148.48H385.312V151.216H387.472ZM387.712 156.016C388.256 156.016 388.672 155.883 388.96 155.616C389.248 155.339 389.392 154.987 389.392 154.56C389.392 154.133 389.243 153.781 388.944 153.504C388.656 153.216 388.224 153.072 387.648 153.072H385.312V156.016H387.712ZM396.671 149.904C397.279 149.904 397.833 150.011 398.335 150.224C398.847 150.427 399.284 150.715 399.647 151.088C400.02 151.451 400.308 151.888 400.51 152.4C400.724 152.912 400.831 153.472 400.831 154.08C400.831 154.688 400.724 155.248 400.51 155.76C400.308 156.272 400.02 156.715 399.647 157.088C399.284 157.451 398.847 157.739 398.335 157.952C397.833 158.155 397.279 158.256 396.671 158.256C396.063 158.256 395.503 158.155 394.991 157.952C394.489 157.739 394.052 157.451 393.679 157.088C393.316 156.715 393.028 156.272 392.815 155.76C392.612 155.248 392.511 154.688 392.511 154.08C392.511 153.472 392.612 152.912 392.815 152.4C393.028 151.888 393.316 151.451 393.679 151.088C394.052 150.715 394.489 150.427 394.991 150.224C395.503 150.011 396.063 149.904 396.671 149.904ZM396.671 156.32C396.937 156.32 397.193 156.272 397.439 156.176C397.695 156.069 397.919 155.92 398.111 155.728C398.303 155.536 398.452 155.301 398.559 155.024C398.676 154.747 398.735 154.432 398.735 154.08C398.735 153.728 398.676 153.413 398.559 153.136C398.452 152.859 398.303 152.624 398.111 152.432C397.919 152.24 397.695 152.096 397.439 152C397.193 151.893 396.937 151.84 396.671 151.84C396.393 151.84 396.132 151.893 395.887 152C395.641 152.096 395.423 152.24 395.231 152.432C395.039 152.624 394.884 152.859 394.767 153.136C394.66 153.413 394.607 153.728 394.607 154.08C394.607 154.432 394.66 154.747 394.767 155.024C394.884 155.301 395.039 155.536 395.231 155.728C395.423 155.92 395.641 156.069 395.887 156.176C396.132 156.272 396.393 156.32 396.671 156.32ZM402.099 158V146.544H404.195V158H402.099ZM411.752 157.056H411.624C411.432 157.387 411.133 157.669 410.728 157.904C410.322 158.139 409.821 158.256 409.224 158.256C408.722 158.256 408.242 158.155 407.784 157.952C407.336 157.739 406.936 157.451 406.584 157.088C406.242 156.715 405.97 156.272 405.768 155.76C405.565 155.248 405.464 154.688 405.464 154.08C405.464 153.472 405.565 152.912 405.768 152.4C405.97 151.888 406.242 151.451 406.584 151.088C406.936 150.715 407.336 150.427 407.784 150.224C408.242 150.011 408.722 149.904 409.224 149.904C409.821 149.904 410.322 150.021 410.728 150.256C411.133 150.491 411.432 150.773 411.624 151.104H411.752L411.624 149.984V146.544H413.72V158H411.752V157.056ZM409.656 156.32C409.933 156.32 410.194 156.272 410.44 156.176C410.696 156.069 410.92 155.92 411.112 155.728C411.304 155.536 411.458 155.301 411.576 155.024C411.693 154.747 411.752 154.432 411.752 154.08C411.752 153.728 411.693 153.413 411.576 153.136C411.458 152.859 411.304 152.624 411.112 152.432C410.92 152.24 410.696 152.096 410.44 152C410.194 151.893 409.933 151.84 409.656 151.84C409.378 151.84 409.112 151.893 408.856 152C408.61 152.107 408.392 152.256 408.2 152.448C408.008 152.64 407.853 152.875 407.736 153.152C407.618 153.429 407.56 153.739 407.56 154.08C407.56 154.421 407.618 154.731 407.736 155.008C407.853 155.285 408.008 155.52 408.2 155.712C408.392 155.904 408.61 156.053 408.856 156.16C409.112 156.267 409.378 156.32 409.656 156.32Z" fill="#292D32"/>
<path d="M808 298C802.48 298 798 302.48 798 308C798 313.52 802.48 318 808 318C813.52 318 818 313.52 818 308C818 302.48 813.52 298 808 298ZM808.24 311.25C809.02 311.25 809.79 310.96 810.38 310.44C810.69 310.17 811.17 310.2 811.44 310.51C811.71 310.82 811.68 311.3 811.37 311.57C810.5 312.34 809.39 312.76 808.24 312.76C805.62 312.76 803.49 310.63 803.49 308.01C803.49 305.39 805.62 303.26 808.24 303.26C809.39 303.26 810.51 303.68 811.37 304.45C811.68 304.72 811.71 305.2 811.44 305.51C811.16 305.82 810.69 305.85 810.38 305.58C809.79 305.06 809.03 304.77 808.24 304.77C806.45 304.77 804.99 306.23 804.99 308.02C804.99 309.81 806.45 311.25 808.24 311.25Z" fill="#292D32"/>
<path d="M555.19 362H546.81C543.17 362 541 364.17 541 367.81V376.19C541 379.83 543.17 382 546.81 382H555.19C558.83 382 561 379.83 561 376.19V367.81C561 364.17 558.83 362 555.19 362ZM548.97 374.9L546.72 377.15C546.57 377.3 546.38 377.37 546.19 377.37C546 377.37 545.8 377.3 545.66 377.15L544.91 376.4C544.61 376.11 544.61 375.63 544.91 375.34C545.2 375.05 545.67 375.05 545.97 375.34L546.19 375.56L547.91 373.84C548.2 373.55 548.67 373.55 548.97 373.84C549.26 374.13 549.26 374.61 548.97 374.9ZM548.97 367.9L546.72 370.15C546.57 370.3 546.38 370.37 546.19 370.37C546 370.37 545.8 370.3 545.66 370.15L544.91 369.4C544.61 369.11 544.61 368.63 544.91 368.34C545.2 368.05 545.67 368.05 545.97 368.34L546.19 368.56L547.91 366.84C548.2 366.55 548.67 366.55 548.97 366.84C549.26 367.13 549.26 367.61 548.97 367.9ZM556.56 376.62H551.31C550.9 376.62 550.56 376.28 550.56 375.87C550.56 375.46 550.9 375.12 551.31 375.12H556.56C556.98 375.12 557.31 375.46 557.31 375.87C557.31 376.28 556.98 376.62 556.56 376.62ZM556.56 369.62H551.31C550.9 369.62 550.56 369.28 550.56 368.87C550.56 368.46 550.9 368.12 551.31 368.12H556.56C556.98 368.12 557.31 368.46 557.31 368.87C557.31 369.28 556.98 369.62 556.56 369.62Z" fill="#292D32"/>
<path d="M168 362C162.48 362 158 366.48 158 372C158 377.52 162.48 382 168 382C173.52 382 178 377.52 178 372C178 366.48 173.52 362 168 362ZM164.99 374.12C165.5 374.12 166 373.93 166.39 373.59C166.7 373.32 167.18 373.35 167.45 373.66C167.72 373.97 167.69 374.45 167.38 374.72C166.72 375.3 165.87 375.62 164.99 375.62C162.99 375.62 161.37 374 161.37 372C161.37 370 162.99 368.38 164.99 368.38C165.87 368.38 166.71 368.7 167.38 369.28C167.69 369.55 167.72 370.03 167.45 370.34C167.18 370.65 166.7 370.68 166.39 370.41C166 370.07 165.5 369.88 164.99 369.88C163.82 369.88 162.87 370.83 162.87 372C162.87 373.17 163.82 374.12 164.99 374.12ZM171.99 374.12C172.5 374.12 173 373.93 173.39 373.59C173.7 373.32 174.18 373.35 174.45 373.66C174.72 373.97 174.69 374.45 174.38 374.72C173.72 375.3 172.87 375.62 171.99 375.62C169.99 375.62 168.37 374 168.37 372C168.37 370 169.99 368.38 171.99 368.38C172.87 368.38 173.71 368.7 174.38 369.28C174.69 369.55 174.72 370.03 174.45 370.34C174.18 370.65 173.7 370.68 173.39 370.41C173 370.07 172.51 369.88 171.99 369.88C170.82 369.88 169.87 370.83 169.87 372C169.87 373.17 170.82 374.12 171.99 374.12Z" fill="#292D32"/>
<path d="M626 363.25H606C605.59 363.25 605.25 362.91 605.25 362.5C605.25 362.09 605.59 361.75 606 361.75H626C626.41 361.75 626.75 362.09 626.75 362.5C626.75 362.91 626.41 363.25 626 363.25Z" fill="#292D32"/>
<path d="M607.67 362.5V374.47C607.67 375.45 608.13 376.38 608.92 376.97L614.13 380.87C615.24 381.7 616.77 381.7 617.88 380.87L623.09 376.97C623.88 376.38 624.34 375.45 624.34 374.47V362.5H607.67ZM620 373.75H612C611.59 373.75 611.25 373.41 611.25 373C611.25 372.59 611.59 372.25 612 372.25H620C620.41 372.25 620.75 372.59 620.75 373C620.75 373.41 620.41 373.75 620 373.75ZM620 368.75H612C611.59 368.75 611.25 368.41 611.25 368C611.25 367.59 611.59 367.25 612 367.25H620C620.41 367.25 620.75 367.59 620.75 368C620.75 368.41 620.41 368.75 620 368.75Z" fill="#292D32"/>
<path d="M671.23 361H679.36C680.04 361 680.59 361.56 680.59 362.25V363.62C680.59 364.12 680.28 364.74 679.97 365.05L677.33 367.43C676.96 367.74 676.72 368.36 676.72 368.86V371.54C676.72 371.91 676.47 372.41 676.17 372.6L675.3 373.17C674.5 373.67 673.39 373.11 673.39 372.11V368.8C673.39 368.36 673.14 367.8 672.9 367.49L670.56 364.99C670.25 364.68 670 364.12 670 363.75V362.31C670 361.56 670.55 361 671.23 361Z" fill="#292D32"/>
<path d="M685 362H682.6C682.32 362 682.1 362.22 682.1 362.5C682.1 362.98 682.1 363.62 682.1 363.62C682.1 364.61 681.57 365.58 681.05 366.11L678.33 368.54C678.3 368.61 678.25 368.71 678.22 368.79V371.54C678.22 372.45 677.68 373.44 676.94 373.89L676.12 374.42C675.66 374.71 675.15 374.85 674.64 374.85C674.18 374.85 673.72 374.73 673.3 374.5C672.783 374.213 672.392 373.781 672.153 373.274C672.031 373.014 672 372.725 672 372.438V370.21C672 370.08 671.95 369.95 671.85 369.86L670.85 368.86C670.54 368.54 670 368.76 670 369.21V377C670 379.76 672.24 382 675 382H685C687.76 382 690 379.76 690 377V367C690 364.24 687.76 362 685 362ZM686 377.75H679C678.59 377.75 678.25 377.41 678.25 377C678.25 376.59 678.59 376.25 679 376.25H686C686.41 376.25 686.75 376.59 686.75 377C686.75 377.41 686.41 377.75 686 377.75ZM686 373.75H681C680.59 373.75 680.25 373.41 680.25 373C680.25 372.59 680.59 372.25 681 372.25H686C686.41 372.25 686.75 372.59 686.75 373C686.75 373.41 686.41 373.75 686 373.75Z" fill="#292D32"/>
<path d="M746.93 362.5V368.4C746.93 368.84 746.41 369.06 746.09 368.77L744.34 367.16C744.15 366.98 743.85 366.98 743.66 367.16L741.91 368.76C741.59 369.06 741.07 368.83 741.07 368.4V362.5C741.07 362.22 741.29 362 741.57 362H746.43C746.71 362 746.93 362.22 746.93 362.5Z" fill="#292D32"/>
<path d="M748.98 362.06C748.69 362.02 748.43 362.27 748.43 362.56V368.58C748.43 369.34 747.98 370.03 747.28 370.34C746.58 370.64 745.77 370.51 745.21 369.99L744.34 369.19C744.15 369.01 743.86 369.01 743.66 369.19L742.79 369.99C742.43 370.33 741.96 370.5 741.49 370.5C741.23 370.5 740.97 370.45 740.72 370.34C740.02 370.03 739.57 369.34 739.57 368.58V362.56C739.57 362.27 739.31 362.02 739.02 362.06C736.22 362.41 735 364.3 735 367V377C735 380 736.5 382 740 382H748C751.5 382 753 380 753 377V367C753 364.3 751.78 362.41 748.98 362.06ZM749.5 378.75H741C740.59 378.75 740.25 378.41 740.25 378C740.25 377.59 740.59 377.25 741 377.25H749.5C749.91 377.25 750.25 377.59 750.25 378C750.25 378.41 749.91 378.75 749.5 378.75ZM749.5 374.75H745.25C744.84 374.75 744.5 374.41 744.5 374C744.5 373.59 744.84 373.25 745.25 373.25H749.5C749.91 373.25 750.25 373.59 750.25 374C750.25 374.41 749.91 374.75 749.5 374.75Z" fill="#292D32"/>
<path d="M804.75 363.5V362C804.75 361.59 804.41 361.25 804 361.25C803.59 361.25 803.25 361.59 803.25 362V363.56C803.5 363.53 803.73 363.5 804 363.5H804.75Z" fill="#292D32"/>
<path d="M812.75 363.56V362C812.75 361.59 812.41 361.25 812 361.25C811.59 361.25 811.25 361.59 811.25 362V363.5H812C812.27 363.5 812.5 363.53 812.75 363.56Z" fill="#292D32"/>
<path d="M812.75 363.56V365C812.75 365.41 812.41 365.75 812 365.75C811.59 365.75 811.25 365.41 811.25 365V363.5H804.75V365C804.75 365.41 804.41 365.75 804 365.75C803.59 365.75 803.25 365.41 803.25 365V363.56C800.3 363.83 799 365.73 799 368.5V377C799 380 800.5 382 804 382H812C815.5 382 817 380 817 377V368.5C817 365.73 815.7 363.83 812.75 363.56ZM808 376.75H804C803.59 376.75 803.25 376.41 803.25 376C803.25 375.59 803.59 375.25 804 375.25H808C808.41 375.25 808.75 375.59 808.75 376C808.75 376.41 808.41 376.75 808 376.75ZM812 371.75H804C803.59 371.75 803.25 371.41 803.25 371C803.25 370.59 803.59 370.25 804 370.25H812C812.41 370.25 812.75 370.59 812.75 371C812.75 371.41 812.41 371.75 812 371.75Z" fill="#292D32"/>
<path d="M163.75 427.5V426C163.75 425.59 163.41 425.25 163 425.25C162.59 425.25 162.25 425.59 162.25 426V427.56C162.5 427.53 162.73 427.5 163 427.5H163.75Z" fill="#292D32"/>
<path d="M171.75 427.56V426C171.75 425.59 171.41 425.25 171 425.25C170.59 425.25 170.25 425.59 170.25 426V427.5H171C171.27 427.5 171.5 427.53 171.75 427.56Z" fill="#292D32"/>
<path d="M177.29 438.97C176.52 438.36 175.55 438 174.5 438C173.45 438 172.46 438.37 171.69 438.99C170.65 439.81 170 441.09 170 442.5C170 443.34 170.24 444.15 170.65 444.81C170.97 445.33 171.38 445.79 171.87 446.14C172.61 446.68 173.51 447 174.5 447C175.64 447 176.67 446.58 177.46 445.88C177.81 445.59 178.11 445.23 178.35 444.82C178.76 444.15 179 443.34 179 442.5C179 441.07 178.33 439.79 177.29 438.97ZM174.5 444.64C174.5 443.46 173.54 442.5 172.36 442.5C173.54 442.5 174.5 441.54 174.5 440.36C174.5 441.54 175.46 442.5 176.64 442.5C175.46 442.5 174.5 443.46 174.5 444.64Z" fill="#292D32"/>
<path d="M171.75 427.56V429C171.75 429.41 171.41 429.75 171 429.75C170.59 429.75 170.25 429.41 170.25 429V427.5H163.75V429C163.75 429.41 163.41 429.75 163 429.75C162.59 429.75 162.25 429.41 162.25 429V427.56C159.3 427.83 158 429.73 158 432.5V441C158 444 159.5 446 163 446H167.13C167.89 446 168.4 445.15 168.21 444.41C168.07 443.87 168 443.31 168 442.75C168 440.67 168.93 438.75 170.54 437.48C171.71 436.53 173.21 436 174.75 436H174.79C175.42 436 176 435.54 176 434.91V432.5C176 429.73 174.7 427.83 171.75 427.56ZM165 440.75H163C162.59 440.75 162.25 440.41 162.25 440C162.25 439.59 162.59 439.25 163 439.25H165C165.41 439.25 165.75 439.59 165.75 440C165.75 440.41 165.41 440.75 165 440.75ZM168 435.75H163C162.59 435.75 162.25 435.41 162.25 435C162.25 434.59 162.59 434.25 163 434.25H168C168.41 434.25 168.75 434.59 168.75 435C168.75 435.41 168.41 435.75 168 435.75Z" fill="#292D32"/>
<path d="M240.9 433.85L241.49 443.74C241.51 444.01 241.38 444.19 241.31 444.27C241.23 444.36 241.06 444.5 240.78 444.5H238.05L240.21 433.85H240.9ZM242 430L241.99 430.02C242.01 430.26 241.99 430.51 241.93 430.76L234.56 444.29C234.32 445.3 233.42 446 232.38 446H240.78C242.07 446 243.09 444.91 242.99 443.62L242 430Z" fill="#292D32"/>
<path d="M231.45 426.24C231.55 425.84 231.3 425.43 230.9 425.33C230.5 425.24 230.09 425.48 229.99 425.88L229.49 427.95H231.03L231.45 426.24Z" fill="#292D32"/>
<path d="M238.05 426.21C238.14 425.8 237.88 425.41 237.47 425.32C237.07 425.23 236.67 425.49 236.58 425.9L236.13 427.97H237.67L238.05 426.21Z" fill="#292D32"/>
<path d="M241.82 429.33C241.49 428.53 240.71 427.96 239.75 427.96H237.67L237.11 430.55C237.03 430.9 236.72 431.14 236.38 431.14C236.33 431.14 236.27 431.14 236.22 431.12C235.82 431.03 235.56 430.63 235.64 430.23L236.13 427.95H231.03L230.4 430.55C230.32 430.89 230.01 431.12 229.67 431.12C229.61 431.12 229.55 431.11 229.49 431.1C229.09 431 228.84 430.6 228.94 430.19L229.48 427.94H227.45C226.47 427.94 225.6 428.58 225.31 429.52L221.1 443.07C220.66 444.52 221.73 446 223.24 446H236.38C237.42 446 238.32 445.3 238.56 444.29L241.93 430.76C241.99 430.51 242.01 430.26 241.99 430.02C241.97 429.78 241.92 429.54 241.82 429.33ZM234.7 440.75H226.7C226.29 440.75 225.95 440.41 225.95 440C225.95 439.59 226.29 439.25 226.7 439.25H234.7C235.11 439.25 235.45 439.59 235.45 440C235.45 440.41 235.11 440.75 234.7 440.75ZM235.7 436.75H227.7C227.29 436.75 226.95 436.41 226.95 436C226.95 435.59 227.29 435.25 227.7 435.25H235.7C236.11 435.25 236.45 435.59 236.45 436C236.45 436.41 236.11 436.75 235.7 436.75Z" fill="#292D32"/>
<path d="M288.97 361H286.03C284.76 361 284 361.76 284 363.03V365.97C284 367.24 284.76 368 286.03 368H288.97C290.24 368 291 367.24 291 365.97V363.03C291 361.76 290.24 361 288.97 361ZM289.47 365.56C289.72 365.81 289.72 366.22 289.47 366.47C289.34 366.59 289.17 366.65 289.01 366.65C288.85 366.65 288.69 366.59 288.56 366.47L287.49 365.41L286.45 366.47C286.32 366.59 286.16 366.65 285.98 366.65C285.82 366.65 285.66 366.59 285.53 366.47C285.28 366.22 285.28 365.81 285.53 365.56L286.6 364.5L285.54 363.45C285.29 363.2 285.29 362.79 285.54 362.54C285.79 362.29 286.2 362.29 286.45 362.54L287.49 363.6L288.55 362.54C288.8 362.29 289.21 362.29 289.46 362.54C289.71 362.79 289.71 363.2 289.46 363.45L288.41 364.5L289.47 365.56Z" fill="#292D32"/>
<path d="M304.5 375.82C304.5 375.97 304.45 376.12 304.32 376.25C302.87 377.71 300.29 380.31 298.81 381.8C298.68 381.94 298.51 382 298.34 382C298.01 382 297.69 381.74 297.69 381.36V377.86C297.69 376.4 298.93 375.19 300.45 375.19C301.4 375.18 302.72 375.18 303.85 375.18C304.24 375.18 304.5 375.49 304.5 375.82Z" fill="#292D32"/>
<path d="M304.5 375.82C304.5 375.97 304.45 376.12 304.32 376.25C302.87 377.71 300.29 380.31 298.81 381.8C298.68 381.94 298.51 382 298.34 382C298.01 382 297.69 381.74 297.69 381.36V377.86C297.69 376.4 298.93 375.19 300.45 375.19C301.4 375.18 302.72 375.18 303.85 375.18C304.24 375.18 304.5 375.49 304.5 375.82Z" fill="#292D32"/>
<path d="M299.63 362H293.5C292.95 362 292.5 362.45 292.5 363V366.5C292.5 368.16 291.16 369.5 289.5 369.5H286.5C285.95 369.5 285.5 369.95 285.5 370.5V377.13C285.5 379.82 287.68 382 290.37 382H295.19C295.74 382 296.19 381.55 296.19 381V377.86C296.19 375.56 298.1 373.69 300.45 373.69C300.98 373.68 302.27 373.68 303.5 373.68C304.05 373.68 304.5 373.24 304.5 372.68V366.87C304.5 364.18 302.32 362 299.63 362ZM291.72 377.01H289.08C288.67 377.01 288.33 376.67 288.33 376.26C288.33 375.84 288.67 375.5 289.08 375.5H291.72C292.15 375.5 292.47 375.84 292.47 376.26C292.47 376.67 292.15 377.01 291.72 377.01ZM294.51 373.3H289.08C288.67 373.3 288.33 372.96 288.33 372.55C288.33 372.13 288.67 371.79 289.08 371.79H294.51C294.92 371.79 295.27 372.13 295.27 372.55C295.27 372.96 294.92 373.3 294.51 373.3Z" fill="#292D32"/>
<path d="M495 379.26H485.93C485.48 379.26 485.11 378.89 485.11 378.44C485.11 377.99 485.48 377.62 485.93 377.62H495C495.45 377.62 495.82 377.99 495.82 378.44C495.82 378.9 495.45 379.26 495 379.26Z" fill="#292D32"/>
<path d="M495 372.97H485.93C485.48 372.97 485.11 372.6 485.11 372.15C485.11 371.7 485.48 371.33 485.93 371.33H495C495.45 371.33 495.82 371.7 495.82 372.15C495.82 372.6 495.45 372.97 495 372.97Z" fill="#292D32"/>
<path d="M495 366.67H485.93C485.48 366.67 485.11 366.3 485.11 365.85C485.11 365.4 485.48 365.03 485.93 365.03H495C495.45 365.03 495.82 365.4 495.82 365.85C495.82 366.3 495.45 366.67 495 366.67Z" fill="#292D32"/>
<path d="M479.91 368.03C479.69 368.03 479.48 367.94 479.33 367.79L478.42 366.88C478.1 366.56 478.1 366.04 478.42 365.72C478.74 365.4 479.26 365.4 479.58 365.72L479.91 366.05L482.05 363.91C482.37 363.59 482.89 363.59 483.21 363.91C483.53 364.23 483.53 364.75 483.21 365.07L480.49 367.79C480.33 367.94 480.13 368.03 479.91 368.03Z" fill="#292D32"/>
<path d="M479.91 374.33C479.7 374.33 479.49 374.25 479.33 374.09L478.42 373.18C478.1 372.86 478.1 372.34 478.42 372.02C478.74 371.7 479.26 371.7 479.58 372.02L479.91 372.35L482.05 370.21C482.37 369.89 482.89 369.89 483.21 370.21C483.53 370.53 483.53 371.05 483.21 371.37L480.49 374.09C480.33 374.25 480.12 374.33 479.91 374.33Z" fill="#292D32"/>
<path d="M479.91 380.33C479.7 380.33 479.49 380.25 479.33 380.09L478.42 379.18C478.1 378.86 478.1 378.34 478.42 378.02C478.74 377.7 479.26 377.7 479.58 378.02L479.91 378.35L482.05 376.21C482.37 375.89 482.89 375.89 483.21 376.21C483.53 376.53 483.53 377.05 483.21 377.37L480.49 380.09C480.33 380.25 480.12 380.33 479.91 380.33Z" fill="#292D32"/>
<path d="M355.29 366.29C354.87 366.29 354.54 365.95 354.54 365.54V362.75C354.54 362.34 354.87 362 355.29 362C355.71 362 356.04 362.34 356.04 362.75V365.53C356.04 365.95 355.71 366.29 355.29 366.29Z" fill="#292D32"/>
<path d="M362.71 366.29C362.29 366.29 361.96 365.95 361.96 365.54V362.75C361.96 362.33 362.3 362 362.71 362C363.13 362 363.46 362.34 363.46 362.75V365.53C363.46 365.95 363.13 366.29 362.71 366.29Z" fill="#292D32"/>
<path d="M368.5 375.82C368.5 375.97 368.45 376.12 368.32 376.25C366.87 377.71 364.29 380.31 362.81 381.8C362.68 381.94 362.51 382 362.34 382C362.01 382 361.69 381.74 361.69 381.36V377.86C361.69 376.4 362.93 375.19 364.45 375.19C365.4 375.18 366.72 375.18 367.85 375.18C368.24 375.18 368.5 375.49 368.5 375.82Z" fill="#292D32"/>
<path d="M368.5 375.82C368.5 375.97 368.45 376.12 368.32 376.25C366.87 377.71 364.29 380.31 362.81 381.8C362.68 381.94 362.51 382 362.34 382C362.01 382 361.69 381.74 361.69 381.36V377.86C361.69 376.4 362.93 375.19 364.45 375.19C365.4 375.18 366.72 375.18 367.85 375.18C368.24 375.18 368.5 375.49 368.5 375.82Z" fill="#292D32"/>
<path d="M366.57 364.5C365.91 364.01 364.96 364.48 364.96 365.31V365.41C364.96 366.58 364.12 367.66 362.95 367.78C361.6 367.92 360.46 366.86 360.46 365.54V364.5C360.46 363.95 360.01 363.5 359.46 363.5H358.54C357.99 363.5 357.54 363.95 357.54 364.5V365.41C357.54 366.29 357.07 367.11 356.34 367.51C356.3 367.54 356.26 367.56 356.22 367.58C356.21 367.58 356.21 367.59 356.2 367.59C356.13 367.62 356.06 367.65 355.98 367.68C355.96 367.69 355.94 367.69 355.92 367.7C355.8 367.74 355.67 367.77 355.53 367.78H355.52C355.37 367.8 355.21 367.8 355.06 367.78H355.05C354.91 367.77 354.78 367.74 354.66 367.7C354.56 367.67 354.46 367.63 354.36 367.58C353.58 367.23 353.04 366.45 353.04 365.54V365.31C353.04 364.54 352.22 364.08 351.57 364.41C351.56 364.42 351.55 364.42 351.54 364.43H351.53C351.46 364.48 351.4 364.53 351.33 364.58C351.22 364.67 351.11 364.76 351.01 364.86C350.94 364.93 350.87 365 350.81 365.07C350.73 365.15 350.66 365.23 350.59 365.32C350.54 365.38 350.48 365.44 350.44 365.51C350.39 365.57 350.35 365.64 350.31 365.7C350.3 365.71 350.29 365.72 350.28 365.74C350.19 365.87 350.11 366.02 350.04 366.16C350.02 366.18 350.01 366.19 350.01 366.21C349.95 366.33 349.89 366.45 349.85 366.58C349.82 366.63 349.81 366.67 349.79 366.72C349.77 366.76 349.76 366.81 349.74 366.85C349.71 366.95 349.68 367.06 349.65 367.17C349.61 367.31 349.58 367.46 349.56 367.61C349.54 367.72 349.53 367.83 349.52 367.95C349.51 368.09 349.5 368.23 349.5 368.37V377.13C349.5 379.82 351.68 382 354.37 382H359.19C359.74 382 360.19 381.55 360.19 381V377.86C360.19 375.56 362.1 373.69 364.45 373.69C364.98 373.68 366.27 373.68 367.5 373.68C368.05 373.68 368.5 373.23 368.5 372.68V368.37C368.5 366.78 367.74 365.39 366.57 364.5ZM358.13 375.91C358.04 376.21 357.76 376.42 357.43 376.42H353.79C353.74 376.42 353.7 376.42 353.66 376.4C353.3 376.35 353.04 376.04 353.04 375.67C353.04 375.25 353.37 374.91 353.79 374.91H357.43C357.84 374.91 358.18 375.25 358.18 375.67C358.18 375.75 358.17 375.84 358.13 375.91ZM360.91 372.2C360.82 372.5 360.54 372.71 360.21 372.71H353.79C353.74 372.71 353.7 372.71 353.66 372.69C353.3 372.64 353.04 372.33 353.04 371.96C353.04 371.54 353.37 371.2 353.79 371.2H360.21C360.63 371.2 360.96 371.54 360.96 371.96C360.96 372.04 360.95 372.13 360.91 372.2Z" fill="#292D32"/>
<path d="M228.29 366.29C227.87 366.29 227.54 365.95 227.54 365.54V362.75C227.54 362.34 227.87 362 228.29 362C228.71 362 229.04 362.34 229.04 362.75V365.53C229.04 365.95 228.71 366.29 228.29 366.29Z" fill="#292D32"/>
<path d="M235.71 366.29C235.29 366.29 234.96 365.95 234.96 365.54V362.75C234.96 362.33 235.3 362 235.71 362C236.13 362 236.46 362.34 236.46 362.75V365.53C236.46 365.95 236.13 366.29 235.71 366.29Z" fill="#292D32"/>
<path d="M239.57 364.5C238.91 364.01 237.96 364.48 237.96 365.31V365.41C237.96 366.58 237.12 367.66 235.95 367.78C234.6 367.92 233.46 366.86 233.46 365.54V364.5C233.46 363.95 233.01 363.5 232.46 363.5H231.54C230.99 363.5 230.54 363.95 230.54 364.5V365.54C230.54 366.33 230.13 367.03 229.51 367.42C229.42 367.48 229.32 367.53 229.22 367.58C229.13 367.63 229.03 367.67 228.92 367.7C228.8 367.74 228.67 367.77 228.53 367.78C228.37 367.8 228.21 367.8 228.05 367.78C227.91 367.77 227.78 367.74 227.66 367.7C227.56 367.67 227.46 367.63 227.36 367.58C227.26 367.53 227.16 367.48 227.07 367.42C226.44 366.98 226.04 366.22 226.04 365.41V365.31C226.04 364.54 225.22 364.08 224.57 364.41C224.56 364.42 224.55 364.42 224.54 364.43C224.5 364.45 224.47 364.47 224.43 364.5C224.4 364.53 224.36 364.55 224.33 364.58C224.05 364.8 223.8 365.05 223.59 365.32C223.48 365.44 223.39 365.57 223.31 365.7C223.3 365.71 223.29 365.72 223.28 365.74C223.19 365.87 223.11 366.02 223.04 366.16C223.02 366.18 223.01 366.19 223.01 366.21C222.95 366.33 222.89 366.45 222.85 366.58C222.82 366.63 222.81 366.67 222.79 366.72C222.73 366.87 222.69 367.02 222.65 367.17C222.61 367.31 222.58 367.46 222.56 367.61C222.54 367.72 222.53 367.83 222.52 367.95C222.51 368.09 222.5 368.23 222.5 368.37V377.13C222.5 379.82 224.68 382 227.37 382H236.63C239.32 382 241.5 379.82 241.5 377.13V368.37C241.5 366.78 240.74 365.39 239.57 364.5ZM232 377.42H227.36C226.95 377.42 226.61 377.08 226.61 376.67C226.61 376.25 226.95 375.91 227.36 375.91H232C232.42 375.91 232.75 376.25 232.75 376.67C232.75 377.08 232.42 377.42 232 377.42ZM234.78 373.71H227.36C226.95 373.71 226.61 373.37 226.61 372.96C226.61 372.54 226.95 372.2 227.36 372.2H234.78C235.2 372.2 235.54 372.54 235.54 372.96C235.54 373.37 235.2 373.71 234.78 373.71Z" fill="#292D32"/>
<path d="M419.29 366.29C418.87 366.29 418.54 365.95 418.54 365.54V362.75C418.54 362.34 418.87 362 419.29 362C419.71 362 420.04 362.34 420.04 362.75V365.53C420.04 365.95 419.71 366.29 419.29 366.29Z" fill="#292D32"/>
<path d="M426.71 366.29C426.29 366.29 425.96 365.95 425.96 365.54V362.75C425.96 362.33 426.3 362 426.71 362C427.13 362 427.46 362.34 427.46 362.75V365.53C427.46 365.95 427.13 366.29 426.71 366.29Z" fill="#292D32"/>
<path d="M430.57 364.5C429.91 364.01 428.96 364.48 428.96 365.31V365.41C428.96 366.58 428.12 367.66 426.95 367.78C425.6 367.92 424.46 366.86 424.46 365.54V364.5C424.46 363.95 424.01 363.5 423.46 363.5H422.54C421.99 363.5 421.54 363.95 421.54 364.5V365.54C421.54 366.33 421.13 367.03 420.51 367.42C420.42 367.48 420.32 367.53 420.22 367.58C420.13 367.63 420.03 367.67 419.92 367.7C419.8 367.74 419.67 367.77 419.53 367.78C419.37 367.8 419.21 367.8 419.05 367.78C418.91 367.77 418.78 367.74 418.66 367.7C418.56 367.67 418.46 367.63 418.36 367.58C418.26 367.53 418.16 367.48 418.07 367.42C417.44 366.98 417.04 366.22 417.04 365.41V365.31C417.04 364.54 416.22 364.08 415.57 364.41C415.56 364.42 415.55 364.42 415.54 364.43C415.5 364.45 415.47 364.47 415.43 364.5C415.4 364.53 415.36 364.55 415.33 364.58C415.05 364.8 414.8 365.05 414.59 365.32C414.48 365.44 414.39 365.57 414.31 365.7C414.3 365.71 414.29 365.72 414.28 365.74C414.19 365.87 414.11 366.02 414.04 366.16C414.02 366.18 414.01 366.19 414.01 366.21C413.95 366.33 413.89 366.45 413.85 366.58C413.82 366.63 413.81 366.67 413.79 366.72C413.73 366.87 413.69 367.02 413.65 367.17C413.61 367.31 413.58 367.46 413.56 367.61C413.54 367.72 413.53 367.83 413.52 367.95C413.51 368.09 413.5 368.23 413.5 368.37V377.13C413.5 379.82 415.68 382 418.37 382H427.63C430.32 382 432.5 379.82 432.5 377.13V368.37C432.5 366.78 431.74 365.39 430.57 364.5ZM423 376.25H421.31V378C421.31 378.41 420.97 378.75 420.56 378.75C420.14 378.75 419.81 378.41 419.81 378V376.25H418C417.59 376.25 417.25 375.91 417.25 375.5C417.25 375.09 417.59 374.75 418 374.75H419.81V373C419.81 372.59 420.14 372.25 420.56 372.25C420.97 372.25 421.31 372.59 421.31 373V374.75H423C423.41 374.75 423.75 375.09 423.75 375.5C423.75 375.91 423.41 376.25 423 376.25Z" fill="#292D32"/>
<path d="M496.5 242.19H493.61C491.24 242.19 489.31 240.26 489.31 237.89V235C489.31 234.45 488.86 234 488.31 234H484.07C480.99 234 478.5 236 478.5 239.57V248.43C478.5 252 480.99 254 484.07 254H491.93C495.01 254 497.5 252 497.5 248.43V243.19C497.5 242.64 497.05 242.19 496.5 242.19ZM489.75 246.94C489.75 246.99 489.75 247.05 489.75 247.1C489.73 247.24 489.67 247.37 489.57 247.49C489.56 247.5 489.54 247.52 489.53 247.53L487.53 249.53C487.38 249.68 487.19 249.75 487 249.75C486.81 249.75 486.62 249.68 486.47 249.53C486.18 249.24 486.18 248.76 486.47 248.47L487.19 247.75H483C482.59 247.75 482.25 247.41 482.25 247C482.25 246.59 482.59 246.25 483 246.25H487.19L486.47 245.53C486.32 245.38 486.25 245.19 486.25 245C486.25 244.81 486.32 244.62 486.47 244.47C486.76 244.18 487.24 244.18 487.53 244.47L489.53 246.47C489.66 246.61 489.73 246.77 489.75 246.94Z" fill="#292D32"/>
<path d="M493.43 240.81C494.38 240.82 495.7 240.82 496.83 240.82C497.4 240.82 497.7 240.15 497.3 239.75C495.86 238.3 493.28 235.69 491.8 234.21C491.39 233.8 490.68 234.08 490.68 234.65V238.14C490.68 239.6 491.92 240.81 493.43 240.81Z" fill="#292D32"/>
<path d="M304.5 242.19H301.61C299.24 242.19 297.31 240.26 297.31 237.89V235C297.31 234.45 296.86 234 296.31 234H292.07C288.99 234 286.5 236 286.5 239.57V248.43C286.5 252 288.99 254 292.07 254H299.93C303.01 254 305.5 252 305.5 248.43V243.19C305.5 242.64 305.05 242.19 304.5 242.19ZM296.48 247.7C295.96 249.37 294.13 250.27 293.5 250.27C292.86 250.27 291.07 249.4 290.52 247.7C290.16 246.59 290.57 245.14 291.84 244.73C292.42 244.54 293.04 244.65 293.49 245C293.94 244.65 294.56 244.54 295.15 244.73C296.43 245.14 296.83 246.59 296.48 247.7Z" fill="#292D32"/>
<path d="M301.43 240.81C302.38 240.82 303.7 240.82 304.83 240.82C305.4 240.82 305.7 240.15 305.3 239.75C303.86 238.3 301.28 235.69 299.8 234.21C299.39 233.8 298.68 234.08 298.68 234.65V238.14C298.68 239.6 299.92 240.81 301.43 240.81Z" fill="#292D32"/>
<path d="M432.5 242.19H429.61C427.24 242.19 425.31 240.26 425.31 237.89V235C425.31 234.45 424.86 234 424.31 234H420.07C416.99 234 414.5 236 414.5 239.57V248.43C414.5 252 416.99 254 420.07 254H427.93C431.01 254 433.5 252 433.5 248.43V243.19C433.5 242.64 433.05 242.19 432.5 242.19ZM423.53 245.53C423.38 245.68 423.19 245.75 423 245.75C422.81 245.75 422.62 245.68 422.47 245.53L421.75 244.81V249C421.75 249.41 421.41 249.75 421 249.75C420.59 249.75 420.25 249.41 420.25 249V244.81L419.53 245.53C419.24 245.82 418.76 245.82 418.47 245.53C418.18 245.24 418.18 244.76 418.47 244.47L420.47 242.47C420.54 242.41 420.61 242.36 420.69 242.32C420.71 242.31 420.74 242.3 420.76 242.29C420.82 242.27 420.88 242.26 420.95 242.25C420.98 242.25 421 242.25 421.03 242.25C421.11 242.25 421.19 242.27 421.27 242.3C421.28 242.3 421.28 242.3 421.29 242.3C421.37 242.33 421.45 242.39 421.51 242.45C421.52 242.46 421.53 242.46 421.53 242.47L423.53 244.47C423.82 244.76 423.82 245.24 423.53 245.53Z" fill="#292D32"/>
<path d="M429.43 240.81C430.38 240.82 431.7 240.82 432.83 240.82C433.4 240.82 433.7 240.15 433.3 239.75C431.86 238.3 429.28 235.69 427.8 234.21C427.39 233.8 426.68 234.08 426.68 234.65V238.14C426.68 239.6 427.92 240.81 429.43 240.81Z" fill="#292D32"/>
<path d="M747.5 245.15H745.33C743.55 245.15 742.1 243.71 742.1 241.92V239.75C742.1 239.34 741.77 239 741.35 239H738.18C735.87 239 734 240.5 734 243.18V249.82C734 252.5 735.87 254 738.18 254H744.07C746.38 254 748.25 252.5 748.25 249.82V245.9C748.25 245.48 747.91 245.15 747.5 245.15Z" fill="#292D32"/>
<path d="M749.82 234H747.85H746.76H743.93C741.67 234 739.84 235.44 739.76 238.01C739.82 238.01 739.87 238 739.93 238H742.76H743.85H745.82C748.13 238 750 239.5 750 242.18V244.15V246.86V248.83C750 248.89 749.99 248.94 749.99 248.99C752.22 248.92 754 247.44 754 244.83V242.86V240.15V238.18C754 235.5 752.13 234 749.82 234Z" fill="#292D32"/>
<path d="M743.98 239.15C743.67 238.84 743.14 239.05 743.14 239.48V242.1C743.14 243.2 744.07 244.1 745.21 244.1C745.92 244.11 746.91 244.11 747.76 244.11C748.19 244.11 748.41 243.61 748.11 243.31C747.02 242.22 745.08 240.27 743.98 239.15Z" fill="#292D32"/>
<path d="M235.8 234.21C235.39 233.8 234.68 234.08 234.68 234.65V238.14C234.68 239.6 235.92 240.81 237.43 240.81C238.38 240.82 239.7 240.82 240.83 240.82C241.4 240.82 241.7 240.15 241.3 239.75C239.86 238.3 237.28 235.69 235.8 234.21Z" fill="#292D32"/>
<path d="M240.5 242.19H237.61C235.24 242.19 233.31 240.26 233.31 237.89V235C233.31 234.45 232.86 234 232.31 234H228.07C224.99 234 222.5 236 222.5 239.57V248.43C222.5 252 224.99 254 228.07 254H235.93C239.01 254 241.5 252 241.5 248.43V243.19C241.5 242.64 241.05 242.19 240.5 242.19ZM231.5 249.75H227.5C227.09 249.75 226.75 249.41 226.75 249C226.75 248.59 227.09 248.25 227.5 248.25H231.5C231.91 248.25 232.25 248.59 232.25 249C232.25 249.41 231.91 249.75 231.5 249.75ZM233.5 245.75H227.5C227.09 245.75 226.75 245.41 226.75 245C226.75 244.59 227.09 244.25 227.5 244.25H233.5C233.91 244.25 234.25 244.59 234.25 245C234.25 245.41 233.91 245.75 233.5 245.75Z" fill="#292D32"/>
<path d="M555.8 234.21C555.39 233.8 554.68 234.08 554.68 234.65V238.14C554.68 239.6 555.92 240.81 557.43 240.81C558.38 240.82 559.7 240.82 560.83 240.82C561.4 240.82 561.7 240.15 561.3 239.75C559.86 238.3 557.28 235.69 555.8 234.21Z" fill="#292D32"/>
<path d="M560.5 242.19H557.61C555.24 242.19 553.31 240.26 553.31 237.89V235C553.31 234.45 552.86 234 552.31 234H548.07C544.99 234 542.5 236 542.5 239.57V248.43C542.5 252 544.99 254 548.07 254H555.93C559.01 254 561.5 252 561.5 248.43V243.19C561.5 242.64 561.05 242.19 560.5 242.19ZM553 247.75H548.81L549.53 248.47C549.82 248.76 549.82 249.24 549.53 249.53C549.38 249.68 549.19 249.75 549 249.75C548.81 249.75 548.62 249.68 548.47 249.53L546.47 247.53C546.4 247.46 546.36 247.39 546.32 247.31C546.31 247.29 546.3 247.26 546.29 247.24C546.27 247.18 546.26 247.12 546.25 247.06C546.25 247.03 546.25 247.01 546.25 246.98C546.25 246.9 546.27 246.82 546.3 246.74C546.3 246.73 546.3 246.73 546.31 246.72C546.34 246.64 546.4 246.56 546.46 246.5C546.47 246.49 546.47 246.48 546.48 246.48L548.48 244.48C548.77 244.19 549.25 244.19 549.54 244.48C549.83 244.77 549.83 245.25 549.54 245.54L548.82 246.26H553C553.41 246.26 553.75 246.6 553.75 247.01C553.75 247.42 553.41 247.75 553 247.75Z" fill="#292D32"/>
<path d="M298.35 298H293.65C292.61 298 291.76 298.84 291.76 299.88V300.82C291.76 301.86 292.6 302.7 293.64 302.7H298.35C299.39 302.7 300.23 301.86 300.23 300.82V299.88C300.24 298.84 299.39 298 298.35 298Z" fill="#292D32"/>
<path d="M301.24 300.82C301.24 302.41 299.94 303.71 298.35 303.71H293.65C292.06 303.71 290.76 302.41 290.76 300.82C290.76 300.26 290.16 299.91 289.66 300.17C288.25 300.92 287.29 302.41 287.29 304.12V313.53C287.29 315.99 289.3 318 291.76 318H300.24C302.7 318 304.71 315.99 304.71 313.53V304.12C304.71 302.41 303.75 300.92 302.34 300.17C301.84 299.91 301.24 300.26 301.24 300.82ZM298.53 312.69C298.38 312.84 298.19 312.91 298 312.91C297.81 312.91 297.62 312.84 297.47 312.69L296.02 311.24L294.53 312.73C294.38 312.88 294.19 312.95 294 312.95C293.81 312.95 293.62 312.88 293.47 312.73C293.18 312.44 293.18 311.96 293.47 311.67L294.96 310.18L293.51 308.73C293.22 308.44 293.22 307.96 293.51 307.67C293.8 307.38 294.28 307.38 294.57 307.67L296.02 309.12L297.42 307.72C297.71 307.43 298.19 307.43 298.48 307.72C298.77 308.01 298.77 308.49 298.48 308.78L297.08 310.18L298.53 311.63C298.82 311.92 298.82 312.39 298.53 312.69Z" fill="#292D32"/>
<path d="M492 300.25C492 301.49 490.99 302.5 489.75 302.5H486.25C485.63 302.5 485.07 302.25 484.66 301.84C484.25 301.43 484 300.87 484 300.25C484 299.01 485.01 298 486.25 298H489.75C490.37 298 490.93 298.25 491.34 298.66C491.75 299.07 492 299.63 492 300.25Z" fill="#292D32"/>
<path d="M494.83 301.03C494.6 300.84 494.34 300.69 494.06 300.58C493.77 300.47 493.48 300.7 493.42 301C493.08 302.71 491.57 304 489.75 304H486.25C485.25 304 484.31 303.61 483.6 302.9C483.08 302.38 482.72 301.72 482.58 301.01C482.52 300.71 482.22 300.47 481.93 300.59C480.77 301.06 480 302.12 480 304.25V314C480 317 481.79 318 484 318H492C494.21 318 496 317 496 314V304.25C496 302.62 495.55 301.62 494.83 301.03ZM484 308.25H488C488.41 308.25 488.75 308.59 488.75 309C488.75 309.41 488.41 309.75 488 309.75H484C483.59 309.75 483.25 309.41 483.25 309C483.25 308.59 483.59 308.25 484 308.25ZM492 313.75H484C483.59 313.75 483.25 313.41 483.25 313C483.25 312.59 483.59 312.25 484 312.25H492C492.41 312.25 492.75 312.59 492.75 313C492.75 313.41 492.41 313.75 492 313.75Z" fill="#292D32"/>
<path d="M684.19 298H675.81C672.17 298 670 300.17 670 303.81V312.18C670 315.83 672.17 318 675.81 318H684.18C687.82 318 689.99 315.83 689.99 312.19V303.81C690 300.17 687.83 298 684.19 298ZM678.95 313.51C678.66 313.8 678.11 314.08 677.71 314.14L675.25 314.49C675.16 314.5 675.07 314.51 674.98 314.51C674.57 314.51 674.19 314.37 673.92 314.1C673.59 313.77 673.45 313.29 673.53 312.76L673.88 310.3C673.94 309.89 674.21 309.35 674.51 309.06L678.97 304.6C679.05 304.81 679.13 305.02 679.24 305.26C679.34 305.47 679.45 305.69 679.57 305.89C679.67 306.06 679.78 306.22 679.87 306.34C679.98 306.51 680.11 306.67 680.19 306.76C680.24 306.83 680.28 306.88 680.3 306.9C680.55 307.2 680.84 307.48 681.09 307.69C681.16 307.76 681.2 307.8 681.22 307.81C681.37 307.93 681.52 308.05 681.65 308.14C681.81 308.26 681.97 308.37 682.14 308.46C682.34 308.58 682.56 308.69 682.78 308.8C683.01 308.9 683.22 308.99 683.43 309.06L678.95 313.51ZM685.37 307.09L684.45 308.02C684.39 308.08 684.31 308.11 684.23 308.11C684.2 308.11 684.16 308.11 684.14 308.1C682.11 307.52 680.49 305.9 679.91 303.87C679.88 303.76 679.91 303.64 679.99 303.57L680.92 302.64C682.44 301.12 683.89 301.15 685.38 302.64C686.14 303.4 686.51 304.13 686.51 304.89C686.5 305.61 686.13 306.33 685.37 307.09Z" fill="#292D32"/>
<path d="M816.71 240.12V249.53C816.71 251.99 814.7 254 812.24 254H803.76C801.3 254 799.29 251.99 799.29 249.53V240.12C799.29 238.41 800.25 236.92 801.66 236.17C802.15 235.91 802.76 236.26 802.76 236.82C802.76 238.41 804.06 239.71 805.65 239.71H810.35C811.94 239.71 813.24 238.41 813.24 236.82C813.24 236.26 813.84 235.91 814.34 236.17C815.75 236.92 816.71 238.41 816.71 240.12Z" fill="#292D32"/>
<path d="M810.35 234H805.65C804.61 234 803.76 234.84 803.76 235.88V236.82C803.76 237.86 804.6 238.7 805.64 238.7H810.35C811.39 238.7 812.23 237.86 812.23 236.82V235.88C812.24 234.84 811.39 234 810.35 234Z" fill="#292D32"/>
<path d="M176.5 242.19H173.61C171.24 242.19 169.31 240.26 169.31 237.89V235C169.31 234.45 168.86 234 168.31 234H164.07C160.99 234 158.5 236 158.5 239.57V248.43C158.5 252 160.99 254 164.07 254H171.93C175.01 254 177.5 252 177.5 248.43V243.19C177.5 242.64 177.05 242.19 176.5 242.19Z" fill="#292D32"/>
<path d="M171.8 234.21C171.39 233.8 170.68 234.08 170.68 234.65V238.14C170.68 239.6 171.92 240.81 173.43 240.81C174.38 240.82 175.7 240.82 176.83 240.82C177.4 240.82 177.7 240.15 177.3 239.75C175.86 238.3 173.28 235.69 171.8 234.21Z" fill="#292D32"/>
<path d="M556 298H548C544.5 298 543 300 543 303V313C543 316 544.5 318 548 318H556C559.5 318 561 316 561 313V303C561 300 559.5 298 556 298ZM548 308.25H552C552.41 308.25 552.75 308.59 552.75 309C552.75 309.41 552.41 309.75 552 309.75H548C547.59 309.75 547.25 309.41 547.25 309C547.25 308.59 547.59 308.25 548 308.25ZM556 313.75H548C547.59 313.75 547.25 313.41 547.25 313C547.25 312.59 547.59 312.25 548 312.25H556C556.41 312.25 556.75 312.59 556.75 313C556.75 313.41 556.41 313.75 556 313.75ZM558.5 305.25H556.5C554.98 305.25 553.75 304.02 553.75 302.5V300.5C553.75 300.09 554.09 299.75 554.5 299.75C554.91 299.75 555.25 300.09 555.25 300.5V302.5C555.25 303.19 555.81 303.75 556.5 303.75H558.5C558.91 303.75 559.25 304.09 559.25 304.5C559.25 304.91 558.91 305.25 558.5 305.25Z" fill="#292D32"/>
<path d="M683.8 234.21C683.39 233.8 682.68 234.08 682.68 234.65V238.14C682.68 239.6 683.92 240.81 685.43 240.81C686.38 240.82 687.7 240.82 688.83 240.82C689.4 240.82 689.7 240.15 689.3 239.75C687.86 238.3 685.28 235.69 683.8 234.21Z" fill="#292D32"/>
<path d="M682.76 251.26C680.41 251.43 680.41 254.83 682.76 255H688.32C688.99 255 689.65 254.75 690.14 254.3C691.79 252.86 690.91 249.98 688.74 249.71C687.96 245.02 681.18 246.8 682.78 251.27" fill="#292D32"/>
<path d="M689.5 243.19V246.44C689.5 246.74 689.06 246.88 688.84 246.67C688.36 246.2 687.77 245.84 687.09 245.63C685.41 245.11 683.46 245.62 682.25 246.9C681.44 247.74 681.03 248.81 681.04 249.97C681.04 250.16 680.95 250.33 680.8 250.44C680 251.05 679.5 252.01 679.5 253.12C679.5 253.2 679.5 253.28 679.51 253.36C679.53 253.68 679.3 253.99 678.97 253.99H676.07C672.99 253.99 670.5 251.99 670.5 248.42V239.57C670.5 236 672.99 234 676.07 234H680.31C680.86 234 681.31 234.45 681.31 235V237.89C681.31 240.27 683.23 242.19 685.61 242.19H688.5C689.05 242.19 689.5 242.64 689.5 243.19Z" fill="#292D32"/>
<path d="M753 318H735C734.59 318 734.25 317.66 734.25 317.25C734.25 316.84 734.59 316.5 735 316.5H753C753.41 316.5 753.75 316.84 753.75 317.25C753.75 317.66 753.41 318 753 318Z" fill="#292D32"/>
<path d="M751.02 299.48C749.08 297.54 747.18 297.49 745.19 299.48L743.98 300.69C743.88 300.79 743.84 300.95 743.88 301.09C744.64 303.74 746.76 305.86 749.41 306.62C749.45 306.63 749.49 306.64 749.53 306.64C749.64 306.64 749.74 306.6 749.82 306.52L751.02 305.31C752.01 304.33 752.49 303.38 752.49 302.42C752.5 301.43 752.02 300.47 751.02 299.48Z" fill="#292D32"/>
<path d="M747.61 307.53C747.32 307.39 747.04 307.25 746.77 307.09C746.55 306.96 746.34 306.82 746.13 306.67C745.96 306.56 745.76 306.4 745.57 306.24C745.55 306.23 745.48 306.17 745.4 306.09C745.07 305.81 744.7 305.45 744.37 305.05C744.34 305.03 744.29 304.96 744.22 304.87C744.12 304.75 743.95 304.55 743.8 304.32C743.68 304.17 743.54 303.95 743.41 303.73C743.25 303.46 743.11 303.19 742.97 302.91C742.949 302.865 742.929 302.819 742.909 302.775C742.761 302.441 742.327 302.344 742.069 302.602L736.34 308.33C736.21 308.46 736.09 308.71 736.06 308.88L735.52 312.71C735.42 313.39 735.61 314.03 736.03 314.46C736.39 314.81 736.89 315 737.43 315C737.55 315 737.67 314.99 737.79 314.97L741.63 314.43C741.81 314.4 742.06 314.28 742.18 314.15L747.902 308.429C748.161 308.169 748.063 307.724 747.726 307.58C747.688 307.563 747.649 307.547 747.61 307.53Z" fill="#292D32"/>
<path d="M624.5 242.19H621.61C619.24 242.19 617.31 240.26 617.31 237.89V235C617.31 234.45 616.86 234 616.31 234H612.07C608.99 234 606.5 236 606.5 239.57V248.43C606.5 252 608.99 254 612.07 254H619.93C623.01 254 625.5 252 625.5 248.43V243.19C625.5 242.64 625.05 242.19 624.5 242.19ZM616.4 247.58L614.54 249.44C614.31 249.67 613.99 249.8 613.65 249.8C613.31 249.8 613 249.67 612.76 249.44L610.9 247.58C610.49 247.17 610.42 246.48 610.75 246L611.6 244.72C611.81 244.39 612.25 244.16 612.64 244.16H614.65C615.04 244.16 615.47 244.39 615.69 244.72L616.55 246C616.86 246.48 616.8 247.17 616.4 247.58Z" fill="#292D32"/>
<path d="M621.43 240.81C622.38 240.82 623.7 240.82 624.83 240.82C625.4 240.82 625.7 240.15 625.3 239.75C623.86 238.3 621.28 235.69 619.8 234.21C619.39 233.8 618.68 234.08 618.68 234.65V238.14C618.68 239.6 619.92 240.81 621.43 240.81Z" fill="#292D32"/>
<path d="M170.35 298H165.65C164.61 298 163.76 298.84 163.76 299.88V300.82C163.76 301.86 164.6 302.7 165.64 302.7H170.35C171.39 302.7 172.23 301.86 172.23 300.82V299.88C172.24 298.84 171.39 298 170.35 298Z" fill="#292D32"/>
<path d="M173.24 300.82C173.24 302.41 171.94 303.71 170.35 303.71H165.65C164.06 303.71 162.76 302.41 162.76 300.82C162.76 300.26 162.16 299.91 161.66 300.17C160.25 300.92 159.29 302.41 159.29 304.12V313.53C159.29 315.99 161.3 318 163.76 318H172.24C174.7 318 176.71 315.99 176.71 313.53V304.12C176.71 302.41 175.75 300.92 174.34 300.17C173.84 299.91 173.24 300.26 173.24 300.82ZM168.38 312.95H164C163.59 312.95 163.25 312.61 163.25 312.2C163.25 311.79 163.59 311.45 164 311.45H168.38C168.79 311.45 169.13 311.79 169.13 312.2C169.13 312.61 168.79 312.95 168.38 312.95ZM171 308.95H164C163.59 308.95 163.25 308.61 163.25 308.2C163.25 307.79 163.59 307.45 164 307.45H171C171.41 307.45 171.75 307.79 171.75 308.2C171.75 308.61 171.41 308.95 171 308.95Z" fill="#292D32"/>
<path d="M362.35 298H357.65C356.61 298 355.76 298.84 355.76 299.88V300.82C355.76 301.86 356.6 302.7 357.64 302.7H362.35C363.39 302.7 364.23 301.86 364.23 300.82V299.88C364.24 298.84 363.39 298 362.35 298Z" fill="#292D32"/>
<path d="M365.24 300.82C365.24 302.41 363.94 303.71 362.35 303.71H357.65C356.06 303.71 354.76 302.41 354.76 300.82C354.76 300.26 354.16 299.91 353.66 300.17C352.25 300.92 351.29 302.41 351.29 304.12V313.53C351.29 315.99 353.3 318 355.76 318H364.24C366.7 318 368.71 315.99 368.71 313.53V304.12C368.71 302.41 367.75 300.92 366.34 300.17C365.84 299.91 365.24 300.26 365.24 300.82ZM363.53 313.53C363.38 313.68 363.19 313.75 363 313.75C362.81 313.75 362.62 313.68 362.47 313.53L357.75 308.81V310C357.75 310.41 357.41 310.75 357 310.75C356.59 310.75 356.25 310.41 356.25 310V307C356.25 306.59 356.59 306.25 357 306.25H360C360.41 306.25 360.75 306.59 360.75 307C360.75 307.41 360.41 307.75 360 307.75H358.81L363.53 312.47C363.82 312.76 363.82 313.24 363.53 313.53Z" fill="#292D32"/>
<path d="M234.35 298H229.65C228.61 298 227.76 298.84 227.76 299.88V300.82C227.76 301.86 228.6 302.7 229.64 302.7H234.35C235.39 302.7 236.23 301.86 236.23 300.82V299.88C236.24 298.84 235.39 298 234.35 298Z" fill="#292D32"/>
<path d="M237.24 300.82C237.24 302.41 235.94 303.71 234.35 303.71H229.65C228.06 303.71 226.76 302.41 226.76 300.82C226.76 300.26 226.16 299.91 225.66 300.17C224.25 300.92 223.29 302.41 223.29 304.12V313.53C223.29 315.99 225.3 318 227.76 318H236.24C238.7 318 240.71 315.99 240.71 313.53V304.12C240.71 302.41 239.75 300.92 238.34 300.17C237.84 299.91 237.24 300.26 237.24 300.82ZM235.34 308.73L231.34 312.73C231.19 312.88 231 312.95 230.81 312.95C230.62 312.95 230.43 312.88 230.28 312.73L228.78 311.23C228.49 310.94 228.49 310.46 228.78 310.17C229.07 309.88 229.55 309.88 229.84 310.17L230.81 311.14L234.28 307.67C234.57 307.38 235.05 307.38 235.34 307.67C235.63 307.96 235.63 308.44 235.34 308.73Z" fill="#292D32"/>
<path d="M620 298H612C608.5 298 607 300 607 303V313C607 316 608.5 318 612 318H620C623.5 318 625 316 625 313V303C625 300 623.5 298 620 298ZM617.07 311.49C616.56 313.12 614.77 313.97 614.27 313.97C613.78 313.96 612.01 313.13 611.48 311.49C611.15 310.46 611.54 309.19 612.61 308.84C613.18 308.66 613.88 308.81 614.27 309.36C614.64 308.79 615.37 308.66 615.93 308.84C617.01 309.19 617.39 310.46 617.07 311.49ZM622.5 305.25H620.5C618.98 305.25 617.75 304.02 617.75 302.5V300.5C617.75 300.09 618.09 299.75 618.5 299.75C618.91 299.75 619.25 300.09 619.25 300.5V302.5C619.25 303.19 619.81 303.75 620.5 303.75H622.5C622.91 303.75 623.25 304.09 623.25 304.5C623.25 304.91 622.91 305.25 622.5 305.25Z" fill="#292D32"/>
<path d="M426.35 298H421.65C420.61 298 419.76 298.84 419.76 299.88V300.82C419.76 301.86 420.6 302.7 421.64 302.7H426.35C427.39 302.7 428.23 301.86 428.23 300.82V299.88C428.24 298.84 427.39 298 426.35 298Z" fill="#292D32"/>
<path d="M429.24 300.82C429.24 302.41 427.94 303.71 426.35 303.71H421.65C420.06 303.71 418.76 302.41 418.76 300.82C418.76 300.26 418.16 299.91 417.66 300.17C416.25 300.92 415.29 302.41 415.29 304.12V313.53C415.29 315.99 417.3 318 419.76 318H428.24C430.7 318 432.71 315.99 432.71 313.53V304.12C432.71 302.41 431.75 300.92 430.34 300.17C429.84 299.91 429.24 300.26 429.24 300.82ZM427.75 313C427.75 313.41 427.41 313.75 427 313.75H424C423.59 313.75 423.25 313.41 423.25 313C423.25 312.59 423.59 312.25 424 312.25H425.19L420.47 307.53C420.18 307.24 420.18 306.76 420.47 306.47C420.76 306.18 421.24 306.18 421.53 306.47L426.25 311.19V310C426.25 309.59 426.59 309.25 427 309.25C427.41 309.25 427.75 309.59 427.75 310V313Z" fill="#292D32"/>
<path d="M368.5 242.19H365.61C363.24 242.19 361.31 240.26 361.31 237.89V235C361.31 234.45 360.86 234 360.31 234H356.07C352.99 234 350.5 236 350.5 239.57V248.43C350.5 252 352.99 254 356.07 254H363.93C367.01 254 369.5 252 369.5 248.43V243.19C369.5 242.64 369.05 242.19 368.5 242.19ZM360.28 247.78L358.28 249.78C358.21 249.85 358.12 249.91 358.03 249.94C357.94 249.98 357.85 250 357.75 250C357.65 250 357.56 249.98 357.47 249.94C357.39 249.91 357.31 249.85 357.25 249.79C357.24 249.78 357.23 249.78 357.23 249.77L355.23 247.77C354.94 247.48 354.94 247 355.23 246.71C355.52 246.42 356 246.42 356.29 246.71L357 247.44V243.25C357 242.84 357.34 242.5 357.75 242.5C358.16 242.5 358.5 242.84 358.5 243.25V247.44L359.22 246.72C359.51 246.43 359.99 246.43 360.28 246.72C360.57 247.01 360.57 247.49 360.28 247.78Z" fill="#292D32"/>
<path d="M365.43 240.81C366.38 240.82 367.7 240.82 368.83 240.82C369.4 240.82 369.7 240.15 369.3 239.75C367.86 238.3 365.28 235.69 363.8 234.21C363.39 233.8 362.68 234.08 362.68 234.65V238.14C362.68 239.6 363.92 240.81 365.43 240.81Z" fill="#292D32"/>
</g>
<defs>
<filter id="filter0_d_1543_4886" x="0" y="0" width="976" height="598" filterUnits="userSpaceOnUse" color-interpolation-filters="sRGB">
<feFlood flood-opacity="0" result="BackgroundImageFix"/>
<feColorMatrix in="SourceAlpha" type="matrix" values="0 0 0 0 0 0 0 0 0 0 0 0 0 0 0 0 0 0 127 0" result="hardAlpha"/>
<feOffset dy="4"/>
<feGaussianBlur stdDeviation="24"/>
<feColorMatrix type="matrix" values="0 0 0 0 0 0 0 0 0 0 0 0 0 0 0 0 0 0 0.02 0"/>
<feBlend mode="normal" in2="BackgroundImageFix" result="effect1_dropShadow_1543_4886"/>
<feBlend mode="normal" in="SourceGraphic" in2="effect1_dropShadow_1543_4886" result="shape"/>
</filter>
</defs>
</svg>
